<svg xmlns="http://www.w3.org/2000/svg" width="900" height="379" viewBox="0 0 1604 676">
<defs>
  <marker id="arrow" markerWidth="10" markerHeight="10" refX="8" refY="3" orient="auto" markerUnits="strokeWidth">
    <path d="M0,0 L0,6 L8,3 z" fill="#5f6f85"/>
  </marker>
</defs>
<rect x="0" y="0" width="1604" height="676" fill="white"/>

<line x1="295" y1="83" x2="335" y2="83" stroke="#5f6f85" stroke-width="1.5" marker-end="url(#arrow)"/><text x="315" y="75" text-anchor="middle" font-family="Inter, Helvetica, Arial, sans-serif" font-size="22" fill="#4b5563">Spark Connect gRPC</text>
<line x1="643" y1="83" x2="714" y2="83" stroke="#5f6f85" stroke-width="1.5" marker-end="url(#arrow)"/>
<line x1="904" y1="83" x2="1017" y2="83" stroke="#5f6f85" stroke-width="1.5" marker-end="url(#arrow)"/>
<line x1="1241" y1="83" x2="1344" y2="83" stroke="#5f6f85" stroke-width="1.5" marker-end="url(#arrow)"/>
<line x1="1554" y1="83" x2="36" y2="338" stroke="#5f6f85" stroke-width="1.5" marker-end="url(#arrow)"/>
<line x1="302" y1="338" x2="370" y2="338" stroke="#5f6f85" stroke-width="1.5" marker-end="url(#arrow)"/>
<line x1="608" y1="338" x2="683" y2="338" stroke="#5f6f85" stroke-width="1.5" marker-end="url(#arrow)"/>
<line x1="935" y1="338" x2="1003" y2="338" stroke="#5f6f85" stroke-width="1.5" marker-end="url(#arrow)"/><text x="969" y="330" text-anchor="middle" font-family="Inter, Helvetica, Arial, sans-serif" font-size="22" fill="#4b5563">local</text>
<line x1="935" y1="338" x2="989" y2="493" stroke="#5f6f85" stroke-width="1.5" marker-end="url(#arrow)"/><text x="962" y="407.5" text-anchor="middle" font-family="Inter, Helvetica, Arial, sans-serif" font-size="22" fill="#4b5563">cluster</text>
<line x1="1269" y1="493" x2="1337" y2="338" stroke="#5f6f85" stroke-width="1.5" marker-end="url(#arrow)"/>
<line x1="1561" y1="338" x2="50" y2="593" stroke="#5f6f85" stroke-width="1.5" marker-end="url(#arrow)"/>
<line x1="288" y1="593" x2="356" y2="593" stroke="#5f6f85" stroke-width="1.5" marker-end="url(#arrow)"/>
<line x1="1255" y1="338" x2="1330" y2="493" stroke="#5f6f85" stroke-width="1.5" marker-end="url(#arrow)"/>
<line x1="622" y1="593" x2="1330" y2="493" stroke="#5f6f85" stroke-width="1.5" marker-end="url(#arrow)"/>
<line x1="1568" y1="493" x2="43" y2="83" stroke="#5f6f85" stroke-width="1.5" marker-end="url(#arrow)"/><text x="805.5" y="280" text-anchor="middle" font-family="Inter, Helvetica, Arial, sans-serif" font-size="22" fill="#4b5563">Spark Connect ArrowBatch</text>
<rect x="43" y="52" width="252" height="62" rx="8" fill="#f6f8fb" stroke="#496a9a" stroke-width="1.5"/>
<text x="169" y="83" text-anchor="middle" dominant-baseline="middle" font-family="Inter, Helvetica, Arial, sans-serif" font-size="26" fill="#1f2937"><tspan x="169" dy="0">PySpark client</tspan></text>
<rect x="335" y="52" width="308" height="62" rx="8" fill="#f6f8fb" stroke="#496a9a" stroke-width="1.5"/>
<text x="489" y="83" text-anchor="middle" dominant-baseline="middle" font-family="Inter, Helvetica, Arial, sans-serif" font-size="26" fill="#1f2937"><tspan x="489" dy="0">sail-spark-connect</tspan></text>
<rect x="714" y="52" width="190" height="62" rx="8" fill="#f6f8fb" stroke="#496a9a" stroke-width="1.5"/>
<text x="809" y="83" text-anchor="middle" dominant-baseline="middle" font-family="Inter, Helvetica, Arial, sans-serif" font-size="26" fill="#1f2937"><tspan x="809" dy="0">Sail spec</tspan></text>
<rect x="1017" y="52" width="224" height="62" rx="8" fill="#f6f8fb" stroke="#496a9a" stroke-width="1.5"/>
<text x="1129" y="83" text-anchor="middle" dominant-baseline="middle" font-family="Inter, Helvetica, Arial, sans-serif" font-size="26" fill="#1f2937"><tspan x="1129" dy="0">PlanResolver</tspan></text>
<rect x="1344" y="36" width="210" height="94" rx="8" fill="#f6f8fb" stroke="#496a9a" stroke-width="1.5"/>
<text x="1449" y="67" text-anchor="middle" dominant-baseline="middle" font-family="Inter, Helvetica, Arial, sans-serif" font-size="26" fill="#1f2937"><tspan x="1449" dy="0">DataFusion</tspan><tspan x="1449" dy="32">LogicalPlan</tspan></text>
<rect x="36" y="291" width="266" height="94" rx="8" fill="#f6f8fb" stroke="#496a9a" stroke-width="1.5"/>
<text x="169" y="322" text-anchor="middle" dominant-baseline="middle" font-family="Inter, Helvetica, Arial, sans-serif" font-size="26" fill="#1f2937"><tspan x="169" dy="0">Analyzer and</tspan><tspan x="169" dy="32">optimizer rules</tspan></text>
<rect x="370" y="291" width="238" height="94" rx="8" fill="#f6f8fb" stroke="#496a9a" stroke-width="1.5"/>
<text x="489" y="322" text-anchor="middle" dominant-baseline="middle" font-family="Inter, Helvetica, Arial, sans-serif" font-size="26" fill="#1f2937"><tspan x="489" dy="0">DataFusion</tspan><tspan x="489" dy="32">ExecutionPlan</tspan></text>
<rect x="683" y="307" width="252" height="62" rx="10" fill="#fff6d9" stroke="#c58c00" stroke-width="1.5"/>
<text x="809" y="338" text-anchor="middle" dominant-baseline="middle" font-family="Inter, Helvetica, Arial, sans-serif" font-size="26" fill="#1f2937"><tspan x="809" dy="0">Execution mode</tspan></text>
<rect x="1003" y="307" width="252" height="62" rx="8" fill="#f6f8fb" stroke="#496a9a" stroke-width="1.5"/>
<text x="1129" y="338" text-anchor="middle" dominant-baseline="middle" font-family="Inter, Helvetica, Arial, sans-serif" font-size="26" fill="#1f2937"><tspan x="1129" dy="0">LocalJobRunner</tspan></text>
<rect x="989" y="446" width="280" height="94" rx="8" fill="#f6f8fb" stroke="#496a9a" stroke-width="1.5"/>
<text x="1129" y="477" text-anchor="middle" dominant-baseline="middle" font-family="Inter, Helvetica, Arial, sans-serif" font-size="26" fill="#1f2937"><tspan x="1129" dy="0">JobGraph: stages</tspan><tspan x="1129" dy="32">and tasks</tspan></text>
<rect x="1337" y="307" width="224" height="62" rx="8" fill="#f6f8fb" stroke="#496a9a" stroke-width="1.5"/>
<text x="1449" y="338" text-anchor="middle" dominant-baseline="middle" font-family="Inter, Helvetica, Arial, sans-serif" font-size="26" fill="#1f2937"><tspan x="1449" dy="0">Driver actor</tspan></text>
<rect x="50" y="562" width="238" height="62" rx="8" fill="#f6f8fb" stroke="#496a9a" stroke-width="1.5"/>
<text x="169" y="593" text-anchor="middle" dominant-baseline="middle" font-family="Inter, Helvetica, Arial, sans-serif" font-size="26" fill="#1f2937"><tspan x="169" dy="0">Worker actors</tspan></text>
<rect x="356" y="546" width="266" height="94" rx="8" fill="#f6f8fb" stroke="#496a9a" stroke-width="1.5"/>
<text x="489" y="577" text-anchor="middle" dominant-baseline="middle" font-family="Inter, Helvetica, Arial, sans-serif" font-size="26" fill="#1f2937"><tspan x="489" dy="0">Arrow Flight</tspan><tspan x="489" dy="32">shuffle streams</tspan></text>
<rect x="1330" y="446" width="238" height="94" rx="8" fill="#f6f8fb" stroke="#496a9a" stroke-width="1.5"/>
<text x="1449" y="477" text-anchor="middle" dominant-baseline="middle" font-family="Inter, Helvetica, Arial, sans-serif" font-size="26" fill="#1f2937"><tspan x="1449" dy="0">Arrow</tspan><tspan x="1449" dy="32">RecordBatches</tspan></text>
</svg>