<svg xmlns="http://www.w3.org/2000/svg" width="900" height="410" viewBox="0 0 1300 592">
<defs>
  <marker id="arrow" markerWidth="10" markerHeight="10" refX="8" refY="3" orient="auto" markerUnits="strokeWidth">
    <path d="M0,0 L0,6 L8,3 z" fill="#5f6f85"/>
  </marker>
</defs>
<rect x="0" y="0" width="1300" height="592" fill="white"/>

<line x1="250" y1="81" x2="273" y2="81" stroke="#5f6f85" stroke-width="1.5" marker-end="url(#arrow)"/><text x="261.5" y="73" text-anchor="middle" font-family="Inter, Helvetica, Arial, sans-serif" font-size="22" fill="#4b5563">Spark Connect gRPC</text>
<line x1="529" y1="81" x2="571" y2="81" stroke="#5f6f85" stroke-width="1.5" marker-end="url(#arrow)"/>
<line x1="741" y1="81" x2="819" y2="81" stroke="#5f6f85" stroke-width="1.5" marker-end="url(#arrow)"/>
<line x1="1003" y1="81" x2="1080" y2="81" stroke="#5f6f85" stroke-width="1.5" marker-end="url(#arrow)"/>
<line x1="1252" y1="81" x2="36" y2="296" stroke="#5f6f85" stroke-width="1.5" marker-end="url(#arrow)"/>
<line x1="256" y1="296" x2="303" y2="296" stroke="#5f6f85" stroke-width="1.5" marker-end="url(#arrow)"/>
<line x1="499" y1="296" x2="552" y2="296" stroke="#5f6f85" stroke-width="1.5" marker-end="url(#arrow)"/>
<line x1="760" y1="296" x2="807" y2="296" stroke="#5f6f85" stroke-width="1.5" marker-end="url(#arrow)"/><text x="783.5" y="288" text-anchor="middle" font-family="Inter, Helvetica, Arial, sans-serif" font-size="22" fill="#4b5563">local</text>
<line x1="760" y1="296" x2="795" y2="426" stroke="#5f6f85" stroke-width="1.5" marker-end="url(#arrow)"/><text x="777.5" y="353" text-anchor="middle" font-family="Inter, Helvetica, Arial, sans-serif" font-size="22" fill="#4b5563">cluster</text>
<line x1="1027" y1="426" x2="1074" y2="296" stroke="#5f6f85" stroke-width="1.5" marker-end="url(#arrow)"/>
<line x1="1258" y1="296" x2="48" y2="511" stroke="#5f6f85" stroke-width="1.5" marker-end="url(#arrow)"/>
<line x1="244" y1="511" x2="291" y2="511" stroke="#5f6f85" stroke-width="1.5" marker-end="url(#arrow)"/>
<line x1="1015" y1="296" x2="1068" y2="426" stroke="#5f6f85" stroke-width="1.5" marker-end="url(#arrow)"/>
<line x1="511" y1="511" x2="1068" y2="426" stroke="#5f6f85" stroke-width="1.5" marker-end="url(#arrow)"/>
<line x1="1264" y1="426" x2="42" y2="81" stroke="#5f6f85" stroke-width="1.5" marker-end="url(#arrow)"/><text x="653" y="245.5" text-anchor="middle" font-family="Inter, Helvetica, Arial, sans-serif" font-size="22" fill="#4b5563">Spark Connect ArrowBatch</text>
<rect x="42" y="52" width="208" height="58" rx="8" fill="#f6f8fb" stroke="#496a9a" stroke-width="1.5"/>
<text x="146" y="81" text-anchor="middle" dominant-baseline="middle" font-family="Inter, Helvetica, Arial, sans-serif" font-size="26" fill="#1f2937"><tspan x="146" dy="0">PySpark client</tspan></text>
<rect x="273" y="52" width="256" height="58" rx="8" fill="#f6f8fb" stroke="#496a9a" stroke-width="1.5"/>
<text x="401" y="81" text-anchor="middle" dominant-baseline="middle" font-family="Inter, Helvetica, Arial, sans-serif" font-size="26" fill="#1f2937"><tspan x="401" dy="0">sail-spark-connect</tspan></text>
<rect x="571" y="52" width="170" height="58" rx="8" fill="#f6f8fb" stroke="#496a9a" stroke-width="1.5"/>
<text x="656" y="81" text-anchor="middle" dominant-baseline="middle" font-family="Inter, Helvetica, Arial, sans-serif" font-size="26" fill="#1f2937"><tspan x="656" dy="0">Sail spec</tspan></text>
<rect x="819" y="52" width="184" height="58" rx="8" fill="#f6f8fb" stroke="#496a9a" stroke-width="1.5"/>
<text x="911" y="81" text-anchor="middle" dominant-baseline="middle" font-family="Inter, Helvetica, Arial, sans-serif" font-size="26" fill="#1f2937"><tspan x="911" dy="0">PlanResolver</tspan></text>
<rect x="1080" y="36" width="172" height="90" rx="8" fill="#f6f8fb" stroke="#496a9a" stroke-width="1.5"/>
<text x="1166" y="65" text-anchor="middle" dominant-baseline="middle" font-family="Inter, Helvetica, Arial, sans-serif" font-size="26" fill="#1f2937"><tspan x="1166" dy="0">DataFusion</tspan><tspan x="1166" dy="32">LogicalPlan</tspan></text>
<rect x="36" y="251" width="220" height="90" rx="8" fill="#f6f8fb" stroke="#496a9a" stroke-width="1.5"/>
<text x="146" y="280" text-anchor="middle" dominant-baseline="middle" font-family="Inter, Helvetica, Arial, sans-serif" font-size="26" fill="#1f2937"><tspan x="146" dy="0">Analyzer and</tspan><tspan x="146" dy="32">optimizer rules</tspan></text>
<rect x="303" y="251" width="196" height="90" rx="8" fill="#f6f8fb" stroke="#496a9a" stroke-width="1.5"/>
<text x="401" y="280" text-anchor="middle" dominant-baseline="middle" font-family="Inter, Helvetica, Arial, sans-serif" font-size="26" fill="#1f2937"><tspan x="401" dy="0">DataFusion</tspan><tspan x="401" dy="32">ExecutionPlan</tspan></text>
<rect x="552" y="267" width="208" height="58" rx="10" fill="#fff6d9" stroke="#c58c00" stroke-width="1.5"/>
<text x="656" y="296" text-anchor="middle" dominant-baseline="middle" font-family="Inter, Helvetica, Arial, sans-serif" font-size="26" fill="#1f2937"><tspan x="656" dy="0">Execution mode</tspan></text>
<rect x="807" y="267" width="208" height="58" rx="8" fill="#f6f8fb" stroke="#496a9a" stroke-width="1.5"/>
<text x="911" y="296" text-anchor="middle" dominant-baseline="middle" font-family="Inter, Helvetica, Arial, sans-serif" font-size="26" fill="#1f2937"><tspan x="911" dy="0">LocalJobRunner</tspan></text>
<rect x="795" y="381" width="232" height="90" rx="8" fill="#f6f8fb" stroke="#496a9a" stroke-width="1.5"/>
<text x="911" y="410" text-anchor="middle" dominant-baseline="middle" font-family="Inter, Helvetica, Arial, sans-serif" font-size="26" fill="#1f2937"><tspan x="911" dy="0">JobGraph: stages</tspan><tspan x="911" dy="32">and tasks</tspan></text>
<rect x="1074" y="267" width="184" height="58" rx="8" fill="#f6f8fb" stroke="#496a9a" stroke-width="1.5"/>
<text x="1166" y="296" text-anchor="middle" dominant-baseline="middle" font-family="Inter, Helvetica, Arial, sans-serif" font-size="26" fill="#1f2937"><tspan x="1166" dy="0">Driver actor</tspan></text>
<rect x="48" y="482" width="196" height="58" rx="8" fill="#f6f8fb" stroke="#496a9a" stroke-width="1.5"/>
<text x="146" y="511" text-anchor="middle" dominant-baseline="middle" font-family="Inter, Helvetica, Arial, sans-serif" font-size="26" fill="#1f2937"><tspan x="146" dy="0">Worker actors</tspan></text>
<rect x="291" y="466" width="220" height="90" rx="8" fill="#f6f8fb" stroke="#496a9a" stroke-width="1.5"/>
<text x="401" y="495" text-anchor="middle" dominant-baseline="middle" font-family="Inter, Helvetica, Arial, sans-serif" font-size="26" fill="#1f2937"><tspan x="401" dy="0">Arrow Flight</tspan><tspan x="401" dy="32">shuffle streams</tspan></text>
<rect x="1068" y="381" width="196" height="90" rx="8" fill="#f6f8fb" stroke="#496a9a" stroke-width="1.5"/>
<text x="1166" y="410" text-anchor="middle" dominant-baseline="middle" font-family="Inter, Helvetica, Arial, sans-serif" font-size="26" fill="#1f2937"><tspan x="1166" dy="0">Arrow</tspan><tspan x="1166" dy="32">RecordBatches</tspan></text>
</svg>