<svg xmlns="http://www.w3.org/2000/svg" width="420" height="1080" viewBox="0 0 420 1080">
<defs>
  <marker id="arrow" markerWidth="10" markerHeight="10" refX="8" refY="3" orient="auto" markerUnits="strokeWidth">
    <path d="M0,0 L0,6 L8,3 z" fill="#5f6f85"/>
  </marker>
</defs>
<rect x="0" y="0" width="420" height="1080" fill="white"/>
<rect x="10" y="157" width="374" height="293" rx="10" fill="#eef6ff" stroke="#9bc3e6" stroke-dasharray="5 4"/>
<text x="22" y="181" font-family="Inter, Helvetica, Arial, sans-serif" font-size="24" font-weight="700" fill="#315a86">Stage 0</text>
<rect x="17" y="638" width="360" height="432" rx="10" fill="#eef6ff" stroke="#9bc3e6" stroke-dasharray="5 4"/>
<text x="29" y="662" font-family="Inter, Helvetica, Arial, sans-serif" font-size="24" font-weight="700" fill="#315a86">Stage 1</text>
<line x1="197" y1="130" x2="197" y2="191" stroke="#5f6f85" stroke-width="1.5" marker-end="url(#arrow)"/>
<line x1="197" y1="285" x2="197" y2="362" stroke="#5f6f85" stroke-width="1.5" marker-end="url(#arrow)"/>
<line x1="197" y1="424" x2="197" y2="501" stroke="#5f6f85" stroke-width="1.5" marker-end="url(#arrow)"/>
<line x1="197" y1="595" x2="197" y2="672" stroke="#5f6f85" stroke-width="1.5" marker-end="url(#arrow)"/>
<line x1="197" y1="734" x2="197" y2="811" stroke="#5f6f85" stroke-width="1.5" marker-end="url(#arrow)"/>
<line x1="197" y1="905" x2="197" y2="982" stroke="#5f6f85" stroke-width="1.5" marker-end="url(#arrow)"/>
<rect x="78" y="36" width="238" height="94" rx="8" fill="#f6f8fb" stroke="#496a9a" stroke-width="1.5"/>
<text x="197" y="67" text-anchor="middle" dominant-baseline="middle" font-family="Inter, Helvetica, Arial, sans-serif" font-size="26" fill="#1f2937"><tspan x="197" dy="0">DataFusion</tspan><tspan x="197" dy="32">physical plan</tspan></text>
<rect x="36" y="191" width="322" height="94" rx="8" fill="#f6f8fb" stroke="#496a9a" stroke-width="1.5"/>
<text x="197" y="222" text-anchor="middle" dominant-baseline="middle" font-family="Inter, Helvetica, Arial, sans-serif" font-size="26" fill="#1f2937"><tspan x="197" dy="0">Scan/filter/project</tspan><tspan x="197" dy="32">stage</tspan></text>
<rect x="57" y="362" width="280" height="62" rx="8" fill="#f6f8fb" stroke="#496a9a" stroke-width="1.5"/>
<text x="197" y="393" text-anchor="middle" dominant-baseline="middle" font-family="Inter, Helvetica, Arial, sans-serif" font-size="26" fill="#1f2937"><tspan x="197" dy="0">ShuffleWriteExec</tspan></text>
<rect x="92" y="501" width="210" height="94" rx="8" fill="#f6f8fb" stroke="#496a9a" stroke-width="1.5"/>
<text x="197" y="532" text-anchor="middle" dominant-baseline="middle" font-family="Inter, Helvetica, Arial, sans-serif" font-size="26" fill="#1f2937"><tspan x="197" dy="0">Task stream</tspan><tspan x="197" dy="32">locations</tspan></text>
<rect x="64" y="672" width="266" height="62" rx="8" fill="#f6f8fb" stroke="#496a9a" stroke-width="1.5"/>
<text x="197" y="703" text-anchor="middle" dominant-baseline="middle" font-family="Inter, Helvetica, Arial, sans-serif" font-size="26" fill="#1f2937"><tspan x="197" dy="0">ShuffleReadExec</tspan></text>
<rect x="71" y="811" width="252" height="94" rx="8" fill="#f6f8fb" stroke="#496a9a" stroke-width="1.5"/>
<text x="197" y="842" text-anchor="middle" dominant-baseline="middle" font-family="Inter, Helvetica, Arial, sans-serif" font-size="26" fill="#1f2937"><tspan x="197" dy="0">Join/aggregate</tspan><tspan x="197" dy="32">stage</tspan></text>
<rect x="43" y="982" width="308" height="62" rx="8" fill="#f6f8fb" stroke="#496a9a" stroke-width="1.5"/>
<text x="197" y="1013" text-anchor="middle" dominant-baseline="middle" font-family="Inter, Helvetica, Arial, sans-serif" font-size="26" fill="#1f2937"><tspan x="197" dy="0">Final result stage</tspan></text>
</svg>