<svg xmlns="http://www.w3.org/2000/svg" width="420" height="926" viewBox="0 0 420 926">
<defs>
  <marker id="arrow" markerWidth="10" markerHeight="10" refX="8" refY="3" orient="auto" markerUnits="strokeWidth">
    <path d="M0,0 L0,6 L8,3 z" fill="#5f6f85"/>
  </marker>
</defs>
<rect x="0" y="0" width="420" height="926" fill="white"/>
<rect x="57" y="150" width="226" height="244" rx="10" fill="#eef6ff" stroke="#9bc3e6" stroke-dasharray="5 4"/>
<text x="69" y="174" font-family="Inter, Helvetica, Arial, sans-serif" font-size="24" font-weight="700" fill="#315a86">Stage 0</text>
<rect x="57" y="540" width="226" height="374" rx="10" fill="#eef6ff" stroke="#9bc3e6" stroke-dasharray="5 4"/>
<text x="69" y="564" font-family="Inter, Helvetica, Arial, sans-serif" font-size="24" font-weight="700" fill="#315a86">Stage 1</text>
<line x1="170" y1="126" x2="170" y2="166" stroke="#5f6f85" stroke-width="1.5" marker-end="url(#arrow)"/>
<line x1="170" y1="256" x2="170" y2="312" stroke="#5f6f85" stroke-width="1.5" marker-end="url(#arrow)"/>
<line x1="170" y1="370" x2="170" y2="426" stroke="#5f6f85" stroke-width="1.5" marker-end="url(#arrow)"/>
<line x1="170" y1="516" x2="170" y2="572" stroke="#5f6f85" stroke-width="1.5" marker-end="url(#arrow)"/>
<line x1="170" y1="630" x2="170" y2="686" stroke="#5f6f85" stroke-width="1.5" marker-end="url(#arrow)"/>
<line x1="170" y1="776" x2="170" y2="832" stroke="#5f6f85" stroke-width="1.5" marker-end="url(#arrow)"/>
<rect x="72" y="36" width="196" height="90" rx="8" fill="#f6f8fb" stroke="#496a9a" stroke-width="1.5"/>
<text x="170" y="65" text-anchor="middle" dominant-baseline="middle" font-family="Inter, Helvetica, Arial, sans-serif" font-size="26" fill="#1f2937"><tspan x="170" dy="0">DataFusion</tspan><tspan x="170" dy="32">physical plan</tspan></text>
<rect x="36" y="166" width="268" height="90" rx="8" fill="#f6f8fb" stroke="#496a9a" stroke-width="1.5"/>
<text x="170" y="195" text-anchor="middle" dominant-baseline="middle" font-family="Inter, Helvetica, Arial, sans-serif" font-size="26" fill="#1f2937"><tspan x="170" dy="0">Scan/filter/project</tspan><tspan x="170" dy="32">stage</tspan></text>
<rect x="54" y="312" width="232" height="58" rx="8" fill="#f6f8fb" stroke="#496a9a" stroke-width="1.5"/>
<text x="170" y="341" text-anchor="middle" dominant-baseline="middle" font-family="Inter, Helvetica, Arial, sans-serif" font-size="26" fill="#1f2937"><tspan x="170" dy="0">ShuffleWriteExec</tspan></text>
<rect x="84" y="426" width="172" height="90" rx="8" fill="#f6f8fb" stroke="#496a9a" stroke-width="1.5"/>
<text x="170" y="455" text-anchor="middle" dominant-baseline="middle" font-family="Inter, Helvetica, Arial, sans-serif" font-size="26" fill="#1f2937"><tspan x="170" dy="0">Task stream</tspan><tspan x="170" dy="32">locations</tspan></text>
<rect x="60" y="572" width="220" height="58" rx="8" fill="#f6f8fb" stroke="#496a9a" stroke-width="1.5"/>
<text x="170" y="601" text-anchor="middle" dominant-baseline="middle" font-family="Inter, Helvetica, Arial, sans-serif" font-size="26" fill="#1f2937"><tspan x="170" dy="0">ShuffleReadExec</tspan></text>
<rect x="66" y="686" width="208" height="90" rx="8" fill="#f6f8fb" stroke="#496a9a" stroke-width="1.5"/>
<text x="170" y="715" text-anchor="middle" dominant-baseline="middle" font-family="Inter, Helvetica, Arial, sans-serif" font-size="26" fill="#1f2937"><tspan x="170" dy="0">Join/aggregate</tspan><tspan x="170" dy="32">stage</tspan></text>
<rect x="42" y="832" width="256" height="58" rx="8" fill="#f6f8fb" stroke="#496a9a" stroke-width="1.5"/>
<text x="170" y="861" text-anchor="middle" dominant-baseline="middle" font-family="Inter, Helvetica, Arial, sans-serif" font-size="26" fill="#1f2937"><tspan x="170" dy="0">Final result stage</tspan></text>
</svg>