<svg xmlns="http://www.w3.org/2000/svg" width="900" height="238" viewBox="0 0 1230 325">
<defs>
  <marker id="arrow" markerWidth="10" markerHeight="10" refX="8" refY="3" orient="auto" markerUnits="strokeWidth">
    <path d="M0,0 L0,6 L8,3 z" fill="#5f6f85"/>
  </marker>
</defs>
<rect x="0" y="0" width="1230" height="325" fill="white"/>

<line x1="70" y1="95.5" x2="70" y2="149.5" stroke="#5f6f85" stroke-width="1.5" marker-end="url(#arrow)"/>
<line x1="70" y1="95.5" x2="300" y2="149.5" stroke="#5f6f85" stroke-width="1.5" marker-end="url(#arrow)"/>
<line x1="70" y1="95.5" x2="530" y2="149.5" stroke="#5f6f85" stroke-width="1.5" marker-end="url(#arrow)"/>
<line x1="70" y1="95.5" x2="760" y2="149.5" stroke="#5f6f85" stroke-width="1.5" marker-end="url(#arrow)"/>
<line x1="70" y1="95.5" x2="990" y2="149.5" stroke="#5f6f85" stroke-width="1.5" marker-end="url(#arrow)"/>
<rect x="-29.5" y="44.5" width="199" height="51" rx="8" fill="#f6f8fb" stroke="#496a9a" stroke-width="1.5"/>
<text x="70" y="70" text-anchor="middle" dominant-baseline="middle" font-family="Inter, Helvetica, Arial, sans-serif" font-size="13" fill="#1f2937"><tspan x="70" dy="0">Arc&lt;dyn ExecutionPlan&gt;</tspan></text>
<rect x="-5" y="149.5" width="150" height="51" rx="8" fill="#f6f8fb" stroke="#496a9a" stroke-width="1.5"/>
<text x="70" y="175" text-anchor="middle" dominant-baseline="middle" font-family="Inter, Helvetica, Arial, sans-serif" font-size="13" fill="#1f2937"><tspan x="70" dy="0">HashJoinExec</tspan></text>
<rect x="223" y="149.5" width="154" height="51" rx="8" fill="#f6f8fb" stroke="#496a9a" stroke-width="1.5"/>
<text x="300" y="175" text-anchor="middle" dominant-baseline="middle" font-family="Inter, Helvetica, Arial, sans-serif" font-size="13" fill="#1f2937"><tspan x="300" dy="0">ShuffleWriteExec</tspan></text>
<rect x="455" y="149.5" width="150" height="51" rx="8" fill="#f6f8fb" stroke="#496a9a" stroke-width="1.5"/>
<text x="530" y="175" text-anchor="middle" dominant-baseline="middle" font-family="Inter, Helvetica, Arial, sans-serif" font-size="13" fill="#1f2937"><tspan x="530" dy="0">ShuffleReadExec</tspan></text>
<rect x="685" y="149.5" width="150" height="51" rx="8" fill="#f6f8fb" stroke="#496a9a" stroke-width="1.5"/>
<text x="760" y="175" text-anchor="middle" dominant-baseline="middle" font-family="Inter, Helvetica, Arial, sans-serif" font-size="13" fill="#1f2937"><tspan x="760" dy="0">RangeExec</tspan></text>
<rect x="915" y="149.5" width="150" height="51" rx="8" fill="#f6f8fb" stroke="#496a9a" stroke-width="1.5"/>
<text x="990" y="175" text-anchor="middle" dominant-baseline="middle" font-family="Inter, Helvetica, Arial, sans-serif" font-size="13" fill="#1f2937"><tspan x="990" dy="0">FileWriteExec</tspan></text>
</svg>