<svg xmlns="http://www.w3.org/2000/svg" width="900" height="172" viewBox="0 0 1597 305">
<defs>
  <marker id="arrow" markerWidth="10" markerHeight="10" refX="8" refY="3" orient="auto" markerUnits="strokeWidth">
    <path d="M0,0 L0,6 L8,3 z" fill="#5f6f85"/>
  </marker>
</defs>
<rect x="0" y="0" width="1597" height="305" fill="white"/>

<line x1="162" y1="130" x2="162" y2="207" stroke="#5f6f85" stroke-width="1.5" marker-end="url(#arrow)"/>
<line x1="162" y1="130" x2="482" y2="207" stroke="#5f6f85" stroke-width="1.5" marker-end="url(#arrow)"/>
<line x1="162" y1="130" x2="802" y2="207" stroke="#5f6f85" stroke-width="1.5" marker-end="url(#arrow)"/>
<line x1="162" y1="130" x2="1122" y2="207" stroke="#5f6f85" stroke-width="1.5" marker-end="url(#arrow)"/>
<line x1="162" y1="130" x2="1442" y2="207" stroke="#5f6f85" stroke-width="1.5" marker-end="url(#arrow)"/>
<rect x="36" y="36" width="252" height="94" rx="8" fill="#f6f8fb" stroke="#496a9a" stroke-width="1.5"/>
<text x="162" y="67" text-anchor="middle" dominant-baseline="middle" font-family="Inter, Helvetica, Arial, sans-serif" font-size="26" fill="#1f2937"><tspan x="162" dy="0">Arc&lt;dyn</tspan><tspan x="162" dy="32">ExecutionPlan&gt;</tspan></text>
<rect x="50" y="207" width="224" height="62" rx="8" fill="#f6f8fb" stroke="#496a9a" stroke-width="1.5"/>
<text x="162" y="238" text-anchor="middle" dominant-baseline="middle" font-family="Inter, Helvetica, Arial, sans-serif" font-size="26" fill="#1f2937"><tspan x="162" dy="0">HashJoinExec</tspan></text>
<rect x="342" y="207" width="280" height="62" rx="8" fill="#f6f8fb" stroke="#496a9a" stroke-width="1.5"/>
<text x="482" y="238" text-anchor="middle" dominant-baseline="middle" font-family="Inter, Helvetica, Arial, sans-serif" font-size="26" fill="#1f2937"><tspan x="482" dy="0">ShuffleWriteExec</tspan></text>
<rect x="669" y="207" width="266" height="62" rx="8" fill="#f6f8fb" stroke="#496a9a" stroke-width="1.5"/>
<text x="802" y="238" text-anchor="middle" dominant-baseline="middle" font-family="Inter, Helvetica, Arial, sans-serif" font-size="26" fill="#1f2937"><tspan x="802" dy="0">ShuffleReadExec</tspan></text>
<rect x="1027" y="207" width="190" height="62" rx="8" fill="#f6f8fb" stroke="#496a9a" stroke-width="1.5"/>
<text x="1122" y="238" text-anchor="middle" dominant-baseline="middle" font-family="Inter, Helvetica, Arial, sans-serif" font-size="26" fill="#1f2937"><tspan x="1122" dy="0">RangeExec</tspan></text>
<rect x="1323" y="207" width="238" height="62" rx="8" fill="#f6f8fb" stroke="#496a9a" stroke-width="1.5"/>
<text x="1442" y="238" text-anchor="middle" dominant-baseline="middle" font-family="Inter, Helvetica, Arial, sans-serif" font-size="26" fill="#1f2937"><tspan x="1442" dy="0">FileWriteExec</tspan></text>
</svg>