<svg xmlns="http://www.w3.org/2000/svg" width="540" height="640" viewBox="0 0 540 640">
<defs>
  <marker id="arrow" markerWidth="10" markerHeight="10" refX="8" refY="3" orient="auto" markerUnits="strokeWidth">
    <path d="M0,0 L0,6 L8,3 z" fill="#5f6f85"/>
  </marker>
</defs>
<rect x="0" y="0" width="540" height="640" fill="white"/>

<line x1="70" y1="95.5" x2="70" y2="149.5" stroke="#5f6f85" stroke-width="1.5" marker-end="url(#arrow)"/>
<line x1="70" y1="95.5" x2="300" y2="149.5" stroke="#5f6f85" stroke-width="1.5" marker-end="url(#arrow)"/>
<line x1="70" y1="200.5" x2="70" y2="254.5" stroke="#5f6f85" stroke-width="1.5" marker-end="url(#arrow)"/>
<line x1="70" y1="200.5" x2="300" y2="254.5" stroke="#5f6f85" stroke-width="1.5" marker-end="url(#arrow)"/>
<line x1="70" y1="305.5" x2="70" y2="359.5" stroke="#5f6f85" stroke-width="1.5" marker-end="url(#arrow)"/>
<line x1="300" y1="305.5" x2="300" y2="359.5" stroke="#5f6f85" stroke-width="1.5" marker-end="url(#arrow)"/>
<line x1="70" y1="410.5" x2="70" y2="464.5" stroke="#5f6f85" stroke-width="1.5" marker-end="url(#arrow)"/>
<line x1="300" y1="410.5" x2="300" y2="464.5" stroke="#5f6f85" stroke-width="1.5" marker-end="url(#arrow)"/>
<rect x="-5" y="44.5" width="150" height="51" rx="8" fill="#f6f8fb" stroke="#496a9a" stroke-width="1.5"/>
<text x="70" y="70" text-anchor="middle" dominant-baseline="middle" font-family="Inter, Helvetica, Arial, sans-serif" font-size="13" fill="#1f2937"><tspan x="70" dy="0">pysail wheel</tspan></text>
<rect x="-5" y="149.5" width="150" height="51" rx="8" fill="#f6f8fb" stroke="#496a9a" stroke-width="1.5"/>
<text x="70" y="175" text-anchor="middle" dominant-baseline="middle" font-family="Inter, Helvetica, Arial, sans-serif" font-size="13" fill="#1f2937"><tspan x="70" dy="0">python/pysail</tspan></text>
<rect x="200.5" y="149.5" width="199" height="51" rx="8" fill="#f6f8fb" stroke="#496a9a" stroke-width="1.5"/>
<text x="300" y="175" text-anchor="middle" dominant-baseline="middle" font-family="Inter, Helvetica, Arial, sans-serif" font-size="13" fill="#1f2937"><tspan x="300" dy="0">_native Rust extension</tspan></text>
<rect x="-5" y="254.5" width="150" height="51" rx="8" fill="#f6f8fb" stroke="#496a9a" stroke-width="1.5"/>
<text x="70" y="280" text-anchor="middle" dominant-baseline="middle" font-family="Inter, Helvetica, Arial, sans-serif" font-size="13" fill="#1f2937"><tspan x="70" dy="0">pysail.cli</tspan></text>
<rect x="166.75" y="254.5" width="266.5" height="51" rx="8" fill="#f6f8fb" stroke="#496a9a" stroke-width="1.5"/>
<text x="300" y="280" text-anchor="middle" dominant-baseline="middle" font-family="Inter, Helvetica, Arial, sans-serif" font-size="13" fill="#1f2937"><tspan x="300" dy="0">pysail.spark.SparkConnectServer</tspan></text>
<rect x="-5" y="359.5" width="150" height="51" rx="8" fill="#f6f8fb" stroke="#496a9a" stroke-width="1.5"/>
<text x="70" y="385" text-anchor="middle" dominant-baseline="middle" font-family="Inter, Helvetica, Arial, sans-serif" font-size="13" fill="#1f2937"><tspan x="70" dy="0">_native.main</tspan></text>
<rect x="163" y="359.5" width="274" height="51" rx="8" fill="#f6f8fb" stroke="#496a9a" stroke-width="1.5"/>
<text x="300" y="385" text-anchor="middle" dominant-baseline="middle" font-family="Inter, Helvetica, Arial, sans-serif" font-size="13" fill="#1f2937"><tspan x="300" dy="0">_native.spark.SparkConnectServer</tspan></text>
<rect x="-5" y="464.5" width="150" height="51" rx="8" fill="#f6f8fb" stroke="#496a9a" stroke-width="1.5"/>
<text x="70" y="490" text-anchor="middle" dominant-baseline="middle" font-family="Inter, Helvetica, Arial, sans-serif" font-size="13" fill="#1f2937"><tspan x="70" dy="0">sail-cli runner</tspan></text>
<rect x="208" y="464.5" width="184" height="51" rx="8" fill="#f6f8fb" stroke="#496a9a" stroke-width="1.5"/>
<text x="300" y="490" text-anchor="middle" dominant-baseline="middle" font-family="Inter, Helvetica, Arial, sans-serif" font-size="13" fill="#1f2937"><tspan x="300" dy="0">Spark Connect server</tspan></text>
</svg>