<svg xmlns="http://www.w3.org/2000/svg" width="900" height="245" viewBox="0 0 1324 361">
<defs>
  <marker id="arrow" markerWidth="10" markerHeight="10" refX="8" refY="3" orient="auto" markerUnits="strokeWidth">
    <path d="M0,0 L0,6 L8,3 z" fill="#5f6f85"/>
  </marker>
</defs>
<rect x="0" y="0" width="1324" height="361" fill="white"/>

<line x1="280" y1="65" x2="321" y2="65" stroke="#5f6f85" stroke-width="1.5" marker-end="url(#arrow)"/>
<line x1="505" y1="65" x2="540" y2="65" stroke="#5f6f85" stroke-width="1.5" marker-end="url(#arrow)"/>
<line x1="796" y1="65" x2="819" y2="65" stroke="#5f6f85" stroke-width="1.5" marker-end="url(#arrow)"/>
<line x1="1027" y1="65" x2="1068" y2="65" stroke="#5f6f85" stroke-width="1.5" marker-end="url(#arrow)"/>
<line x1="1288" y1="65" x2="60" y2="280" stroke="#5f6f85" stroke-width="1.5" marker-end="url(#arrow)"/>
<rect x="36" y="36" width="244" height="58" rx="8" fill="#f6f8fb" stroke="#496a9a" stroke-width="1.5"/>
<text x="158" y="65" text-anchor="middle" dominant-baseline="middle" font-family="Inter, Helvetica, Arial, sans-serif" font-size="26" fill="#1f2937"><tspan x="158" dy="0">DataFusion arrays</tspan></text>
<rect x="321" y="36" width="184" height="58" rx="8" fill="#f6f8fb" stroke="#496a9a" stroke-width="1.5"/>
<text x="413" y="65" text-anchor="middle" dominant-baseline="middle" font-family="Inter, Helvetica, Arial, sans-serif" font-size="26" fill="#1f2937"><tspan x="413" dy="0">PyArrow view</tspan></text>
<rect x="540" y="36" width="256" height="58" rx="8" fill="#f6f8fb" stroke="#496a9a" stroke-width="1.5"/>
<text x="668" y="65" text-anchor="middle" dominant-baseline="middle" font-family="Inter, Helvetica, Arial, sans-serif" font-size="26" fill="#1f2937"><tspan x="668" dy="0">Python UDF wrapper</tspan></text>
<rect x="819" y="36" width="208" height="58" rx="8" fill="#f6f8fb" stroke="#496a9a" stroke-width="1.5"/>
<text x="923" y="65" text-anchor="middle" dominant-baseline="middle" font-family="Inter, Helvetica, Arial, sans-serif" font-size="26" fill="#1f2937"><tspan x="923" dy="0">PyArrow output</tspan></text>
<rect x="1068" y="36" width="220" height="58" rx="8" fill="#f6f8fb" stroke="#496a9a" stroke-width="1.5"/>
<text x="1178" y="65" text-anchor="middle" dominant-baseline="middle" font-family="Inter, Helvetica, Arial, sans-serif" font-size="26" fill="#1f2937"><tspan x="1178" dy="0">Arrow ArrayData</tspan></text>
<rect x="60" y="235" width="196" height="90" rx="8" fill="#f6f8fb" stroke="#496a9a" stroke-width="1.5"/>
<text x="158" y="264" text-anchor="middle" dominant-baseline="middle" font-family="Inter, Helvetica, Arial, sans-serif" font-size="26" fill="#1f2937"><tspan x="158" dy="0">DataFusion</tspan><tspan x="158" dy="32">ColumnarValue</tspan></text>
</svg>