<svg xmlns="http://www.w3.org/2000/svg" width="900" height="236" viewBox="0 0 1604 421">
<defs>
  <marker id="arrow" markerWidth="10" markerHeight="10" refX="8" refY="3" orient="auto" markerUnits="strokeWidth">
    <path d="M0,0 L0,6 L8,3 z" fill="#5f6f85"/>
  </marker>
</defs>
<rect x="0" y="0" width="1604" height="421" fill="white"/>

<line x1="344" y1="83" x2="363" y2="83" stroke="#5f6f85" stroke-width="1.5" marker-end="url(#arrow)"/>
<line x1="657" y1="83" x2="634" y2="83" stroke="#5f6f85" stroke-width="1.5" marker-end="url(#arrow)"/>
<line x1="1026" y1="83" x2="1017" y2="83" stroke="#5f6f85" stroke-width="1.5" marker-end="url(#arrow)"/>
<line x1="1283" y1="83" x2="1372" y2="83" stroke="#5f6f85" stroke-width="1.5" marker-end="url(#arrow)"/>
<line x1="1568" y1="83" x2="64" y2="338" stroke="#5f6f85" stroke-width="1.5" marker-end="url(#arrow)"/>
<rect x="36" y="36" width="308" height="94" rx="8" fill="#f6f8fb" stroke="#496a9a" stroke-width="1.5"/>
<text x="190" y="67" text-anchor="middle" dominant-baseline="middle" font-family="Inter, Helvetica, Arial, sans-serif" font-size="26" fill="#1f2937"><tspan x="190" dy="0">PySpark serialized</tspan><tspan x="190" dy="32">command</tspan></text>
<rect x="363" y="52" width="294" height="62" rx="8" fill="#f6f8fb" stroke="#496a9a" stroke-width="1.5"/>
<text x="510" y="83" text-anchor="middle" dominant-baseline="middle" font-family="Inter, Helvetica, Arial, sans-serif" font-size="26" fill="#1f2937"><tspan x="510" dy="0">PySparkUdfPayload</tspan></text>
<rect x="634" y="52" width="392" height="62" rx="8" fill="#f6f8fb" stroke="#496a9a" stroke-width="1.5"/>
<text x="830" y="83" text-anchor="middle" dominant-baseline="middle" font-family="Inter, Helvetica, Arial, sans-serif" font-size="26" fill="#1f2937"><tspan x="830" dy="0">pyspark.worker.read_udfs</tspan></text>
<rect x="1017" y="36" width="266" height="94" rx="8" fill="#f6f8fb" stroke="#496a9a" stroke-width="1.5"/>
<text x="1150" y="67" text-anchor="middle" dominant-baseline="middle" font-family="Inter, Helvetica, Arial, sans-serif" font-size="26" fill="#1f2937"><tspan x="1150" dy="0">Python callable</tspan><tspan x="1150" dy="32">wrapper</tspan></text>
<rect x="1372" y="52" width="196" height="62" rx="8" fill="#f6f8fb" stroke="#496a9a" stroke-width="1.5"/>
<text x="1470" y="83" text-anchor="middle" dominant-baseline="middle" font-family="Inter, Helvetica, Arial, sans-serif" font-size="26" fill="#1f2937"><tspan x="1470" dy="0">PySparkUDF</tspan></text>
<rect x="64" y="291" width="252" height="94" rx="8" fill="#f6f8fb" stroke="#496a9a" stroke-width="1.5"/>
<text x="190" y="322" text-anchor="middle" dominant-baseline="middle" font-family="Inter, Helvetica, Arial, sans-serif" font-size="26" fill="#1f2937"><tspan x="190" dy="0">DataFusion UDF</tspan><tspan x="190" dy="32">execution</tspan></text>
</svg>