<svg xmlns="http://www.w3.org/2000/svg" width="464" height="754" viewBox="0 0 464 754">
<defs>
  <marker id="arrow" markerWidth="10" markerHeight="10" refX="8" refY="3" orient="auto" markerUnits="strokeWidth">
    <path d="M0,0 L0,6 L8,3 z" fill="#5f6f85"/>
  </marker>
</defs>
<rect x="0" y="0" width="464" height="754" fill="white"/>

<line x1="232" y1="98" x2="232" y2="191" stroke="#5f6f85" stroke-width="1.5" marker-end="url(#arrow)"/>
<line x1="232" y1="253" x2="232" y2="346" stroke="#5f6f85" stroke-width="1.5" marker-end="url(#arrow)"/>
<line x1="232" y1="408" x2="232" y2="501" stroke="#5f6f85" stroke-width="1.5" marker-end="url(#arrow)"/>
<line x1="232" y1="563" x2="232" y2="656" stroke="#5f6f85" stroke-width="1.5" marker-end="url(#arrow)"/>
<rect x="99" y="36" width="266" height="62" rx="8" fill="#f6f8fb" stroke="#496a9a" stroke-width="1.5"/>
<text x="232" y="67" text-anchor="middle" dominant-baseline="middle" font-family="Inter, Helvetica, Arial, sans-serif" font-size="26" fill="#1f2937"><tspan x="232" dy="0">Range partition</tspan></text>
<rect x="106" y="191" width="252" height="62" rx="8" fill="#f6f8fb" stroke="#496a9a" stroke-width="1.5"/>
<text x="232" y="222" text-anchor="middle" dominant-baseline="middle" font-family="Inter, Helvetica, Arial, sans-serif" font-size="26" fill="#1f2937"><tspan x="232" dy="0">Vec&lt;i64&gt; chunk</tspan></text>
<rect x="134" y="346" width="196" height="62" rx="8" fill="#f6f8fb" stroke="#496a9a" stroke-width="1.5"/>
<text x="232" y="377" text-anchor="middle" dominant-baseline="middle" font-family="Inter, Helvetica, Arial, sans-serif" font-size="26" fill="#1f2937"><tspan x="232" dy="0">Int64Array</tspan></text>
<rect x="127" y="501" width="210" height="62" rx="8" fill="#f6f8fb" stroke="#496a9a" stroke-width="1.5"/>
<text x="232" y="532" text-anchor="middle" dominant-baseline="middle" font-family="Inter, Helvetica, Arial, sans-serif" font-size="26" fill="#1f2937"><tspan x="232" dy="0">RecordBatch</tspan></text>
<rect x="36" y="656" width="392" height="62" rx="8" fill="#f6f8fb" stroke="#496a9a" stroke-width="1.5"/>
<text x="232" y="687" text-anchor="middle" dominant-baseline="middle" font-family="Inter, Helvetica, Arial, sans-serif" font-size="26" fill="#1f2937"><tspan x="232" dy="0">RecordBatchStreamAdapter</tspan></text>
</svg>