<svg xmlns="http://www.w3.org/2000/svg" width="900" height="240" viewBox="0 0 1263 337">
<defs>
  <marker id="arrow" markerWidth="10" markerHeight="10" refX="8" refY="3" orient="auto" markerUnits="strokeWidth">
    <path d="M0,0 L0,6 L8,3 z" fill="#5f6f85"/>
  </marker>
</defs>
<rect x="0" y="0" width="1263" height="337" fill="white"/>

<line x1="260" y1="99" x2="328" y2="99" stroke="#5f6f85" stroke-width="1.5" marker-end="url(#arrow)"/>
<line x1="608" y1="99" x2="648" y2="99" stroke="#5f6f85" stroke-width="1.5" marker-end="url(#arrow)"/>
<line x1="928" y1="99" x2="1010" y2="99" stroke="#5f6f85" stroke-width="1.5" marker-end="url(#arrow)"/>
<line x1="928" y1="99" x2="989" y2="254" stroke="#5f6f85" stroke-width="1.5" marker-end="url(#arrow)"/>
<rect x="36" y="52" width="224" height="94" rx="8" fill="#f6f8fb" stroke="#496a9a" stroke-width="1.5"/>
<text x="148" y="83" text-anchor="middle" dominant-baseline="middle" font-family="Inter, Helvetica, Arial, sans-serif" font-size="26" fill="#1f2937"><tspan x="148" dy="0">Binary Arrow</tspan><tspan x="148" dy="32">buffers</tspan></text>
<rect x="328" y="36" width="280" height="126" rx="8" fill="#f6f8fb" stroke="#496a9a" stroke-width="1.5"/>
<text x="468" y="67" text-anchor="middle" dominant-baseline="middle" font-family="Inter, Helvetica, Arial, sans-serif" font-size="26" fill="#1f2937"><tspan x="468" dy="0">Field metadata:</tspan><tspan x="468" dy="32">extension name +</tspan><tspan x="468" dy="32">JSON</tspan></text>
<rect x="648" y="36" width="280" height="126" rx="8" fill="#f6f8fb" stroke="#496a9a" stroke-width="1.5"/>
<text x="788" y="67" text-anchor="middle" dominant-baseline="middle" font-family="Inter, Helvetica, Arial, sans-serif" font-size="26" fill="#1f2937"><tspan x="788" dy="0">Spark Geometry /</tspan><tspan x="788" dy="32">Geography /</tspan><tspan x="788" dy="32">Variant</tspan></text>
<rect x="1010" y="36" width="196" height="126" rx="8" fill="#f6f8fb" stroke="#496a9a" stroke-width="1.5"/>
<text x="1108" y="67" text-anchor="middle" dominant-baseline="middle" font-family="Inter, Helvetica, Arial, sans-serif" font-size="26" fill="#1f2937"><tspan x="1108" dy="0">DataFusion</tspan><tspan x="1108" dy="32">extension</tspan><tspan x="1108" dy="32">functions</tspan></text>
<rect x="989" y="207" width="238" height="94" rx="8" fill="#f6f8fb" stroke="#496a9a" stroke-width="1.5"/>
<text x="1108" y="238" text-anchor="middle" dominant-baseline="middle" font-family="Inter, Helvetica, Arial, sans-serif" font-size="26" fill="#1f2937"><tspan x="1108" dy="0">Spark Connect</tspan><tspan x="1108" dy="32">client</tspan></text>
</svg>