<svg xmlns="http://www.w3.org/2000/svg" width="900" height="371" viewBox="0 0 1300 536">
<defs>
  <marker id="arrow" markerWidth="10" markerHeight="10" refX="8" refY="3" orient="auto" markerUnits="strokeWidth">
    <path d="M0,0 L0,6 L8,3 z" fill="#5f6f85"/>
  </marker>
</defs>
<rect x="0" y="0" width="1300" height="536" fill="white"/>

<line x1="280" y1="81" x2="297" y2="81" stroke="#5f6f85" stroke-width="1.5" marker-end="url(#arrow)"/>
<line x1="280" y1="211" x2="297" y2="211" stroke="#5f6f85" stroke-width="1.5" marker-end="url(#arrow)"/>
<line x1="529" y1="81" x2="558" y2="81" stroke="#5f6f85" stroke-width="1.5" marker-end="url(#arrow)"/>
<line x1="529" y1="81" x2="558" y2="211" stroke="#5f6f85" stroke-width="1.5" marker-end="url(#arrow)"/>
<line x1="529" y1="211" x2="558" y2="341" stroke="#5f6f85" stroke-width="1.5" marker-end="url(#arrow)"/>
<line x1="529" y1="211" x2="558" y2="471" stroke="#5f6f85" stroke-width="1.5" marker-end="url(#arrow)"/>
<line x1="778" y1="81" x2="813" y2="81" stroke="#5f6f85" stroke-width="1.5" marker-end="url(#arrow)"/>
<line x1="778" y1="341" x2="813" y2="81" stroke="#5f6f85" stroke-width="1.5" marker-end="url(#arrow)"/>
<line x1="778" y1="211" x2="813" y2="211" stroke="#5f6f85" stroke-width="1.5" marker-end="url(#arrow)"/>
<line x1="778" y1="471" x2="813" y2="211" stroke="#5f6f85" stroke-width="1.5" marker-end="url(#arrow)"/>
<line x1="1033" y1="81" x2="1092" y2="81" stroke="#5f6f85" stroke-width="1.5" marker-end="url(#arrow)"/>
<line x1="1033" y1="211" x2="1092" y2="211" stroke="#5f6f85" stroke-width="1.5" marker-end="url(#arrow)"/>
<rect x="36" y="36" width="244" height="90" rx="8" fill="#f6f8fb" stroke="#496a9a" stroke-width="1.5"/>
<text x="158" y="65" text-anchor="middle" dominant-baseline="middle" font-family="Inter, Helvetica, Arial, sans-serif" font-size="26" fill="#1f2937"><tspan x="158" dy="0">Input partition 0</tspan><tspan x="158" dy="32">stream</tspan></text>
<rect x="36" y="166" width="244" height="90" rx="8" fill="#f6f8fb" stroke="#496a9a" stroke-width="1.5"/>
<text x="158" y="195" text-anchor="middle" dominant-baseline="middle" font-family="Inter, Helvetica, Arial, sans-serif" font-size="26" fill="#1f2937"><tspan x="158" dy="0">Input partition 1</tspan><tspan x="158" dy="32">stream</tspan></text>
<rect x="297" y="36" width="232" height="90" rx="8" fill="#f6f8fb" stroke="#496a9a" stroke-width="1.5"/>
<text x="413" y="65" text-anchor="middle" dominant-baseline="middle" font-family="Inter, Helvetica, Arial, sans-serif" font-size="26" fill="#1f2937"><tspan x="413" dy="0">ShuffleWriteExec</tspan><tspan x="413" dy="32">p0</tspan></text>
<rect x="297" y="166" width="232" height="90" rx="8" fill="#f6f8fb" stroke="#496a9a" stroke-width="1.5"/>
<text x="413" y="195" text-anchor="middle" dominant-baseline="middle" font-family="Inter, Helvetica, Arial, sans-serif" font-size="26" fill="#1f2937"><tspan x="413" dy="0">ShuffleWriteExec</tspan><tspan x="413" dy="32">p1</tspan></text>
<rect x="558" y="52" width="220" height="58" rx="8" fill="#f6f8fb" stroke="#496a9a" stroke-width="1.5"/>
<text x="668" y="81" text-anchor="middle" dominant-baseline="middle" font-family="Inter, Helvetica, Arial, sans-serif" font-size="26" fill="#1f2937"><tspan x="668" dy="0">Output bucket 0</tspan></text>
<rect x="558" y="182" width="220" height="58" rx="8" fill="#f6f8fb" stroke="#496a9a" stroke-width="1.5"/>
<text x="668" y="211" text-anchor="middle" dominant-baseline="middle" font-family="Inter, Helvetica, Arial, sans-serif" font-size="26" fill="#1f2937"><tspan x="668" dy="0">Output bucket 1</tspan></text>
<rect x="558" y="312" width="220" height="58" rx="8" fill="#f6f8fb" stroke="#496a9a" stroke-width="1.5"/>
<text x="668" y="341" text-anchor="middle" dominant-baseline="middle" font-family="Inter, Helvetica, Arial, sans-serif" font-size="26" fill="#1f2937"><tspan x="668" dy="0">Output bucket 0</tspan></text>
<rect x="558" y="442" width="220" height="58" rx="8" fill="#f6f8fb" stroke="#496a9a" stroke-width="1.5"/>
<text x="668" y="471" text-anchor="middle" dominant-baseline="middle" font-family="Inter, Helvetica, Arial, sans-serif" font-size="26" fill="#1f2937"><tspan x="668" dy="0">Output bucket 1</tspan></text>
<rect x="813" y="36" width="220" height="90" rx="8" fill="#f6f8fb" stroke="#496a9a" stroke-width="1.5"/>
<text x="923" y="65" text-anchor="middle" dominant-baseline="middle" font-family="Inter, Helvetica, Arial, sans-serif" font-size="26" fill="#1f2937"><tspan x="923" dy="0">ShuffleReadExec</tspan><tspan x="923" dy="32">output 0</tspan></text>
<rect x="813" y="166" width="220" height="90" rx="8" fill="#f6f8fb" stroke="#496a9a" stroke-width="1.5"/>
<text x="923" y="195" text-anchor="middle" dominant-baseline="middle" font-family="Inter, Helvetica, Arial, sans-serif" font-size="26" fill="#1f2937"><tspan x="923" dy="0">ShuffleReadExec</tspan><tspan x="923" dy="32">output 1</tspan></text>
<rect x="1092" y="36" width="172" height="90" rx="8" fill="#f6f8fb" stroke="#496a9a" stroke-width="1.5"/>
<text x="1178" y="65" text-anchor="middle" dominant-baseline="middle" font-family="Inter, Helvetica, Arial, sans-serif" font-size="26" fill="#1f2937"><tspan x="1178" dy="0">Downstream</tspan><tspan x="1178" dy="32">partition 0</tspan></text>
<rect x="1092" y="166" width="172" height="90" rx="8" fill="#f6f8fb" stroke="#496a9a" stroke-width="1.5"/>
<text x="1178" y="195" text-anchor="middle" dominant-baseline="middle" font-family="Inter, Helvetica, Arial, sans-serif" font-size="26" fill="#1f2937"><tspan x="1178" dy="0">Downstream</tspan><tspan x="1178" dy="32">partition 1</tspan></text>
</svg>