<svg xmlns="http://www.w3.org/2000/svg" width="900" height="391" viewBox="0 0 1230 535">
<defs>
  <marker id="arrow" markerWidth="10" markerHeight="10" refX="8" refY="3" orient="auto" markerUnits="strokeWidth">
    <path d="M0,0 L0,6 L8,3 z" fill="#5f6f85"/>
  </marker>
</defs>
<rect x="0" y="0" width="1230" height="535" fill="white"/>

<line x1="177" y1="70" x2="211.75" y2="70" stroke="#5f6f85" stroke-width="1.5" marker-end="url(#arrow)"/>
<line x1="177" y1="175" x2="211.75" y2="175" stroke="#5f6f85" stroke-width="1.5" marker-end="url(#arrow)"/>
<line x1="388.25" y1="70" x2="455" y2="70" stroke="#5f6f85" stroke-width="1.5" marker-end="url(#arrow)"/>
<line x1="388.25" y1="70" x2="455" y2="175" stroke="#5f6f85" stroke-width="1.5" marker-end="url(#arrow)"/>
<line x1="388.25" y1="175" x2="455" y2="280" stroke="#5f6f85" stroke-width="1.5" marker-end="url(#arrow)"/>
<line x1="388.25" y1="175" x2="455" y2="385" stroke="#5f6f85" stroke-width="1.5" marker-end="url(#arrow)"/>
<line x1="605" y1="70" x2="653" y2="70" stroke="#5f6f85" stroke-width="1.5" marker-end="url(#arrow)"/>
<line x1="605" y1="280" x2="653" y2="70" stroke="#5f6f85" stroke-width="1.5" marker-end="url(#arrow)"/>
<line x1="605" y1="175" x2="653" y2="175" stroke="#5f6f85" stroke-width="1.5" marker-end="url(#arrow)"/>
<line x1="605" y1="385" x2="653" y2="175" stroke="#5f6f85" stroke-width="1.5" marker-end="url(#arrow)"/>
<line x1="867" y1="70" x2="890.5" y2="70" stroke="#5f6f85" stroke-width="1.5" marker-end="url(#arrow)"/>
<line x1="867" y1="175" x2="890.5" y2="175" stroke="#5f6f85" stroke-width="1.5" marker-end="url(#arrow)"/>
<rect x="-37" y="44.5" width="214" height="51" rx="8" fill="#f6f8fb" stroke="#496a9a" stroke-width="1.5"/>
<text x="70" y="70" text-anchor="middle" dominant-baseline="middle" font-family="Inter, Helvetica, Arial, sans-serif" font-size="13" fill="#1f2937"><tspan x="70" dy="0">Input partition 0 stream</tspan></text>
<rect x="-37" y="149.5" width="214" height="51" rx="8" fill="#f6f8fb" stroke="#496a9a" stroke-width="1.5"/>
<text x="70" y="175" text-anchor="middle" dominant-baseline="middle" font-family="Inter, Helvetica, Arial, sans-serif" font-size="13" fill="#1f2937"><tspan x="70" dy="0">Input partition 1 stream</tspan></text>
<rect x="211.75" y="44.5" width="176.5" height="51" rx="8" fill="#f6f8fb" stroke="#496a9a" stroke-width="1.5"/>
<text x="300" y="70" text-anchor="middle" dominant-baseline="middle" font-family="Inter, Helvetica, Arial, sans-serif" font-size="13" fill="#1f2937"><tspan x="300" dy="0">ShuffleWriteExec p0</tspan></text>
<rect x="211.75" y="149.5" width="176.5" height="51" rx="8" fill="#f6f8fb" stroke="#496a9a" stroke-width="1.5"/>
<text x="300" y="175" text-anchor="middle" dominant-baseline="middle" font-family="Inter, Helvetica, Arial, sans-serif" font-size="13" fill="#1f2937"><tspan x="300" dy="0">ShuffleWriteExec p1</tspan></text>
<rect x="455" y="44.5" width="150" height="51" rx="8" fill="#f6f8fb" stroke="#496a9a" stroke-width="1.5"/>
<text x="530" y="70" text-anchor="middle" dominant-baseline="middle" font-family="Inter, Helvetica, Arial, sans-serif" font-size="13" fill="#1f2937"><tspan x="530" dy="0">Output bucket 0</tspan></text>
<rect x="455" y="149.5" width="150" height="51" rx="8" fill="#f6f8fb" stroke="#496a9a" stroke-width="1.5"/>
<text x="530" y="175" text-anchor="middle" dominant-baseline="middle" font-family="Inter, Helvetica, Arial, sans-serif" font-size="13" fill="#1f2937"><tspan x="530" dy="0">Output bucket 1</tspan></text>
<rect x="455" y="254.5" width="150" height="51" rx="8" fill="#f6f8fb" stroke="#496a9a" stroke-width="1.5"/>
<text x="530" y="280" text-anchor="middle" dominant-baseline="middle" font-family="Inter, Helvetica, Arial, sans-serif" font-size="13" fill="#1f2937"><tspan x="530" dy="0">Output bucket 0</tspan></text>
<rect x="455" y="359.5" width="150" height="51" rx="8" fill="#f6f8fb" stroke="#496a9a" stroke-width="1.5"/>
<text x="530" y="385" text-anchor="middle" dominant-baseline="middle" font-family="Inter, Helvetica, Arial, sans-serif" font-size="13" fill="#1f2937"><tspan x="530" dy="0">Output bucket 1</tspan></text>
<rect x="653" y="44.5" width="214" height="51" rx="8" fill="#f6f8fb" stroke="#496a9a" stroke-width="1.5"/>
<text x="760" y="70" text-anchor="middle" dominant-baseline="middle" font-family="Inter, Helvetica, Arial, sans-serif" font-size="13" fill="#1f2937"><tspan x="760" dy="0">ShuffleReadExec output 0</tspan></text>
<rect x="653" y="149.5" width="214" height="51" rx="8" fill="#f6f8fb" stroke="#496a9a" stroke-width="1.5"/>
<text x="760" y="175" text-anchor="middle" dominant-baseline="middle" font-family="Inter, Helvetica, Arial, sans-serif" font-size="13" fill="#1f2937"><tspan x="760" dy="0">ShuffleReadExec output 1</tspan></text>
<rect x="890.5" y="44.5" width="199" height="51" rx="8" fill="#f6f8fb" stroke="#496a9a" stroke-width="1.5"/>
<text x="990" y="70" text-anchor="middle" dominant-baseline="middle" font-family="Inter, Helvetica, Arial, sans-serif" font-size="13" fill="#1f2937"><tspan x="990" dy="0">Downstream partition 0</tspan></text>
<rect x="890.5" y="149.5" width="199" height="51" rx="8" fill="#f6f8fb" stroke="#496a9a" stroke-width="1.5"/>
<text x="990" y="175" text-anchor="middle" dominant-baseline="middle" font-family="Inter, Helvetica, Arial, sans-serif" font-size="13" fill="#1f2937"><tspan x="990" dy="0">Downstream partition 1</tspan></text>
</svg>