<svg xmlns="http://www.w3.org/2000/svg" width="644" height="444" viewBox="0 0 644 444">
<defs>
  <marker id="arrow" markerWidth="10" markerHeight="10" refX="8" refY="3" orient="auto" markerUnits="strokeWidth">
    <path d="M0,0 L0,6 L8,3 z" fill="#5f6f85"/>
  </marker>
</defs>
<rect x="0" y="0" width="644" height="444" fill="white"/>

<line x1="323" y1="67" x2="398" y2="67" stroke="#5f6f85" stroke-width="1.5" marker-end="url(#arrow)"/>
<line x1="323" y1="67" x2="398" y2="222" stroke="#5f6f85" stroke-width="1.5" marker-end="url(#arrow)"/>
<line x1="330" y1="222" x2="398" y2="67" stroke="#5f6f85" stroke-width="1.5" marker-end="url(#arrow)"/>
<line x1="330" y1="377" x2="398" y2="222" stroke="#5f6f85" stroke-width="1.5" marker-end="url(#arrow)"/>
<rect x="43" y="36" width="280" height="62" rx="8" fill="#f6f8fb" stroke="#496a9a" stroke-width="1.5"/>
<text x="183" y="67" text-anchor="middle" dominant-baseline="middle" font-family="Inter, Helvetica, Arial, sans-serif" font-size="26" fill="#1f2937"><tspan x="183" dy="0">Build-side stage</tspan></text>
<rect x="36" y="191" width="294" height="62" rx="8" fill="#f6f8fb" stroke="#496a9a" stroke-width="1.5"/>
<text x="183" y="222" text-anchor="middle" dominant-baseline="middle" font-family="Inter, Helvetica, Arial, sans-serif" font-size="26" fill="#1f2937"><tspan x="183" dy="0">Probe partition 0</tspan></text>
<rect x="36" y="346" width="294" height="62" rx="8" fill="#f6f8fb" stroke="#496a9a" stroke-width="1.5"/>
<text x="183" y="377" text-anchor="middle" dominant-baseline="middle" font-family="Inter, Helvetica, Arial, sans-serif" font-size="26" fill="#1f2937"><tspan x="183" dy="0">Probe partition 1</tspan></text>
<rect x="398" y="36" width="210" height="62" rx="8" fill="#f6f8fb" stroke="#496a9a" stroke-width="1.5"/>
<text x="503" y="67" text-anchor="middle" dominant-baseline="middle" font-family="Inter, Helvetica, Arial, sans-serif" font-size="26" fill="#1f2937"><tspan x="503" dy="0">Join task 0</tspan></text>
<rect x="398" y="191" width="210" height="62" rx="8" fill="#f6f8fb" stroke="#496a9a" stroke-width="1.5"/>
<text x="503" y="222" text-anchor="middle" dominant-baseline="middle" font-family="Inter, Helvetica, Arial, sans-serif" font-size="26" fill="#1f2937"><tspan x="503" dy="0">Join task 1</tspan></text>
</svg>