<svg xmlns="http://www.w3.org/2000/svg" width="497" height="520" viewBox="0 0 497 520">
<defs>
  <marker id="arrow" markerWidth="10" markerHeight="10" refX="8" refY="3" orient="auto" markerUnits="strokeWidth">
    <path d="M0,0 L0,6 L8,3 z" fill="#5f6f85"/>
  </marker>
</defs>
<rect x="0" y="0" width="497" height="520" fill="white"/>

<line x1="206" y1="65" x2="291" y2="65" stroke="#5f6f85" stroke-width="1.5" marker-end="url(#arrow)"/>
<line x1="206" y1="195" x2="291" y2="65" stroke="#5f6f85" stroke-width="1.5" marker-end="url(#arrow)"/>
<line x1="206" y1="325" x2="291" y2="195" stroke="#5f6f85" stroke-width="1.5" marker-end="url(#arrow)"/>
<line x1="206" y1="455" x2="291" y2="195" stroke="#5f6f85" stroke-width="1.5" marker-end="url(#arrow)"/>
<rect x="36" y="36" width="170" height="58" rx="8" fill="#f6f8fb" stroke="#496a9a" stroke-width="1.5"/>
<text x="121" y="65" text-anchor="middle" dominant-baseline="middle" font-family="Inter, Helvetica, Arial, sans-serif" font-size="26" fill="#1f2937"><tspan x="121" dy="0">Input p0</tspan></text>
<rect x="36" y="166" width="170" height="58" rx="8" fill="#f6f8fb" stroke="#496a9a" stroke-width="1.5"/>
<text x="121" y="195" text-anchor="middle" dominant-baseline="middle" font-family="Inter, Helvetica, Arial, sans-serif" font-size="26" fill="#1f2937"><tspan x="121" dy="0">Input p1</tspan></text>
<rect x="36" y="296" width="170" height="58" rx="8" fill="#f6f8fb" stroke="#496a9a" stroke-width="1.5"/>
<text x="121" y="325" text-anchor="middle" dominant-baseline="middle" font-family="Inter, Helvetica, Arial, sans-serif" font-size="26" fill="#1f2937"><tspan x="121" dy="0">Input p2</tspan></text>
<rect x="36" y="426" width="170" height="58" rx="8" fill="#f6f8fb" stroke="#496a9a" stroke-width="1.5"/>
<text x="121" y="455" text-anchor="middle" dominant-baseline="middle" font-family="Inter, Helvetica, Arial, sans-serif" font-size="26" fill="#1f2937"><tspan x="121" dy="0">Input p3</tspan></text>
<rect x="291" y="36" width="170" height="58" rx="8" fill="#f6f8fb" stroke="#496a9a" stroke-width="1.5"/>
<text x="376" y="65" text-anchor="middle" dominant-baseline="middle" font-family="Inter, Helvetica, Arial, sans-serif" font-size="26" fill="#1f2937"><tspan x="376" dy="0">Output p0</tspan></text>
<rect x="291" y="166" width="170" height="58" rx="8" fill="#f6f8fb" stroke="#496a9a" stroke-width="1.5"/>
<text x="376" y="195" text-anchor="middle" dominant-baseline="middle" font-family="Inter, Helvetica, Arial, sans-serif" font-size="26" fill="#1f2937"><tspan x="376" dy="0">Output p1</tspan></text>
</svg>