<svg xmlns="http://www.w3.org/2000/svg" width="535" height="390" viewBox="0 0 535 390">
<defs>
  <marker id="arrow" markerWidth="10" markerHeight="10" refX="8" refY="3" orient="auto" markerUnits="strokeWidth">
    <path d="M0,0 L0,6 L8,3 z" fill="#5f6f85"/>
  </marker>
</defs>
<rect x="0" y="0" width="535" height="390" fill="white"/>

<line x1="274" y1="65" x2="327" y2="65" stroke="#5f6f85" stroke-width="1.5" marker-end="url(#arrow)"/>
<line x1="274" y1="65" x2="327" y2="195" stroke="#5f6f85" stroke-width="1.5" marker-end="url(#arrow)"/>
<line x1="280" y1="195" x2="327" y2="65" stroke="#5f6f85" stroke-width="1.5" marker-end="url(#arrow)"/>
<line x1="280" y1="325" x2="327" y2="195" stroke="#5f6f85" stroke-width="1.5" marker-end="url(#arrow)"/>
<rect x="42" y="36" width="232" height="58" rx="8" fill="#f6f8fb" stroke="#496a9a" stroke-width="1.5"/>
<text x="158" y="65" text-anchor="middle" dominant-baseline="middle" font-family="Inter, Helvetica, Arial, sans-serif" font-size="26" fill="#1f2937"><tspan x="158" dy="0">Build-side stage</tspan></text>
<rect x="36" y="166" width="244" height="58" rx="8" fill="#f6f8fb" stroke="#496a9a" stroke-width="1.5"/>
<text x="158" y="195" text-anchor="middle" dominant-baseline="middle" font-family="Inter, Helvetica, Arial, sans-serif" font-size="26" fill="#1f2937"><tspan x="158" dy="0">Probe partition 0</tspan></text>
<rect x="36" y="296" width="244" height="58" rx="8" fill="#f6f8fb" stroke="#496a9a" stroke-width="1.5"/>
<text x="158" y="325" text-anchor="middle" dominant-baseline="middle" font-family="Inter, Helvetica, Arial, sans-serif" font-size="26" fill="#1f2937"><tspan x="158" dy="0">Probe partition 1</tspan></text>
<rect x="327" y="36" width="172" height="58" rx="8" fill="#f6f8fb" stroke="#496a9a" stroke-width="1.5"/>
<text x="413" y="65" text-anchor="middle" dominant-baseline="middle" font-family="Inter, Helvetica, Arial, sans-serif" font-size="26" fill="#1f2937"><tspan x="413" dy="0">Join task 0</tspan></text>
<rect x="327" y="166" width="172" height="58" rx="8" fill="#f6f8fb" stroke="#496a9a" stroke-width="1.5"/>
<text x="413" y="195" text-anchor="middle" dominant-baseline="middle" font-family="Inter, Helvetica, Arial, sans-serif" font-size="26" fill="#1f2937"><tspan x="413" dy="0">Join task 1</tspan></text>
</svg>