<svg xmlns="http://www.w3.org/2000/svg" width="540" height="535" viewBox="0 0 540 535">
<defs>
  <marker id="arrow" markerWidth="10" markerHeight="10" refX="8" refY="3" orient="auto" markerUnits="strokeWidth">
    <path d="M0,0 L0,6 L8,3 z" fill="#5f6f85"/>
  </marker>
</defs>
<rect x="0" y="0" width="540" height="535" fill="white"/>

<line x1="145" y1="70" x2="225" y2="70" stroke="#5f6f85" stroke-width="1.5" marker-end="url(#arrow)"/>
<line x1="145" y1="175" x2="225" y2="70" stroke="#5f6f85" stroke-width="1.5" marker-end="url(#arrow)"/>
<line x1="145" y1="280" x2="225" y2="175" stroke="#5f6f85" stroke-width="1.5" marker-end="url(#arrow)"/>
<line x1="145" y1="385" x2="225" y2="175" stroke="#5f6f85" stroke-width="1.5" marker-end="url(#arrow)"/>
<rect x="-5" y="44.5" width="150" height="51" rx="8" fill="#f6f8fb" stroke="#496a9a" stroke-width="1.5"/>
<text x="70" y="70" text-anchor="middle" dominant-baseline="middle" font-family="Inter, Helvetica, Arial, sans-serif" font-size="13" fill="#1f2937"><tspan x="70" dy="0">Input p0</tspan></text>
<rect x="-5" y="149.5" width="150" height="51" rx="8" fill="#f6f8fb" stroke="#496a9a" stroke-width="1.5"/>
<text x="70" y="175" text-anchor="middle" dominant-baseline="middle" font-family="Inter, Helvetica, Arial, sans-serif" font-size="13" fill="#1f2937"><tspan x="70" dy="0">Input p1</tspan></text>
<rect x="-5" y="254.5" width="150" height="51" rx="8" fill="#f6f8fb" stroke="#496a9a" stroke-width="1.5"/>
<text x="70" y="280" text-anchor="middle" dominant-baseline="middle" font-family="Inter, Helvetica, Arial, sans-serif" font-size="13" fill="#1f2937"><tspan x="70" dy="0">Input p2</tspan></text>
<rect x="-5" y="359.5" width="150" height="51" rx="8" fill="#f6f8fb" stroke="#496a9a" stroke-width="1.5"/>
<text x="70" y="385" text-anchor="middle" dominant-baseline="middle" font-family="Inter, Helvetica, Arial, sans-serif" font-size="13" fill="#1f2937"><tspan x="70" dy="0">Input p3</tspan></text>
<rect x="225" y="44.5" width="150" height="51" rx="8" fill="#f6f8fb" stroke="#496a9a" stroke-width="1.5"/>
<text x="300" y="70" text-anchor="middle" dominant-baseline="middle" font-family="Inter, Helvetica, Arial, sans-serif" font-size="13" fill="#1f2937"><tspan x="300" dy="0">Output p0</tspan></text>
<rect x="225" y="149.5" width="150" height="51" rx="8" fill="#f6f8fb" stroke="#496a9a" stroke-width="1.5"/>
<text x="300" y="175" text-anchor="middle" dominant-baseline="middle" font-family="Inter, Helvetica, Arial, sans-serif" font-size="13" fill="#1f2937"><tspan x="300" dy="0">Output p1</tspan></text>
</svg>