<svg xmlns="http://www.w3.org/2000/svg" width="420" height="796" viewBox="0 0 420 796">
<defs>
  <marker id="arrow" markerWidth="10" markerHeight="10" refX="8" refY="3" orient="auto" markerUnits="strokeWidth">
    <path d="M0,0 L0,6 L8,3 z" fill="#5f6f85"/>
  </marker>
</defs>
<rect x="0" y="0" width="420" height="796" fill="white"/>

<line x1="152" y1="126" x2="152" y2="166" stroke="#5f6f85" stroke-width="1.5" marker-end="url(#arrow)"/>
<line x1="152" y1="256" x2="152" y2="312" stroke="#5f6f85" stroke-width="1.5" marker-end="url(#arrow)"/>
<line x1="152" y1="370" x2="152" y2="442" stroke="#5f6f85" stroke-width="1.5" marker-end="url(#arrow)"/>
<line x1="152" y1="500" x2="152" y2="572" stroke="#5f6f85" stroke-width="1.5" marker-end="url(#arrow)"/>
<line x1="152" y1="630" x2="152" y2="702" stroke="#5f6f85" stroke-width="1.5" marker-end="url(#arrow)"/>
<rect x="48" y="36" width="208" height="90" rx="8" fill="#f6f8fb" stroke="#496a9a" stroke-width="1.5"/>
<text x="152" y="65" text-anchor="middle" dominant-baseline="middle" font-family="Inter, Helvetica, Arial, sans-serif" font-size="26" fill="#1f2937"><tspan x="152" dy="0">Input physical</tspan><tspan x="152" dy="32">plan</tspan></text>
<rect x="66" y="166" width="172" height="90" rx="8" fill="#f6f8fb" stroke="#496a9a" stroke-width="1.5"/>
<text x="152" y="195" text-anchor="middle" dominant-baseline="middle" font-family="Inter, Helvetica, Arial, sans-serif" font-size="26" fill="#1f2937"><tspan x="152" dy="0">GlobalLimit</tspan><tspan x="152" dy="32">rewrite</tspan></text>
<rect x="36" y="312" width="232" height="58" rx="8" fill="#f6f8fb" stroke="#496a9a" stroke-width="1.5"/>
<text x="152" y="341" text-anchor="middle" dominant-baseline="middle" font-family="Inter, Helvetica, Arial, sans-serif" font-size="26" fill="#1f2937"><tspan x="152" dy="0">HashJoin rewrite</tspan></text>
<rect x="42" y="442" width="220" height="58" rx="8" fill="#f6f8fb" stroke="#496a9a" stroke-width="1.5"/>
<text x="152" y="471" text-anchor="middle" dominant-baseline="middle" font-family="Inter, Helvetica, Arial, sans-serif" font-size="26" fill="#1f2937"><tspan x="152" dy="0">build_job_graph</tspan></text>
<rect x="36" y="572" width="232" height="58" rx="8" fill="#f6f8fb" stroke="#496a9a" stroke-width="1.5"/>
<text x="152" y="601" text-anchor="middle" dominant-baseline="middle" font-family="Inter, Helvetica, Arial, sans-serif" font-size="26" fill="#1f2937"><tspan x="152" dy="0">push final stage</tspan></text>
<rect x="67" y="702" width="170" height="58" rx="8" fill="#f6f8fb" stroke="#496a9a" stroke-width="1.5"/>
<text x="152" y="731" text-anchor="middle" dominant-baseline="middle" font-family="Inter, Helvetica, Arial, sans-serif" font-size="26" fill="#1f2937"><tspan x="152" dy="0">JobGraph</tspan></text>
</svg>