<svg xmlns="http://www.w3.org/2000/svg" width="900" height="461" viewBox="0 0 992 508">
<defs>
  <marker id="arrow" markerWidth="10" markerHeight="10" refX="8" refY="3" orient="auto" markerUnits="strokeWidth">
    <path d="M0,0 L0,6 L8,3 z" fill="#5f6f85"/>
  </marker>
</defs>
<rect x="0" y="0" width="992" height="508" fill="white"/>

<line x1="344" y1="99" x2="391" y2="99" stroke="#5f6f85" stroke-width="1.5" marker-end="url(#arrow)"/>
<line x1="344" y1="99" x2="391" y2="254" stroke="#5f6f85" stroke-width="1.5" marker-end="url(#arrow)"/>
<line x1="344" y1="99" x2="384" y2="409" stroke="#5f6f85" stroke-width="1.5" marker-end="url(#arrow)"/>
<line x1="629" y1="254" x2="704" y2="99" stroke="#5f6f85" stroke-width="1.5" marker-end="url(#arrow)"/>
<line x1="636" y1="409" x2="704" y2="254" stroke="#5f6f85" stroke-width="1.5" marker-end="url(#arrow)"/>
<rect x="36" y="52" width="308" height="94" rx="8" fill="#f6f8fb" stroke="#496a9a" stroke-width="1.5"/>
<text x="190" y="83" text-anchor="middle" dominant-baseline="middle" font-family="Inter, Helvetica, Arial, sans-serif" font-size="26" fill="#1f2937"><tspan x="190" dy="0">Original</tspan><tspan x="190" dy="32">ExecutionPlan tree</tspan></text>
<rect x="391" y="36" width="238" height="126" rx="8" fill="#f6f8fb" stroke="#496a9a" stroke-width="1.5"/>
<text x="510" y="67" text-anchor="middle" dominant-baseline="middle" font-family="Inter, Helvetica, Arial, sans-serif" font-size="26" fill="#1f2937"><tspan x="510" dy="0">Stage 0:</tspan><tspan x="510" dy="32">ExecutionPlan</tspan><tspan x="510" dy="32">subtree</tspan></text>
<rect x="391" y="191" width="238" height="126" rx="8" fill="#f6f8fb" stroke="#496a9a" stroke-width="1.5"/>
<text x="510" y="222" text-anchor="middle" dominant-baseline="middle" font-family="Inter, Helvetica, Arial, sans-serif" font-size="26" fill="#1f2937"><tspan x="510" dy="0">Stage 1:</tspan><tspan x="510" dy="32">ExecutionPlan</tspan><tspan x="510" dy="32">subtree</tspan></text>
<rect x="384" y="346" width="252" height="126" rx="8" fill="#f6f8fb" stroke="#496a9a" stroke-width="1.5"/>
<text x="510" y="377" text-anchor="middle" dominant-baseline="middle" font-family="Inter, Helvetica, Arial, sans-serif" font-size="26" fill="#1f2937"><tspan x="510" dy="0">Stage 2: final</tspan><tspan x="510" dy="32">ExecutionPlan</tspan><tspan x="510" dy="32">subtree</tspan></text>
<rect x="704" y="68" width="252" height="62" rx="8" fill="#f6f8fb" stroke="#496a9a" stroke-width="1.5"/>
<text x="830" y="99" text-anchor="middle" dominant-baseline="middle" font-family="Inter, Helvetica, Arial, sans-serif" font-size="26" fill="#1f2937"><tspan x="830" dy="0">StageInputExec</tspan></text>
<rect x="704" y="223" width="252" height="62" rx="8" fill="#f6f8fb" stroke="#496a9a" stroke-width="1.5"/>
<text x="830" y="254" text-anchor="middle" dominant-baseline="middle" font-family="Inter, Helvetica, Arial, sans-serif" font-size="26" fill="#1f2937"><tspan x="830" dy="0">StageInputExec</tspan></text>
</svg>