<svg xmlns="http://www.w3.org/2000/svg" width="814" height="454" viewBox="0 0 814 454">
<defs>
  <marker id="arrow" markerWidth="10" markerHeight="10" refX="8" refY="3" orient="auto" markerUnits="strokeWidth">
    <path d="M0,0 L0,6 L8,3 z" fill="#5f6f85"/>
  </marker>
</defs>
<rect x="0" y="0" width="814" height="454" fill="white"/>

<line x1="292" y1="97" x2="321" y2="97" stroke="#5f6f85" stroke-width="1.5" marker-end="url(#arrow)"/>
<line x1="292" y1="97" x2="321" y2="227" stroke="#5f6f85" stroke-width="1.5" marker-end="url(#arrow)"/>
<line x1="292" y1="97" x2="315" y2="357" stroke="#5f6f85" stroke-width="1.5" marker-end="url(#arrow)"/>
<line x1="517" y1="227" x2="570" y2="97" stroke="#5f6f85" stroke-width="1.5" marker-end="url(#arrow)"/>
<line x1="523" y1="357" x2="570" y2="227" stroke="#5f6f85" stroke-width="1.5" marker-end="url(#arrow)"/>
<rect x="36" y="52" width="256" height="90" rx="8" fill="#f6f8fb" stroke="#496a9a" stroke-width="1.5"/>
<text x="164" y="81" text-anchor="middle" dominant-baseline="middle" font-family="Inter, Helvetica, Arial, sans-serif" font-size="26" fill="#1f2937"><tspan x="164" dy="0">Original</tspan><tspan x="164" dy="32">ExecutionPlan tree</tspan></text>
<rect x="321" y="36" width="196" height="122" rx="8" fill="#f6f8fb" stroke="#496a9a" stroke-width="1.5"/>
<text x="419" y="65" text-anchor="middle" dominant-baseline="middle" font-family="Inter, Helvetica, Arial, sans-serif" font-size="26" fill="#1f2937"><tspan x="419" dy="0">Stage 0:</tspan><tspan x="419" dy="32">ExecutionPlan</tspan><tspan x="419" dy="32">subtree</tspan></text>
<rect x="321" y="166" width="196" height="122" rx="8" fill="#f6f8fb" stroke="#496a9a" stroke-width="1.5"/>
<text x="419" y="195" text-anchor="middle" dominant-baseline="middle" font-family="Inter, Helvetica, Arial, sans-serif" font-size="26" fill="#1f2937"><tspan x="419" dy="0">Stage 1:</tspan><tspan x="419" dy="32">ExecutionPlan</tspan><tspan x="419" dy="32">subtree</tspan></text>
<rect x="315" y="296" width="208" height="122" rx="8" fill="#f6f8fb" stroke="#496a9a" stroke-width="1.5"/>
<text x="419" y="325" text-anchor="middle" dominant-baseline="middle" font-family="Inter, Helvetica, Arial, sans-serif" font-size="26" fill="#1f2937"><tspan x="419" dy="0">Stage 2: final</tspan><tspan x="419" dy="32">ExecutionPlan</tspan><tspan x="419" dy="32">subtree</tspan></text>
<rect x="570" y="68" width="208" height="58" rx="8" fill="#f6f8fb" stroke="#496a9a" stroke-width="1.5"/>
<text x="674" y="97" text-anchor="middle" dominant-baseline="middle" font-family="Inter, Helvetica, Arial, sans-serif" font-size="26" fill="#1f2937"><tspan x="674" dy="0">StageInputExec</tspan></text>
<rect x="570" y="198" width="208" height="58" rx="8" fill="#f6f8fb" stroke="#496a9a" stroke-width="1.5"/>
<text x="674" y="227" text-anchor="middle" dominant-baseline="middle" font-family="Inter, Helvetica, Arial, sans-serif" font-size="26" fill="#1f2937"><tspan x="674" dy="0">StageInputExec</tspan></text>
</svg>