<svg xmlns="http://www.w3.org/2000/svg" width="582" height="599" viewBox="0 0 582 599">
<defs>
  <marker id="arrow" markerWidth="10" markerHeight="10" refX="8" refY="3" orient="auto" markerUnits="strokeWidth">
    <path d="M0,0 L0,6 L8,3 z" fill="#5f6f85"/>
  </marker>
</defs>
<rect x="0" y="0" width="582" height="599" fill="white"/>

<line x1="226" y1="67" x2="356" y2="67" stroke="#5f6f85" stroke-width="1.5" marker-end="url(#arrow)"/>
<line x1="226" y1="222" x2="356" y2="67" stroke="#5f6f85" stroke-width="1.5" marker-end="url(#arrow)"/>
<line x1="226" y1="377" x2="356" y2="222" stroke="#5f6f85" stroke-width="1.5" marker-end="url(#arrow)"/>
<line x1="226" y1="532" x2="356" y2="222" stroke="#5f6f85" stroke-width="1.5" marker-end="url(#arrow)"/>
<rect x="36" y="36" width="190" height="62" rx="8" fill="#f6f8fb" stroke="#496a9a" stroke-width="1.5"/>
<text x="131" y="67" text-anchor="middle" dominant-baseline="middle" font-family="Inter, Helvetica, Arial, sans-serif" font-size="26" fill="#1f2937"><tspan x="131" dy="0">Input p0</tspan></text>
<rect x="36" y="191" width="190" height="62" rx="8" fill="#f6f8fb" stroke="#496a9a" stroke-width="1.5"/>
<text x="131" y="222" text-anchor="middle" dominant-baseline="middle" font-family="Inter, Helvetica, Arial, sans-serif" font-size="26" fill="#1f2937"><tspan x="131" dy="0">Input p1</tspan></text>
<rect x="36" y="346" width="190" height="62" rx="8" fill="#f6f8fb" stroke="#496a9a" stroke-width="1.5"/>
<text x="131" y="377" text-anchor="middle" dominant-baseline="middle" font-family="Inter, Helvetica, Arial, sans-serif" font-size="26" fill="#1f2937"><tspan x="131" dy="0">Input p2</tspan></text>
<rect x="36" y="501" width="190" height="62" rx="8" fill="#f6f8fb" stroke="#496a9a" stroke-width="1.5"/>
<text x="131" y="532" text-anchor="middle" dominant-baseline="middle" font-family="Inter, Helvetica, Arial, sans-serif" font-size="26" fill="#1f2937"><tspan x="131" dy="0">Input p3</tspan></text>
<rect x="356" y="36" width="190" height="62" rx="8" fill="#f6f8fb" stroke="#496a9a" stroke-width="1.5"/>
<text x="451" y="67" text-anchor="middle" dominant-baseline="middle" font-family="Inter, Helvetica, Arial, sans-serif" font-size="26" fill="#1f2937"><tspan x="451" dy="0">Output p0</tspan></text>
<rect x="356" y="191" width="190" height="62" rx="8" fill="#f6f8fb" stroke="#496a9a" stroke-width="1.5"/>
<text x="451" y="222" text-anchor="middle" dominant-baseline="middle" font-family="Inter, Helvetica, Arial, sans-serif" font-size="26" fill="#1f2937"><tspan x="451" dy="0">Output p1</tspan></text>
</svg>