<svg xmlns="http://www.w3.org/2000/svg" width="900" height="336" viewBox="0 0 1604 599">
<defs>
  <marker id="arrow" markerWidth="10" markerHeight="10" refX="8" refY="3" orient="auto" markerUnits="strokeWidth">
    <path d="M0,0 L0,6 L8,3 z" fill="#5f6f85"/>
  </marker>
</defs>
<rect x="0" y="0" width="1604" height="599" fill="white"/>

<line x1="162" y1="98" x2="162" y2="191" stroke="#5f6f85" stroke-width="1.5" marker-end="url(#arrow)"/>
<line x1="162" y1="253" x2="162" y2="330" stroke="#5f6f85" stroke-width="1.5" marker-end="url(#arrow)"/>
<line x1="162" y1="253" x2="482" y2="346" stroke="#5f6f85" stroke-width="1.5" marker-end="url(#arrow)"/>
<line x1="162" y1="253" x2="802" y2="330" stroke="#5f6f85" stroke-width="1.5" marker-end="url(#arrow)"/>
<line x1="162" y1="253" x2="1122" y2="330" stroke="#5f6f85" stroke-width="1.5" marker-end="url(#arrow)"/>
<line x1="162" y1="253" x2="1442" y2="330" stroke="#5f6f85" stroke-width="1.5" marker-end="url(#arrow)"/>
<line x1="1442" y1="424" x2="162" y2="501" stroke="#5f6f85" stroke-width="1.5" marker-end="url(#arrow)"/>
<rect x="43" y="36" width="238" height="62" rx="8" fill="#f6f8fb" stroke="#496a9a" stroke-width="1.5"/>
<text x="162" y="67" text-anchor="middle" dominant-baseline="middle" font-family="Inter, Helvetica, Arial, sans-serif" font-size="26" fill="#1f2937"><tspan x="162" dy="0">JobDescriptor</tspan></text>
<rect x="57" y="191" width="210" height="62" rx="8" fill="#f6f8fb" stroke="#496a9a" stroke-width="1.5"/>
<text x="162" y="222" text-anchor="middle" dominant-baseline="middle" font-family="Inter, Helvetica, Arial, sans-serif" font-size="26" fill="#1f2937"><tspan x="162" dy="0">refresh_job</tspan></text>
<rect x="43" y="330" width="238" height="94" rx="8" fill="#f6f8fb" stroke="#496a9a" stroke-width="1.5"/>
<text x="162" y="361" text-anchor="middle" dominant-baseline="middle" font-family="Inter, Helvetica, Arial, sans-serif" font-size="26" fill="#1f2937"><tspan x="162" dy="0">cancel failed</tspan><tspan x="162" dy="32">regions</tspan></text>
<rect x="335" y="346" width="294" height="62" rx="8" fill="#f6f8fb" stroke="#496a9a" stroke-width="1.5"/>
<text x="482" y="377" text-anchor="middle" dominant-baseline="middle" font-family="Inter, Helvetica, Arial, sans-serif" font-size="26" fill="#1f2937"><tspan x="482" dy="0">extend job output</tspan></text>
<rect x="662" y="330" width="280" height="94" rx="8" fill="#f6f8fb" stroke="#496a9a" stroke-width="1.5"/>
<text x="802" y="361" text-anchor="middle" dominant-baseline="middle" font-family="Inter, Helvetica, Arial, sans-serif" font-size="26" fill="#1f2937"><tspan x="802" dy="0">cleanup consumed</tspan><tspan x="802" dy="32">streams</tspan></text>
<rect x="1003" y="330" width="238" height="94" rx="8" fill="#f6f8fb" stroke="#496a9a" stroke-width="1.5"/>
<text x="1122" y="361" text-anchor="middle" dominant-baseline="middle" font-family="Inter, Helvetica, Arial, sans-serif" font-size="26" fill="#1f2937"><tspan x="1122" dy="0">update region</tspan><tspan x="1122" dy="32">states</tspan></text>
<rect x="1316" y="330" width="252" height="94" rx="8" fill="#f6f8fb" stroke="#496a9a" stroke-width="1.5"/>
<text x="1442" y="361" text-anchor="middle" dominant-baseline="middle" font-family="Inter, Helvetica, Arial, sans-serif" font-size="26" fill="#1f2937"><tspan x="1442" dy="0">schedule ready</tspan><tspan x="1442" dy="32">regions</tspan></text>
<rect x="36" y="501" width="252" height="62" rx="8" fill="#f6f8fb" stroke="#496a9a" stroke-width="1.5"/>
<text x="162" y="532" text-anchor="middle" dominant-baseline="middle" font-family="Inter, Helvetica, Arial, sans-serif" font-size="26" fill="#1f2937"><tspan x="162" dy="0">JobAction list</tspan></text>
</svg>