<svg xmlns="http://www.w3.org/2000/svg" width="814" height="390" viewBox="0 0 814 390">
<defs>
  <marker id="arrow" markerWidth="10" markerHeight="10" refX="8" refY="3" orient="auto" markerUnits="strokeWidth">
    <path d="M0,0 L0,6 L8,3 z" fill="#5f6f85"/>
  </marker>
</defs>
<rect x="0" y="0" width="814" height="390" fill="white"/>
<rect x="39" y="4" width="226" height="374" rx="10" fill="#eef6ff" stroke="#9bc3e6" stroke-dasharray="5 4"/>
<text x="51" y="28" font-family="Inter, Helvetica, Arial, sans-serif" font-size="24" font-weight="700" fill="#315a86">Producer stage</text>
<rect x="294" y="4" width="226" height="374" rx="10" fill="#eef6ff" stroke="#9bc3e6" stroke-dasharray="5 4"/>
<text x="306" y="28" font-family="Inter, Helvetica, Arial, sans-serif" font-size="24" font-weight="700" fill="#315a86">Shuffle streams</text>
<rect x="549" y="4" width="226" height="374" rx="10" fill="#eef6ff" stroke="#9bc3e6" stroke-dasharray="5 4"/>
<text x="561" y="28" font-family="Inter, Helvetica, Arial, sans-serif" font-size="24" font-weight="700" fill="#315a86">Consumer stage</text>
<line x1="268" y1="65" x2="285" y2="65" stroke="#5f6f85" stroke-width="1.5" marker-end="url(#arrow)"/>
<line x1="268" y1="65" x2="285" y2="195" stroke="#5f6f85" stroke-width="1.5" marker-end="url(#arrow)"/>
<line x1="268" y1="65" x2="285" y2="325" stroke="#5f6f85" stroke-width="1.5" marker-end="url(#arrow)"/>
<line x1="268" y1="195" x2="285" y2="65" stroke="#5f6f85" stroke-width="1.5" marker-end="url(#arrow)"/>
<line x1="268" y1="195" x2="285" y2="195" stroke="#5f6f85" stroke-width="1.5" marker-end="url(#arrow)"/>
<line x1="268" y1="195" x2="285" y2="325" stroke="#5f6f85" stroke-width="1.5" marker-end="url(#arrow)"/>
<line x1="268" y1="325" x2="285" y2="65" stroke="#5f6f85" stroke-width="1.5" marker-end="url(#arrow)"/>
<line x1="268" y1="325" x2="285" y2="195" stroke="#5f6f85" stroke-width="1.5" marker-end="url(#arrow)"/>
<line x1="268" y1="325" x2="285" y2="325" stroke="#5f6f85" stroke-width="1.5" marker-end="url(#arrow)"/>
<line x1="529" y1="65" x2="546" y2="65" stroke="#5f6f85" stroke-width="1.5" marker-end="url(#arrow)"/>
<line x1="529" y1="195" x2="546" y2="195" stroke="#5f6f85" stroke-width="1.5" marker-end="url(#arrow)"/>
<line x1="529" y1="325" x2="546" y2="325" stroke="#5f6f85" stroke-width="1.5" marker-end="url(#arrow)"/>
<rect x="36" y="36" width="232" height="58" rx="8" fill="#f6f8fb" stroke="#496a9a" stroke-width="1.5"/>
<text x="152" y="65" text-anchor="middle" dominant-baseline="middle" font-family="Inter, Helvetica, Arial, sans-serif" font-size="26" fill="#1f2937"><tspan x="152" dy="0">Task partition 0</tspan></text>
<rect x="36" y="166" width="232" height="58" rx="8" fill="#f6f8fb" stroke="#496a9a" stroke-width="1.5"/>
<text x="152" y="195" text-anchor="middle" dominant-baseline="middle" font-family="Inter, Helvetica, Arial, sans-serif" font-size="26" fill="#1f2937"><tspan x="152" dy="0">Task partition 1</tspan></text>
<rect x="36" y="296" width="232" height="58" rx="8" fill="#f6f8fb" stroke="#496a9a" stroke-width="1.5"/>
<text x="152" y="325" text-anchor="middle" dominant-baseline="middle" font-family="Inter, Helvetica, Arial, sans-serif" font-size="26" fill="#1f2937"><tspan x="152" dy="0">Task partition 2</tspan></text>
<rect x="285" y="36" width="244" height="58" rx="8" fill="#f6f8fb" stroke="#496a9a" stroke-width="1.5"/>
<text x="407" y="65" text-anchor="middle" dominant-baseline="middle" font-family="Inter, Helvetica, Arial, sans-serif" font-size="26" fill="#1f2937"><tspan x="407" dy="0">channel 0 streams</tspan></text>
<rect x="285" y="166" width="244" height="58" rx="8" fill="#f6f8fb" stroke="#496a9a" stroke-width="1.5"/>
<text x="407" y="195" text-anchor="middle" dominant-baseline="middle" font-family="Inter, Helvetica, Arial, sans-serif" font-size="26" fill="#1f2937"><tspan x="407" dy="0">channel 1 streams</tspan></text>
<rect x="285" y="296" width="244" height="58" rx="8" fill="#f6f8fb" stroke="#496a9a" stroke-width="1.5"/>
<text x="407" y="325" text-anchor="middle" dominant-baseline="middle" font-family="Inter, Helvetica, Arial, sans-serif" font-size="26" fill="#1f2937"><tspan x="407" dy="0">channel 2 streams</tspan></text>
<rect x="546" y="36" width="232" height="58" rx="8" fill="#f6f8fb" stroke="#496a9a" stroke-width="1.5"/>
<text x="662" y="65" text-anchor="middle" dominant-baseline="middle" font-family="Inter, Helvetica, Arial, sans-serif" font-size="26" fill="#1f2937"><tspan x="662" dy="0">Task partition 0</tspan></text>
<rect x="546" y="166" width="232" height="58" rx="8" fill="#f6f8fb" stroke="#496a9a" stroke-width="1.5"/>
<text x="662" y="195" text-anchor="middle" dominant-baseline="middle" font-family="Inter, Helvetica, Arial, sans-serif" font-size="26" fill="#1f2937"><tspan x="662" dy="0">Task partition 1</tspan></text>
<rect x="546" y="296" width="232" height="58" rx="8" fill="#f6f8fb" stroke="#496a9a" stroke-width="1.5"/>
<text x="662" y="325" text-anchor="middle" dominant-baseline="middle" font-family="Inter, Helvetica, Arial, sans-serif" font-size="26" fill="#1f2937"><tspan x="662" dy="0">Task partition 2</tspan></text>
</svg>