<svg xmlns="http://www.w3.org/2000/svg" width="814" height="406" viewBox="0 0 814 406">
<defs>
  <marker id="arrow" markerWidth="10" markerHeight="10" refX="8" refY="3" orient="auto" markerUnits="strokeWidth">
    <path d="M0,0 L0,6 L8,3 z" fill="#5f6f85"/>
  </marker>
</defs>
<rect x="0" y="0" width="814" height="406" fill="white"/>

<line x1="280" y1="81" x2="263" y2="81" stroke="#5f6f85" stroke-width="1.5" marker-end="url(#arrow)"/>
<line x1="280" y1="211" x2="263" y2="81" stroke="#5f6f85" stroke-width="1.5" marker-end="url(#arrow)"/>
<line x1="280" y1="341" x2="263" y2="81" stroke="#5f6f85" stroke-width="1.5" marker-end="url(#arrow)"/>
<line x1="563" y1="81" x2="558" y2="81" stroke="#5f6f85" stroke-width="1.5" marker-end="url(#arrow)"/>
<rect x="36" y="52" width="244" height="58" rx="8" fill="#f6f8fb" stroke="#496a9a" stroke-width="1.5"/>
<text x="158" y="81" text-anchor="middle" dominant-baseline="middle" font-family="Inter, Helvetica, Arial, sans-serif" font-size="26" fill="#1f2937"><tspan x="158" dy="0">producer stream A</tspan></text>
<rect x="263" y="52" width="300" height="58" rx="8" fill="#f6f8fb" stroke="#496a9a" stroke-width="1.5"/>
<text x="413" y="81" text-anchor="middle" dominant-baseline="middle" font-family="Inter, Helvetica, Arial, sans-serif" font-size="26" fill="#1f2937"><tspan x="413" dy="0">MergedRecordBatchStream</tspan></text>
<rect x="36" y="182" width="244" height="58" rx="8" fill="#f6f8fb" stroke="#496a9a" stroke-width="1.5"/>
<text x="158" y="211" text-anchor="middle" dominant-baseline="middle" font-family="Inter, Helvetica, Arial, sans-serif" font-size="26" fill="#1f2937"><tspan x="158" dy="0">producer stream B</tspan></text>
<rect x="36" y="312" width="244" height="58" rx="8" fill="#f6f8fb" stroke="#496a9a" stroke-width="1.5"/>
<text x="158" y="341" text-anchor="middle" dominant-baseline="middle" font-family="Inter, Helvetica, Arial, sans-serif" font-size="26" fill="#1f2937"><tspan x="158" dy="0">producer stream C</tspan></text>
<rect x="558" y="36" width="220" height="90" rx="8" fill="#f6f8fb" stroke="#496a9a" stroke-width="1.5"/>
<text x="668" y="65" text-anchor="middle" dominant-baseline="middle" font-family="Inter, Helvetica, Arial, sans-serif" font-size="26" fill="#1f2937"><tspan x="668" dy="0">ShuffleReadExec</tspan><tspan x="668" dy="32">output</tspan></text>
</svg>