<svg xmlns="http://www.w3.org/2000/svg" width="770" height="745" viewBox="0 0 770 745">
<defs>
  <marker id="arrow" markerWidth="10" markerHeight="10" refX="8" refY="3" orient="auto" markerUnits="strokeWidth">
    <path d="M0,0 L0,6 L8,3 z" fill="#5f6f85"/>
  </marker>
</defs>
<rect x="0" y="0" width="770" height="745" fill="white"/>

<line x1="70" y1="95.5" x2="70" y2="149.5" stroke="#5f6f85" stroke-width="1.5" marker-end="url(#arrow)"/>
<line x1="70" y1="200.5" x2="70" y2="254.5" stroke="#5f6f85" stroke-width="1.5" marker-end="url(#arrow)"/><text x="70" y="221.5" text-anchor="middle" font-family="Inter, Helvetica, Arial, sans-serif" font-size="11" fill="#4b5563">yes</text>
<line x1="70" y1="200.5" x2="300" y2="254.5" stroke="#5f6f85" stroke-width="1.5" marker-end="url(#arrow)"/><text x="185" y="221.5" text-anchor="middle" font-family="Inter, Helvetica, Arial, sans-serif" font-size="11" fill="#4b5563">no</text>
<line x1="300" y1="305.5" x2="70" y2="359.5" stroke="#5f6f85" stroke-width="1.5" marker-end="url(#arrow)"/><text x="185" y="326.5" text-anchor="middle" font-family="Inter, Helvetica, Arial, sans-serif" font-size="11" fill="#4b5563">yes</text>
<line x1="300" y1="305.5" x2="300" y2="359.5" stroke="#5f6f85" stroke-width="1.5" marker-end="url(#arrow)"/><text x="300" y="326.5" text-anchor="middle" font-family="Inter, Helvetica, Arial, sans-serif" font-size="11" fill="#4b5563">no</text>
<line x1="300" y1="410.5" x2="70" y2="464.5" stroke="#5f6f85" stroke-width="1.5" marker-end="url(#arrow)"/>
<line x1="70" y1="515.5" x2="70" y2="561" stroke="#5f6f85" stroke-width="1.5" marker-end="url(#arrow)"/><text x="70" y="532.25" text-anchor="middle" font-family="Inter, Helvetica, Arial, sans-serif" font-size="11" fill="#4b5563">Table</text>
<line x1="70" y1="515.5" x2="300" y2="561" stroke="#5f6f85" stroke-width="1.5" marker-end="url(#arrow)"/><text x="185" y="532.25" text-anchor="middle" font-family="Inter, Helvetica, Arial, sans-serif" font-size="11" fill="#4b5563">View</text>
<line x1="70" y1="515.5" x2="530" y2="569.5" stroke="#5f6f85" stroke-width="1.5" marker-end="url(#arrow)"/><text x="300" y="536.5" text-anchor="middle" font-family="Inter, Helvetica, Arial, sans-serif" font-size="11" fill="#4b5563">Temporary view</text>
<rect x="-5" y="44.5" width="150" height="51" rx="8" fill="#f6f8fb" stroke="#496a9a" stroke-width="1.5"/>
<text x="70" y="70" text-anchor="middle" dominant-baseline="middle" font-family="Inter, Helvetica, Arial, sans-serif" font-size="13" fill="#1f2937"><tspan x="70" dy="0">ReadNamedTable</tspan></text>
<rect x="-5" y="149.5" width="150" height="51" rx="10" fill="#fff6d9" stroke="#c58c00" stroke-width="1.5"/>
<text x="70" y="175" text-anchor="middle" dominant-baseline="middle" font-family="Inter, Helvetica, Arial, sans-serif" font-size="13" fill="#1f2937"><tspan x="70" dy="0">format.path?</tspan></text>
<rect x="-18.25" y="254.5" width="176.5" height="51" rx="8" fill="#f6f8fb" stroke="#496a9a" stroke-width="1.5"/>
<text x="70" y="280" text-anchor="middle" dominant-baseline="middle" font-family="Inter, Helvetica, Arial, sans-serif" font-size="13" fill="#1f2937"><tspan x="70" dy="0">TableFormatRegistry</tspan></text>
<rect x="225" y="254.5" width="150" height="51" rx="10" fill="#fff6d9" stroke="#c58c00" stroke-width="1.5"/>
<text x="300" y="280" text-anchor="middle" dominant-baseline="middle" font-family="Inter, Helvetica, Arial, sans-serif" font-size="13" fill="#1f2937"><tspan x="300" dy="0">CTE?</tspan></text>
<rect x="-5" y="359.5" width="150" height="51" rx="8" fill="#f6f8fb" stroke="#496a9a" stroke-width="1.5"/>
<text x="70" y="385" text-anchor="middle" dominant-baseline="middle" font-family="Inter, Helvetica, Arial, sans-serif" font-size="13" fill="#1f2937"><tspan x="70" dy="0">CTE LogicalPlan</tspan></text>
<rect x="225" y="359.5" width="150" height="51" rx="8" fill="#f6f8fb" stroke="#496a9a" stroke-width="1.5"/>
<text x="300" y="385" text-anchor="middle" dominant-baseline="middle" font-family="Inter, Helvetica, Arial, sans-serif" font-size="13" fill="#1f2937"><tspan x="300" dy="0">CatalogManager</tspan></text>
<rect x="-5" y="464.5" width="150" height="51" rx="10" fill="#fff6d9" stroke="#c58c00" stroke-width="1.5"/>
<text x="70" y="490" text-anchor="middle" dominant-baseline="middle" font-family="Inter, Helvetica, Arial, sans-serif" font-size="13" fill="#1f2937"><tspan x="70" dy="0">Table kind</tspan></text>
<rect x="-18.25" y="561" width="176.5" height="68" rx="8" fill="#f6f8fb" stroke="#496a9a" stroke-width="1.5"/>
<text x="70" y="587" text-anchor="middle" dominant-baseline="middle" font-family="Inter, Helvetica, Arial, sans-serif" font-size="13" fill="#1f2937"><tspan x="70" dy="0">SourceInfo -&gt; table</tspan><tspan x="70" dy="17">source</tspan></text>
<rect x="200.5" y="561" width="199" height="68" rx="8" fill="#f6f8fb" stroke="#496a9a" stroke-width="1.5"/>
<text x="300" y="587" text-anchor="middle" dominant-baseline="middle" font-family="Inter, Helvetica, Arial, sans-serif" font-size="13" fill="#1f2937"><tspan x="300" dy="0">parse view SQL -&gt; spec</tspan><tspan x="300" dy="17">-&gt; resolve</tspan></text>
<rect x="423" y="569.5" width="214" height="51" rx="8" fill="#f6f8fb" stroke="#496a9a" stroke-width="1.5"/>
<text x="530" y="595" text-anchor="middle" dominant-baseline="middle" font-family="Inter, Helvetica, Arial, sans-serif" font-size="13" fill="#1f2937"><tspan x="530" dy="0">clone stored LogicalPlan</tspan></text>
</svg>