<svg xmlns="http://www.w3.org/2000/svg" width="900" height="845" viewBox="0 0 985 925">
<defs>
  <marker id="arrow" markerWidth="10" markerHeight="10" refX="8" refY="3" orient="auto" markerUnits="strokeWidth">
    <path d="M0,0 L0,6 L8,3 z" fill="#5f6f85"/>
  </marker>
</defs>
<rect x="0" y="0" width="985" height="925" fill="white"/>

<line x1="197" y1="98" x2="197" y2="191" stroke="#5f6f85" stroke-width="1.5" marker-end="url(#arrow)"/>
<line x1="197" y1="253" x2="197" y2="346" stroke="#5f6f85" stroke-width="1.5" marker-end="url(#arrow)"/><text x="197" y="291.5" text-anchor="middle" font-family="Inter, Helvetica, Arial, sans-serif" font-size="22" fill="#4b5563">yes</text>
<line x1="197" y1="253" x2="517" y2="346" stroke="#5f6f85" stroke-width="1.5" marker-end="url(#arrow)"/><text x="357" y="291.5" text-anchor="middle" font-family="Inter, Helvetica, Arial, sans-serif" font-size="22" fill="#4b5563">no</text>
<line x1="517" y1="408" x2="197" y2="501" stroke="#5f6f85" stroke-width="1.5" marker-end="url(#arrow)"/><text x="357" y="446.5" text-anchor="middle" font-family="Inter, Helvetica, Arial, sans-serif" font-size="22" fill="#4b5563">yes</text>
<line x1="517" y1="408" x2="517" y2="501" stroke="#5f6f85" stroke-width="1.5" marker-end="url(#arrow)"/><text x="517" y="446.5" text-anchor="middle" font-family="Inter, Helvetica, Arial, sans-serif" font-size="22" fill="#4b5563">no</text>
<line x1="517" y1="563" x2="197" y2="656" stroke="#5f6f85" stroke-width="1.5" marker-end="url(#arrow)"/>
<line x1="197" y1="718" x2="197" y2="795" stroke="#5f6f85" stroke-width="1.5" marker-end="url(#arrow)"/><text x="197" y="748.5" text-anchor="middle" font-family="Inter, Helvetica, Arial, sans-serif" font-size="22" fill="#4b5563">Table</text>
<line x1="197" y1="718" x2="517" y2="795" stroke="#5f6f85" stroke-width="1.5" marker-end="url(#arrow)"/><text x="357" y="748.5" text-anchor="middle" font-family="Inter, Helvetica, Arial, sans-serif" font-size="22" fill="#4b5563">View</text>
<line x1="197" y1="718" x2="837" y2="795" stroke="#5f6f85" stroke-width="1.5" marker-end="url(#arrow)"/><text x="517" y="748.5" text-anchor="middle" font-family="Inter, Helvetica, Arial, sans-serif" font-size="22" fill="#4b5563">Temporary view</text>
<rect x="71" y="36" width="252" height="62" rx="8" fill="#f6f8fb" stroke="#496a9a" stroke-width="1.5"/>
<text x="197" y="67" text-anchor="middle" dominant-baseline="middle" font-family="Inter, Helvetica, Arial, sans-serif" font-size="26" fill="#1f2937"><tspan x="197" dy="0">ReadNamedTable</tspan></text>
<rect x="85" y="191" width="224" height="62" rx="10" fill="#fff6d9" stroke="#c58c00" stroke-width="1.5"/>
<text x="197" y="222" text-anchor="middle" dominant-baseline="middle" font-family="Inter, Helvetica, Arial, sans-serif" font-size="26" fill="#1f2937"><tspan x="197" dy="0">format.path?</tspan></text>
<rect x="36" y="346" width="322" height="62" rx="8" fill="#f6f8fb" stroke="#496a9a" stroke-width="1.5"/>
<text x="197" y="377" text-anchor="middle" dominant-baseline="middle" font-family="Inter, Helvetica, Arial, sans-serif" font-size="26" fill="#1f2937"><tspan x="197" dy="0">TableFormatRegistry</tspan></text>
<rect x="422" y="346" width="190" height="62" rx="10" fill="#fff6d9" stroke="#c58c00" stroke-width="1.5"/>
<text x="517" y="377" text-anchor="middle" dominant-baseline="middle" font-family="Inter, Helvetica, Arial, sans-serif" font-size="26" fill="#1f2937"><tspan x="517" dy="0">CTE?</tspan></text>
<rect x="64" y="501" width="266" height="62" rx="8" fill="#f6f8fb" stroke="#496a9a" stroke-width="1.5"/>
<text x="197" y="532" text-anchor="middle" dominant-baseline="middle" font-family="Inter, Helvetica, Arial, sans-serif" font-size="26" fill="#1f2937"><tspan x="197" dy="0">CTE LogicalPlan</tspan></text>
<rect x="391" y="501" width="252" height="62" rx="8" fill="#f6f8fb" stroke="#496a9a" stroke-width="1.5"/>
<text x="517" y="532" text-anchor="middle" dominant-baseline="middle" font-family="Inter, Helvetica, Arial, sans-serif" font-size="26" fill="#1f2937"><tspan x="517" dy="0">CatalogManager</tspan></text>
<rect x="99" y="656" width="196" height="62" rx="10" fill="#fff6d9" stroke="#c58c00" stroke-width="1.5"/>
<text x="197" y="687" text-anchor="middle" dominant-baseline="middle" font-family="Inter, Helvetica, Arial, sans-serif" font-size="26" fill="#1f2937"><tspan x="197" dy="0">Table kind</tspan></text>
<rect x="78" y="795" width="238" height="94" rx="8" fill="#f6f8fb" stroke="#496a9a" stroke-width="1.5"/>
<text x="197" y="826" text-anchor="middle" dominant-baseline="middle" font-family="Inter, Helvetica, Arial, sans-serif" font-size="26" fill="#1f2937"><tspan x="197" dy="0">SourceInfo -&gt;</tspan><tspan x="197" dy="32">table source</tspan></text>
<rect x="370" y="795" width="294" height="94" rx="8" fill="#f6f8fb" stroke="#496a9a" stroke-width="1.5"/>
<text x="517" y="826" text-anchor="middle" dominant-baseline="middle" font-family="Inter, Helvetica, Arial, sans-serif" font-size="26" fill="#1f2937"><tspan x="517" dy="0">parse view SQL -&gt;</tspan><tspan x="517" dy="32">spec -&gt; resolve</tspan></text>
<rect x="725" y="795" width="224" height="94" rx="8" fill="#f6f8fb" stroke="#496a9a" stroke-width="1.5"/>
<text x="837" y="826" text-anchor="middle" dominant-baseline="middle" font-family="Inter, Helvetica, Arial, sans-serif" font-size="26" fill="#1f2937"><tspan x="837" dy="0">clone stored</tspan><tspan x="837" dy="32">LogicalPlan</tspan></text>
</svg>