<svg xmlns="http://www.w3.org/2000/svg" width="420" height="1186" viewBox="0 0 420 1186">
<defs>
  <marker id="arrow" markerWidth="10" markerHeight="10" refX="8" refY="3" orient="auto" markerUnits="strokeWidth">
    <path d="M0,0 L0,6 L8,3 z" fill="#5f6f85"/>
  </marker>
</defs>
<rect x="0" y="0" width="420" height="1186" fill="white"/>

<line x1="182" y1="94" x2="182" y2="166" stroke="#5f6f85" stroke-width="1.5" marker-end="url(#arrow)"/>
<line x1="182" y1="224" x2="182" y2="280" stroke="#5f6f85" stroke-width="1.5" marker-end="url(#arrow)"/>
<line x1="182" y1="370" x2="182" y2="410" stroke="#5f6f85" stroke-width="1.5" marker-end="url(#arrow)"/>
<line x1="182" y1="500" x2="182" y2="540" stroke="#5f6f85" stroke-width="1.5" marker-end="url(#arrow)"/>
<line x1="182" y1="630" x2="182" y2="670" stroke="#5f6f85" stroke-width="1.5" marker-end="url(#arrow)"/>
<line x1="182" y1="760" x2="182" y2="816" stroke="#5f6f85" stroke-width="1.5" marker-end="url(#arrow)"/>
<line x1="182" y1="874" x2="182" y2="946" stroke="#5f6f85" stroke-width="1.5" marker-end="url(#arrow)"/>
<line x1="182" y1="1004" x2="182" y2="1060" stroke="#5f6f85" stroke-width="1.5" marker-end="url(#arrow)"/>
<rect x="97" y="36" width="170" height="58" rx="8" fill="#f6f8fb" stroke="#496a9a" stroke-width="1.5"/>
<text x="182" y="65" text-anchor="middle" dominant-baseline="middle" font-family="Inter, Helvetica, Arial, sans-serif" font-size="26" fill="#1f2937"><tspan x="182" dy="0">spec::Plan</tspan></text>
<rect x="90" y="166" width="184" height="58" rx="8" fill="#f6f8fb" stroke="#496a9a" stroke-width="1.5"/>
<text x="182" y="195" text-anchor="middle" dominant-baseline="middle" font-family="Inter, Helvetica, Arial, sans-serif" font-size="26" fill="#1f2937"><tspan x="182" dy="0">PlanResolver</tspan></text>
<rect x="96" y="280" width="172" height="90" rx="8" fill="#f6f8fb" stroke="#496a9a" stroke-width="1.5"/>
<text x="182" y="309" text-anchor="middle" dominant-baseline="middle" font-family="Inter, Helvetica, Arial, sans-serif" font-size="26" fill="#1f2937"><tspan x="182" dy="0">DataFusion</tspan><tspan x="182" dy="32">LogicalPlan</tspan></text>
<rect x="42" y="410" width="280" height="90" rx="8" fill="#f6f8fb" stroke="#496a9a" stroke-width="1.5"/>
<text x="182" y="439" text-anchor="middle" dominant-baseline="middle" font-family="Inter, Helvetica, Arial, sans-serif" font-size="26" fill="#1f2937"><tspan x="182" dy="0">SessionContext</tspan><tspan x="182" dy="32">execute_logical_plan</tspan></text>
<rect x="97" y="540" width="170" height="90" rx="8" fill="#f6f8fb" stroke="#496a9a" stroke-width="1.5"/>
<text x="182" y="569" text-anchor="middle" dominant-baseline="middle" font-family="Inter, Helvetica, Arial, sans-serif" font-size="26" fill="#1f2937"><tspan x="182" dy="0">DataFusion</tspan><tspan x="182" dy="32">optimizer</tspan></text>
<rect x="54" y="670" width="256" height="90" rx="8" fill="#f6f8fb" stroke="#496a9a" stroke-width="1.5"/>
<text x="182" y="699" text-anchor="middle" dominant-baseline="middle" font-family="Inter, Helvetica, Arial, sans-serif" font-size="26" fill="#1f2937"><tspan x="182" dy="0">Sail streaming</tspan><tspan x="182" dy="32">rewrite, if needed</tspan></text>
<rect x="36" y="816" width="292" height="58" rx="8" fill="#f6f8fb" stroke="#496a9a" stroke-width="1.5"/>
<text x="182" y="845" text-anchor="middle" dominant-baseline="middle" font-family="Inter, Helvetica, Arial, sans-serif" font-size="26" fill="#1f2937"><tspan x="182" dy="0">ExtensionQueryPlanner</tspan></text>
<rect x="84" y="946" width="196" height="58" rx="8" fill="#f6f8fb" stroke="#496a9a" stroke-width="1.5"/>
<text x="182" y="975" text-anchor="middle" dominant-baseline="middle" font-family="Inter, Helvetica, Arial, sans-serif" font-size="26" fill="#1f2937"><tspan x="182" dy="0">ExecutionPlan</tspan></text>
<rect x="72" y="1060" width="220" height="90" rx="8" fill="#f6f8fb" stroke="#496a9a" stroke-width="1.5"/>
<text x="182" y="1089" text-anchor="middle" dominant-baseline="middle" font-family="Inter, Helvetica, Arial, sans-serif" font-size="26" fill="#1f2937"><tspan x="182" dy="0">rename physical</tspan><tspan x="182" dy="32">output fields</tspan></text>
</svg>