<svg xmlns="http://www.w3.org/2000/svg" width="808" height="796" viewBox="0 0 808 796">
<defs>
  <marker id="arrow" markerWidth="10" markerHeight="10" refX="8" refY="3" orient="auto" markerUnits="strokeWidth">
    <path d="M0,0 L0,6 L8,3 z" fill="#5f6f85"/>
  </marker>
</defs>
<rect x="0" y="0" width="808" height="796" fill="white"/>

<line x1="170" y1="94" x2="170" y2="166" stroke="#5f6f85" stroke-width="1.5" marker-end="url(#arrow)"/>
<line x1="170" y1="224" x2="170" y2="296" stroke="#5f6f85" stroke-width="1.5" marker-end="url(#arrow)"/><text x="170" y="252" text-anchor="middle" font-family="Inter, Helvetica, Arial, sans-serif" font-size="22" fill="#4b5563">yes</text>
<line x1="170" y1="224" x2="425" y2="296" stroke="#5f6f85" stroke-width="1.5" marker-end="url(#arrow)"/><text x="297.5" y="252" text-anchor="middle" font-family="Inter, Helvetica, Arial, sans-serif" font-size="22" fill="#4b5563">no</text>
<line x1="425" y1="354" x2="170" y2="426" stroke="#5f6f85" stroke-width="1.5" marker-end="url(#arrow)"/><text x="297.5" y="382" text-anchor="middle" font-family="Inter, Helvetica, Arial, sans-serif" font-size="22" fill="#4b5563">yes</text>
<line x1="425" y1="354" x2="425" y2="426" stroke="#5f6f85" stroke-width="1.5" marker-end="url(#arrow)"/><text x="425" y="382" text-anchor="middle" font-family="Inter, Helvetica, Arial, sans-serif" font-size="22" fill="#4b5563">no</text>
<line x1="425" y1="484" x2="170" y2="556" stroke="#5f6f85" stroke-width="1.5" marker-end="url(#arrow)"/>
<line x1="170" y1="614" x2="170" y2="670" stroke="#5f6f85" stroke-width="1.5" marker-end="url(#arrow)"/><text x="170" y="634" text-anchor="middle" font-family="Inter, Helvetica, Arial, sans-serif" font-size="22" fill="#4b5563">Table</text>
<line x1="170" y1="614" x2="425" y2="670" stroke="#5f6f85" stroke-width="1.5" marker-end="url(#arrow)"/><text x="297.5" y="634" text-anchor="middle" font-family="Inter, Helvetica, Arial, sans-serif" font-size="22" fill="#4b5563">View</text>
<line x1="170" y1="614" x2="680" y2="670" stroke="#5f6f85" stroke-width="1.5" marker-end="url(#arrow)"/><text x="425" y="634" text-anchor="middle" font-family="Inter, Helvetica, Arial, sans-serif" font-size="22" fill="#4b5563">Temporary view</text>
<rect x="66" y="36" width="208" height="58" rx="8" fill="#f6f8fb" stroke="#496a9a" stroke-width="1.5"/>
<text x="170" y="65" text-anchor="middle" dominant-baseline="middle" font-family="Inter, Helvetica, Arial, sans-serif" font-size="26" fill="#1f2937"><tspan x="170" dy="0">ReadNamedTable</tspan></text>
<rect x="78" y="166" width="184" height="58" rx="10" fill="#fff6d9" stroke="#c58c00" stroke-width="1.5"/>
<text x="170" y="195" text-anchor="middle" dominant-baseline="middle" font-family="Inter, Helvetica, Arial, sans-serif" font-size="26" fill="#1f2937"><tspan x="170" dy="0">format.path?</tspan></text>
<rect x="36" y="296" width="268" height="58" rx="8" fill="#f6f8fb" stroke="#496a9a" stroke-width="1.5"/>
<text x="170" y="325" text-anchor="middle" dominant-baseline="middle" font-family="Inter, Helvetica, Arial, sans-serif" font-size="26" fill="#1f2937"><tspan x="170" dy="0">TableFormatRegistry</tspan></text>
<rect x="340" y="296" width="170" height="58" rx="10" fill="#fff6d9" stroke="#c58c00" stroke-width="1.5"/>
<text x="425" y="325" text-anchor="middle" dominant-baseline="middle" font-family="Inter, Helvetica, Arial, sans-serif" font-size="26" fill="#1f2937"><tspan x="425" dy="0">CTE?</tspan></text>
<rect x="60" y="426" width="220" height="58" rx="8" fill="#f6f8fb" stroke="#496a9a" stroke-width="1.5"/>
<text x="170" y="455" text-anchor="middle" dominant-baseline="middle" font-family="Inter, Helvetica, Arial, sans-serif" font-size="26" fill="#1f2937"><tspan x="170" dy="0">CTE LogicalPlan</tspan></text>
<rect x="321" y="426" width="208" height="58" rx="8" fill="#f6f8fb" stroke="#496a9a" stroke-width="1.5"/>
<text x="425" y="455" text-anchor="middle" dominant-baseline="middle" font-family="Inter, Helvetica, Arial, sans-serif" font-size="26" fill="#1f2937"><tspan x="425" dy="0">CatalogManager</tspan></text>
<rect x="85" y="556" width="170" height="58" rx="10" fill="#fff6d9" stroke="#c58c00" stroke-width="1.5"/>
<text x="170" y="585" text-anchor="middle" dominant-baseline="middle" font-family="Inter, Helvetica, Arial, sans-serif" font-size="26" fill="#1f2937"><tspan x="170" dy="0">Table kind</tspan></text>
<rect x="72" y="670" width="196" height="90" rx="8" fill="#f6f8fb" stroke="#496a9a" stroke-width="1.5"/>
<text x="170" y="699" text-anchor="middle" dominant-baseline="middle" font-family="Inter, Helvetica, Arial, sans-serif" font-size="26" fill="#1f2937"><tspan x="170" dy="0">SourceInfo -&gt;</tspan><tspan x="170" dy="32">table source</tspan></text>
<rect x="303" y="670" width="244" height="90" rx="8" fill="#f6f8fb" stroke="#496a9a" stroke-width="1.5"/>
<text x="425" y="699" text-anchor="middle" dominant-baseline="middle" font-family="Inter, Helvetica, Arial, sans-serif" font-size="26" fill="#1f2937"><tspan x="425" dy="0">parse view SQL -&gt;</tspan><tspan x="425" dy="32">spec -&gt; resolve</tspan></text>
<rect x="588" y="670" width="184" height="90" rx="8" fill="#f6f8fb" stroke="#496a9a" stroke-width="1.5"/>
<text x="680" y="699" text-anchor="middle" dominant-baseline="middle" font-family="Inter, Helvetica, Arial, sans-serif" font-size="26" fill="#1f2937"><tspan x="680" dy="0">clone stored</tspan><tspan x="680" dy="32">LogicalPlan</tspan></text>
</svg>