<svg xmlns="http://www.w3.org/2000/svg" width="900" height="261" viewBox="0 0 1300 377">
<defs>
  <marker id="arrow" markerWidth="10" markerHeight="10" refX="8" refY="3" orient="auto" markerUnits="strokeWidth">
    <path d="M0,0 L0,6 L8,3 z" fill="#5f6f85"/>
  </marker>
</defs>
<rect x="0" y="0" width="1300" height="377" fill="white"/>

<line x1="244" y1="81" x2="297" y2="81" stroke="#5f6f85" stroke-width="1.5" marker-end="url(#arrow)"/>
<line x1="505" y1="81" x2="552" y2="81" stroke="#5f6f85" stroke-width="1.5" marker-end="url(#arrow)"/>
<line x1="760" y1="81" x2="801" y2="81" stroke="#5f6f85" stroke-width="1.5" marker-end="url(#arrow)"/>
<line x1="1021" y1="81" x2="1068" y2="81" stroke="#5f6f85" stroke-width="1.5" marker-end="url(#arrow)"/>
<line x1="1264" y1="81" x2="36" y2="296" stroke="#5f6f85" stroke-width="1.5" marker-end="url(#arrow)"/>
<line x1="256" y1="296" x2="297" y2="296" stroke="#5f6f85" stroke-width="1.5" marker-end="url(#arrow)"/>
<line x1="505" y1="296" x2="516" y2="296" stroke="#5f6f85" stroke-width="1.5" marker-end="url(#arrow)"/>
<rect x="48" y="36" width="196" height="90" rx="8" fill="#f6f8fb" stroke="#496a9a" stroke-width="1.5"/>
<text x="146" y="65" text-anchor="middle" dominant-baseline="middle" font-family="Inter, Helvetica, Arial, sans-serif" font-size="26" fill="#1f2937"><tspan x="146" dy="0">DataFusion</tspan><tspan x="146" dy="32">ColumnarValue</tspan></text>
<rect x="297" y="52" width="208" height="58" rx="8" fill="#f6f8fb" stroke="#496a9a" stroke-width="1.5"/>
<text x="401" y="81" text-anchor="middle" dominant-baseline="middle" font-family="Inter, Helvetica, Arial, sans-serif" font-size="26" fill="#1f2937"><tspan x="401" dy="0">Arrow ArrayRef</tspan></text>
<rect x="552" y="52" width="208" height="58" rx="8" fill="#f6f8fb" stroke="#496a9a" stroke-width="1.5"/>
<text x="656" y="81" text-anchor="middle" dominant-baseline="middle" font-family="Inter, Helvetica, Arial, sans-serif" font-size="26" fill="#1f2937"><tspan x="656" dy="0">PyArrow object</tspan></text>
<rect x="801" y="52" width="220" height="58" rx="8" fill="#f6f8fb" stroke="#496a9a" stroke-width="1.5"/>
<text x="911" y="81" text-anchor="middle" dominant-baseline="middle" font-family="Inter, Helvetica, Arial, sans-serif" font-size="26" fill="#1f2937"><tspan x="911" dy="0">PySpark wrapper</tspan></text>
<rect x="1068" y="52" width="196" height="58" rx="8" fill="#f6f8fb" stroke="#496a9a" stroke-width="1.5"/>
<text x="1166" y="81" text-anchor="middle" dominant-baseline="middle" font-family="Inter, Helvetica, Arial, sans-serif" font-size="26" fill="#1f2937"><tspan x="1166" dy="0">Python result</tspan></text>
<rect x="36" y="267" width="220" height="58" rx="8" fill="#f6f8fb" stroke="#496a9a" stroke-width="1.5"/>
<text x="146" y="296" text-anchor="middle" dominant-baseline="middle" font-family="Inter, Helvetica, Arial, sans-serif" font-size="26" fill="#1f2937"><tspan x="146" dy="0">Arrow ArrayData</tspan></text>
<rect x="297" y="251" width="208" height="90" rx="8" fill="#f6f8fb" stroke="#496a9a" stroke-width="1.5"/>
<text x="401" y="280" text-anchor="middle" dominant-baseline="middle" font-family="Inter, Helvetica, Arial, sans-serif" font-size="26" fill="#1f2937"><tspan x="401" dy="0">cast to output</tspan><tspan x="401" dy="32">type</tspan></text>
<rect x="516" y="267" width="280" height="58" rx="8" fill="#f6f8fb" stroke="#496a9a" stroke-width="1.5"/>
<text x="656" y="296" text-anchor="middle" dominant-baseline="middle" font-family="Inter, Helvetica, Arial, sans-serif" font-size="26" fill="#1f2937"><tspan x="656" dy="0">ColumnarValue::Array</tspan></text>
</svg>