<svg xmlns="http://www.w3.org/2000/svg" width="900" height="806" viewBox="0 0 1324 1186">
<defs>
  <marker id="arrow" markerWidth="10" markerHeight="10" refX="8" refY="3" orient="auto" markerUnits="strokeWidth">
    <path d="M0,0 L0,6 L8,3 z" fill="#5f6f85"/>
  </marker>
</defs>
<rect x="0" y="0" width="1324" height="1186" fill="white"/>

<line x1="176" y1="126" x2="176" y2="182" stroke="#5f6f85" stroke-width="1.5" marker-end="url(#arrow)"/>
<line x1="176" y1="240" x2="176" y2="312" stroke="#5f6f85" stroke-width="1.5" marker-end="url(#arrow)"/>
<line x1="176" y1="370" x2="176" y2="442" stroke="#5f6f85" stroke-width="1.5" marker-end="url(#arrow)"/>
<line x1="176" y1="500" x2="176" y2="556" stroke="#5f6f85" stroke-width="1.5" marker-end="url(#arrow)"/>
<line x1="176" y1="500" x2="431" y2="556" stroke="#5f6f85" stroke-width="1.5" marker-end="url(#arrow)"/>
<line x1="176" y1="500" x2="686" y2="556" stroke="#5f6f85" stroke-width="1.5" marker-end="url(#arrow)"/>
<line x1="176" y1="500" x2="941" y2="572" stroke="#5f6f85" stroke-width="1.5" marker-end="url(#arrow)"/>
<line x1="176" y1="500" x2="1196" y2="556" stroke="#5f6f85" stroke-width="1.5" marker-end="url(#arrow)"/>
<line x1="176" y1="646" x2="176" y2="686" stroke="#5f6f85" stroke-width="1.5" marker-end="url(#arrow)"/>
<line x1="431" y1="646" x2="176" y2="686" stroke="#5f6f85" stroke-width="1.5" marker-end="url(#arrow)"/>
<line x1="686" y1="646" x2="176" y2="686" stroke="#5f6f85" stroke-width="1.5" marker-end="url(#arrow)"/>
<line x1="941" y1="630" x2="176" y2="686" stroke="#5f6f85" stroke-width="1.5" marker-end="url(#arrow)"/>
<line x1="1196" y1="646" x2="176" y2="686" stroke="#5f6f85" stroke-width="1.5" marker-end="url(#arrow)"/>
<line x1="176" y1="776" x2="176" y2="832" stroke="#5f6f85" stroke-width="1.5" marker-end="url(#arrow)"/>
<line x1="176" y1="890" x2="176" y2="962" stroke="#5f6f85" stroke-width="1.5" marker-end="url(#arrow)"/>
<line x1="176" y1="1020" x2="176" y2="1092" stroke="#5f6f85" stroke-width="1.5" marker-end="url(#arrow)"/>
<rect x="60" y="36" width="232" height="90" rx="8" fill="#f6f8fb" stroke="#496a9a" stroke-width="1.5"/>
<text x="176" y="65" text-anchor="middle" dominant-baseline="middle" font-family="Inter, Helvetica, Arial, sans-serif" font-size="26" fill="#1f2937"><tspan x="176" dy="0">Spark Connect or</tspan><tspan x="176" dy="32">SQL</tspan></text>
<rect x="91" y="182" width="170" height="58" rx="8" fill="#f6f8fb" stroke="#496a9a" stroke-width="1.5"/>
<text x="176" y="211" text-anchor="middle" dominant-baseline="middle" font-family="Inter, Helvetica, Arial, sans-serif" font-size="26" fill="#1f2937"><tspan x="176" dy="0">Sail spec</tspan></text>
<rect x="84" y="312" width="184" height="58" rx="8" fill="#f6f8fb" stroke="#496a9a" stroke-width="1.5"/>
<text x="176" y="341" text-anchor="middle" dominant-baseline="middle" font-family="Inter, Helvetica, Arial, sans-serif" font-size="26" fill="#1f2937"><tspan x="176" dy="0">PlanResolver</tspan></text>
<rect x="78" y="442" width="196" height="58" rx="10" fill="#fff6d9" stroke="#c58c00" stroke-width="1.5"/>
<text x="176" y="471" text-anchor="middle" dominant-baseline="middle" font-family="Inter, Helvetica, Arial, sans-serif" font-size="26" fill="#1f2937"><tspan x="176" dy="0">function kind</tspan></text>
<rect x="66" y="556" width="220" height="90" rx="8" fill="#f6f8fb" stroke="#496a9a" stroke-width="1.5"/>
<text x="176" y="585" text-anchor="middle" dominant-baseline="middle" font-family="Inter, Helvetica, Arial, sans-serif" font-size="26" fill="#1f2937"><tspan x="176" dy="0">built-in scalar</tspan><tspan x="176" dy="32">expression</tspan></text>
<rect x="303" y="556" width="256" height="90" rx="8" fill="#f6f8fb" stroke="#496a9a" stroke-width="1.5"/>
<text x="431" y="585" text-anchor="middle" dominant-baseline="middle" font-family="Inter, Helvetica, Arial, sans-serif" font-size="26" fill="#1f2937"><tspan x="431" dy="0">built-in aggregate</tspan><tspan x="431" dy="32">expression</tspan></text>
<rect x="558" y="556" width="256" height="90" rx="8" fill="#f6f8fb" stroke="#496a9a" stroke-width="1.5"/>
<text x="686" y="585" text-anchor="middle" dominant-baseline="middle" font-family="Inter, Helvetica, Arial, sans-serif" font-size="26" fill="#1f2937"><tspan x="686" dy="0">catalog registered</tspan><tspan x="686" dy="32">PySpark UDF</tspan></text>
<rect x="813" y="572" width="256" height="58" rx="8" fill="#f6f8fb" stroke="#496a9a" stroke-width="1.5"/>
<text x="941" y="601" text-anchor="middle" dominant-baseline="middle" font-family="Inter, Helvetica, Arial, sans-serif" font-size="26" fill="#1f2937"><tspan x="941" dy="0">inline PySpark UDF</tspan></text>
<rect x="1104" y="556" width="184" height="90" rx="8" fill="#f6f8fb" stroke="#496a9a" stroke-width="1.5"/>
<text x="1196" y="585" text-anchor="middle" dominant-baseline="middle" font-family="Inter, Helvetica, Arial, sans-serif" font-size="26" fill="#1f2937"><tspan x="1196" dy="0">PySpark UDTF</tspan><tspan x="1196" dy="32">stream UDF</tspan></text>
<rect x="90" y="686" width="172" height="90" rx="8" fill="#f6f8fb" stroke="#496a9a" stroke-width="1.5"/>
<text x="176" y="715" text-anchor="middle" dominant-baseline="middle" font-family="Inter, Helvetica, Arial, sans-serif" font-size="26" fill="#1f2937"><tspan x="176" dy="0">DataFusion</tspan><tspan x="176" dy="32">LogicalPlan</tspan></text>
<rect x="78" y="832" width="196" height="58" rx="8" fill="#f6f8fb" stroke="#496a9a" stroke-width="1.5"/>
<text x="176" y="861" text-anchor="middle" dominant-baseline="middle" font-family="Inter, Helvetica, Arial, sans-serif" font-size="26" fill="#1f2937"><tspan x="176" dy="0">physical plan</tspan></text>
<rect x="36" y="962" width="280" height="58" rx="8" fill="#f6f8fb" stroke="#496a9a" stroke-width="1.5"/>
<text x="176" y="991" text-anchor="middle" dominant-baseline="middle" font-family="Inter, Helvetica, Arial, sans-serif" font-size="26" fill="#1f2937"><tspan x="176" dy="0">RemoteExecutionCodec</tspan></text>
<rect x="48" y="1092" width="256" height="58" rx="8" fill="#f6f8fb" stroke="#496a9a" stroke-width="1.5"/>
<text x="176" y="1121" text-anchor="middle" dominant-baseline="middle" font-family="Inter, Helvetica, Arial, sans-serif" font-size="26" fill="#1f2937"><tspan x="176" dy="0">worker TaskContext</tspan></text>
</svg>