<svg xmlns="http://www.w3.org/2000/svg" width="593" height="780" viewBox="0 0 593 780">
<defs>
  <marker id="arrow" markerWidth="10" markerHeight="10" refX="8" refY="3" orient="auto" markerUnits="strokeWidth">
    <path d="M0,0 L0,6 L8,3 z" fill="#5f6f85"/>
  </marker>
</defs>
<rect x="0" y="0" width="593" height="780" fill="white"/>

<line x1="186" y1="94" x2="186" y2="166" stroke="#5f6f85" stroke-width="1.5" marker-end="url(#arrow)"/>
<line x1="186" y1="224" x2="186" y2="296" stroke="#5f6f85" stroke-width="1.5" marker-end="url(#arrow)"/>
<line x1="186" y1="354" x2="186" y2="426" stroke="#5f6f85" stroke-width="1.5" marker-end="url(#arrow)"/>
<line x1="186" y1="484" x2="186" y2="556" stroke="#5f6f85" stroke-width="1.5" marker-end="url(#arrow)"/><text x="186" y="512" text-anchor="middle" font-family="Inter, Helvetica, Arial, sans-serif" font-size="22" fill="#4b5563">registered PySpark UDF</text>
<line x1="186" y1="484" x2="441" y2="540" stroke="#5f6f85" stroke-width="1.5" marker-end="url(#arrow)"/><text x="313.5" y="504" text-anchor="middle" font-family="Inter, Helvetica, Arial, sans-serif" font-size="22" fill="#4b5563">not found</text>
<line x1="441" y1="630" x2="186" y2="686" stroke="#5f6f85" stroke-width="1.5" marker-end="url(#arrow)"/><text x="313.5" y="650" text-anchor="middle" font-family="Inter, Helvetica, Arial, sans-serif" font-size="22" fill="#4b5563">not found</text>
<line x1="186" y1="614" x2="441" y2="686" stroke="#5f6f85" stroke-width="1.5" marker-end="url(#arrow)"/>
<line x1="441" y1="630" x2="441" y2="686" stroke="#5f6f85" stroke-width="1.5" marker-end="url(#arrow)"/>
<line x1="186" y1="744" x2="441" y2="686" stroke="#5f6f85" stroke-width="1.5" marker-end="url(#arrow)"/>
<rect x="58" y="36" width="256" height="58" rx="8" fill="#f6f8fb" stroke="#496a9a" stroke-width="1.5"/>
<text x="186" y="65" text-anchor="middle" dominant-baseline="middle" font-family="Inter, Helvetica, Arial, sans-serif" font-size="26" fill="#1f2937"><tspan x="186" dy="0">UnresolvedFunction</tspan></text>
<rect x="82" y="166" width="208" height="58" rx="8" fill="#f6f8fb" stroke="#496a9a" stroke-width="1.5"/>
<text x="186" y="195" text-anchor="middle" dominant-baseline="middle" font-family="Inter, Helvetica, Arial, sans-serif" font-size="26" fill="#1f2937"><tspan x="186" dy="0">normalize name</tspan></text>
<rect x="82" y="296" width="208" height="58" rx="8" fill="#f6f8fb" stroke="#496a9a" stroke-width="1.5"/>
<text x="186" y="325" text-anchor="middle" dominant-baseline="middle" font-family="Inter, Helvetica, Arial, sans-serif" font-size="26" fill="#1f2937"><tspan x="186" dy="0">extract kwargs</tspan></text>
<rect x="82" y="426" width="208" height="58" rx="8" fill="#f6f8fb" stroke="#496a9a" stroke-width="1.5"/>
<text x="186" y="455" text-anchor="middle" dominant-baseline="middle" font-family="Inter, Helvetica, Arial, sans-serif" font-size="26" fill="#1f2937"><tspan x="186" dy="0">catalog lookup</tspan></text>
<rect x="36" y="556" width="300" height="58" rx="8" fill="#f6f8fb" stroke="#496a9a" stroke-width="1.5"/>
<text x="186" y="585" text-anchor="middle" dominant-baseline="middle" font-family="Inter, Helvetica, Arial, sans-serif" font-size="26" fill="#1f2937"><tspan x="186" dy="0">resolve_python_udf_expr</tspan></text>
<rect x="325" y="540" width="232" height="90" rx="8" fill="#f6f8fb" stroke="#496a9a" stroke-width="1.5"/>
<text x="441" y="569" text-anchor="middle" dominant-baseline="middle" font-family="Inter, Helvetica, Arial, sans-serif" font-size="26" fill="#1f2937"><tspan x="441" dy="0">built-in</tspan><tspan x="441" dy="32">scalar/generator</tspan></text>
<rect x="58" y="686" width="256" height="58" rx="8" fill="#f6f8fb" stroke="#496a9a" stroke-width="1.5"/>
<text x="186" y="715" text-anchor="middle" dominant-baseline="middle" font-family="Inter, Helvetica, Arial, sans-serif" font-size="26" fill="#1f2937"><tspan x="186" dy="0">built-in aggregate</tspan></text>
<rect x="356" y="686" width="170" height="58" rx="8" fill="#f6f8fb" stroke="#496a9a" stroke-width="1.5"/>
<text x="441" y="715" text-anchor="middle" dominant-baseline="middle" font-family="Inter, Helvetica, Arial, sans-serif" font-size="26" fill="#1f2937"><tspan x="441" dy="0">NamedExpr</tspan></text>
</svg>