<svg xmlns="http://www.w3.org/2000/svg" width="420" height="942" viewBox="0 0 420 942">
<defs>
  <marker id="arrow" markerWidth="10" markerHeight="10" refX="8" refY="3" orient="auto" markerUnits="strokeWidth">
    <path d="M0,0 L0,6 L8,3 z" fill="#5f6f85"/>
  </marker>
</defs>
<rect x="0" y="0" width="420" height="942" fill="white"/>

<line x1="158" y1="126" x2="158" y2="182" stroke="#5f6f85" stroke-width="1.5" marker-end="url(#arrow)"/>
<line x1="158" y1="240" x2="158" y2="296" stroke="#5f6f85" stroke-width="1.5" marker-end="url(#arrow)"/>
<line x1="158" y1="386" x2="158" y2="442" stroke="#5f6f85" stroke-width="1.5" marker-end="url(#arrow)"/>
<line x1="158" y1="500" x2="158" y2="572" stroke="#5f6f85" stroke-width="1.5" marker-end="url(#arrow)"/>
<line x1="158" y1="630" x2="158" y2="686" stroke="#5f6f85" stroke-width="1.5" marker-end="url(#arrow)"/>
<line x1="158" y1="776" x2="158" y2="816" stroke="#5f6f85" stroke-width="1.5" marker-end="url(#arrow)"/>
<rect x="36" y="36" width="244" height="90" rx="8" fill="#f6f8fb" stroke="#496a9a" stroke-width="1.5"/>
<text x="158" y="65" text-anchor="middle" dominant-baseline="middle" font-family="Inter, Helvetica, Arial, sans-serif" font-size="26" fill="#1f2937"><tspan x="158" dy="0">input RecordBatch</tspan><tspan x="158" dy="32">stream</tspan></text>
<rect x="36" y="182" width="244" height="58" rx="8" fill="#f6f8fb" stroke="#496a9a" stroke-width="1.5"/>
<text x="158" y="211" text-anchor="middle" dominant-baseline="middle" font-family="Inter, Helvetica, Arial, sans-serif" font-size="26" fill="#1f2937"><tspan x="158" dy="0">MapPartitionsExec</tspan></text>
<rect x="72" y="296" width="172" height="90" rx="8" fill="#f6f8fb" stroke="#496a9a" stroke-width="1.5"/>
<text x="158" y="325" text-anchor="middle" dominant-baseline="middle" font-family="Inter, Helvetica, Arial, sans-serif" font-size="26" fill="#1f2937"><tspan x="158" dy="0">PySparkUDTF</tspan><tspan x="158" dy="32">StreamUDF</tspan></text>
<rect x="60" y="442" width="196" height="58" rx="8" fill="#f6f8fb" stroke="#496a9a" stroke-width="1.5"/>
<text x="158" y="471" text-anchor="middle" dominant-baseline="middle" font-family="Inter, Helvetica, Arial, sans-serif" font-size="26" fill="#1f2937"><tspan x="158" dy="0">PyInputStream</tspan></text>
<rect x="48" y="572" width="220" height="58" rx="8" fill="#f6f8fb" stroke="#496a9a" stroke-width="1.5"/>
<text x="158" y="601" text-anchor="middle" dominant-baseline="middle" font-family="Inter, Helvetica, Arial, sans-serif" font-size="26" fill="#1f2937"><tspan x="158" dy="0">Python iterator</tspan></text>
<rect x="54" y="686" width="208" height="90" rx="8" fill="#f6f8fb" stroke="#496a9a" stroke-width="1.5"/>
<text x="158" y="715" text-anchor="middle" dominant-baseline="middle" font-family="Inter, Helvetica, Arial, sans-serif" font-size="26" fill="#1f2937"><tspan x="158" dy="0">PyArrow output</tspan><tspan x="158" dy="32">batches</tspan></text>
<rect x="42" y="816" width="232" height="90" rx="8" fill="#f6f8fb" stroke="#496a9a" stroke-width="1.5"/>
<text x="158" y="845" text-anchor="middle" dominant-baseline="middle" font-family="Inter, Helvetica, Arial, sans-serif" font-size="26" fill="#1f2937"><tspan x="158" dy="0">Rust RecordBatch</tspan><tspan x="158" dy="32">stream</tspan></text>
</svg>