<svg xmlns="http://www.w3.org/2000/svg" width="420" height="910" viewBox="0 0 420 910">
<defs>
  <marker id="arrow" markerWidth="10" markerHeight="10" refX="8" refY="3" orient="auto" markerUnits="strokeWidth">
    <path d="M0,0 L0,6 L8,3 z" fill="#5f6f85"/>
  </marker>
</defs>
<rect x="0" y="0" width="420" height="910" fill="white"/>

<line x1="186" y1="94" x2="186" y2="166" stroke="#5f6f85" stroke-width="1.5" marker-end="url(#arrow)"/>
<line x1="186" y1="224" x2="186" y2="296" stroke="#5f6f85" stroke-width="1.5" marker-end="url(#arrow)"/>
<line x1="186" y1="354" x2="186" y2="426" stroke="#5f6f85" stroke-width="1.5" marker-end="url(#arrow)"/>
<line x1="186" y1="484" x2="186" y2="556" stroke="#5f6f85" stroke-width="1.5" marker-end="url(#arrow)"/>
<line x1="186" y1="614" x2="186" y2="686" stroke="#5f6f85" stroke-width="1.5" marker-end="url(#arrow)"/>
<line x1="186" y1="744" x2="186" y2="816" stroke="#5f6f85" stroke-width="1.5" marker-end="url(#arrow)"/>
<rect x="88" y="36" width="196" height="58" rx="8" fill="#f6f8fb" stroke="#496a9a" stroke-width="1.5"/>
<text x="186" y="65" text-anchor="middle" dominant-baseline="middle" font-family="Inter, Helvetica, Arial, sans-serif" font-size="26" fill="#1f2937"><tspan x="186" dy="0">FileWriteNode</tspan></text>
<rect x="36" y="166" width="300" height="58" rx="8" fill="#f6f8fb" stroke="#496a9a" stroke-width="1.5"/>
<text x="186" y="195" text-anchor="middle" dominant-baseline="middle" font-family="Inter, Helvetica, Arial, sans-serif" font-size="26" fill="#1f2937"><tspan x="186" dy="0">ExtensionPhysicalPlanner</tspan></text>
<rect x="36" y="296" width="300" height="58" rx="8" fill="#f6f8fb" stroke="#496a9a" stroke-width="1.5"/>
<text x="186" y="325" text-anchor="middle" dominant-baseline="middle" font-family="Inter, Helvetica, Arial, sans-serif" font-size="26" fill="#1f2937"><tspan x="186" dy="0">create_file_write_physical_plan</tspan></text>
<rect x="101" y="426" width="170" height="58" rx="8" fill="#f6f8fb" stroke="#496a9a" stroke-width="1.5"/>
<text x="186" y="455" text-anchor="middle" dominant-baseline="middle" font-family="Inter, Helvetica, Arial, sans-serif" font-size="26" fill="#1f2937"><tspan x="186" dy="0">SinkInfo</tspan></text>
<rect x="36" y="556" width="300" height="58" rx="8" fill="#f6f8fb" stroke="#496a9a" stroke-width="1.5"/>
<text x="186" y="585" text-anchor="middle" dominant-baseline="middle" font-family="Inter, Helvetica, Arial, sans-serif" font-size="26" fill="#1f2937"><tspan x="186" dy="0">TableFormatRegistry.get(format)</tspan></text>
<rect x="36" y="686" width="300" height="58" rx="8" fill="#f6f8fb" stroke="#496a9a" stroke-width="1.5"/>
<text x="186" y="715" text-anchor="middle" dominant-baseline="middle" font-family="Inter, Helvetica, Arial, sans-serif" font-size="26" fill="#1f2937"><tspan x="186" dy="0">TableFormat.create_writer</tspan></text>
<rect x="88" y="816" width="196" height="58" rx="8" fill="#f6f8fb" stroke="#496a9a" stroke-width="1.5"/>
<text x="186" y="845" text-anchor="middle" dominant-baseline="middle" font-family="Inter, Helvetica, Arial, sans-serif" font-size="26" fill="#1f2937"><tspan x="186" dy="0">ExecutionPlan</tspan></text>
</svg>