<svg xmlns="http://www.w3.org/2000/svg" width="589" height="1218" viewBox="0 0 589 1218">
<defs>
  <marker id="arrow" markerWidth="10" markerHeight="10" refX="8" refY="3" orient="auto" markerUnits="strokeWidth">
    <path d="M0,0 L0,6 L8,3 z" fill="#5f6f85"/>
  </marker>
</defs>
<rect x="0" y="0" width="589" height="1218" fill="white"/>

<line x1="170" y1="126" x2="170" y2="182" stroke="#5f6f85" stroke-width="1.5" marker-end="url(#arrow)"/>
<line x1="170" y1="240" x2="170" y2="312" stroke="#5f6f85" stroke-width="1.5" marker-end="url(#arrow)"/>
<line x1="170" y1="370" x2="170" y2="442" stroke="#5f6f85" stroke-width="1.5" marker-end="url(#arrow)"/>
<line x1="170" y1="500" x2="170" y2="572" stroke="#5f6f85" stroke-width="1.5" marker-end="url(#arrow)"/>
<line x1="170" y1="500" x2="425" y2="556" stroke="#5f6f85" stroke-width="1.5" marker-end="url(#arrow)"/>
<line x1="170" y1="630" x2="170" y2="686" stroke="#5f6f85" stroke-width="1.5" marker-end="url(#arrow)"/>
<line x1="425" y1="646" x2="425" y2="686" stroke="#5f6f85" stroke-width="1.5" marker-end="url(#arrow)"/>
<line x1="170" y1="776" x2="425" y2="686" stroke="#5f6f85" stroke-width="1.5" marker-end="url(#arrow)"/>
<line x1="425" y1="776" x2="170" y2="832" stroke="#5f6f85" stroke-width="1.5" marker-end="url(#arrow)"/>
<line x1="170" y1="890" x2="170" y2="962" stroke="#5f6f85" stroke-width="1.5" marker-end="url(#arrow)"/>
<line x1="170" y1="1020" x2="170" y2="1076" stroke="#5f6f85" stroke-width="1.5" marker-end="url(#arrow)"/>
<line x1="170" y1="1020" x2="425" y2="1060" stroke="#5f6f85" stroke-width="1.5" marker-end="url(#arrow)"/>
<rect x="48" y="36" width="244" height="90" rx="8" fill="#f6f8fb" stroke="#496a9a" stroke-width="1.5"/>
<text x="170" y="65" text-anchor="middle" dominant-baseline="middle" font-family="Inter, Helvetica, Arial, sans-serif" font-size="26" fill="#1f2937"><tspan x="170" dy="0">Spark SQL / Spark</tspan><tspan x="170" dy="32">Connect</tspan></text>
<rect x="85" y="182" width="170" height="58" rx="8" fill="#f6f8fb" stroke="#496a9a" stroke-width="1.5"/>
<text x="170" y="211" text-anchor="middle" dominant-baseline="middle" font-family="Inter, Helvetica, Arial, sans-serif" font-size="26" fill="#1f2937"><tspan x="170" dy="0">Sail spec</tspan></text>
<rect x="78" y="312" width="184" height="58" rx="8" fill="#f6f8fb" stroke="#496a9a" stroke-width="1.5"/>
<text x="170" y="341" text-anchor="middle" dominant-baseline="middle" font-family="Inter, Helvetica, Arial, sans-serif" font-size="26" fill="#1f2937"><tspan x="170" dy="0">PlanResolver</tspan></text>
<rect x="66" y="442" width="208" height="58" rx="10" fill="#fff6d9" stroke="#c58c00" stroke-width="1.5"/>
<text x="170" y="471" text-anchor="middle" dominant-baseline="middle" font-family="Inter, Helvetica, Arial, sans-serif" font-size="26" fill="#1f2937"><tspan x="170" dy="0">read or write?</tspan></text>
<rect x="66" y="572" width="208" height="58" rx="8" fill="#f6f8fb" stroke="#496a9a" stroke-width="1.5"/>
<text x="170" y="601" text-anchor="middle" dominant-baseline="middle" font-family="Inter, Helvetica, Arial, sans-serif" font-size="26" fill="#1f2937"><tspan x="170" dy="0">CatalogManager</tspan></text>
<rect x="297" y="556" width="256" height="90" rx="8" fill="#f6f8fb" stroke="#496a9a" stroke-width="1.5"/>
<text x="425" y="585" text-anchor="middle" dominant-baseline="middle" font-family="Inter, Helvetica, Arial, sans-serif" font-size="26" fill="#1f2937"><tspan x="425" dy="0">direct data source</tspan><tspan x="425" dy="32">format</tspan></text>
<rect x="72" y="686" width="196" height="90" rx="8" fill="#f6f8fb" stroke="#496a9a" stroke-width="1.5"/>
<text x="170" y="715" text-anchor="middle" dominant-baseline="middle" font-family="Inter, Helvetica, Arial, sans-serif" font-size="26" fill="#1f2937"><tspan x="170" dy="0">TableStatus /</tspan><tspan x="170" dy="32">TableKind</tspan></text>
<rect x="327" y="686" width="196" height="90" rx="8" fill="#f6f8fb" stroke="#496a9a" stroke-width="1.5"/>
<text x="425" y="715" text-anchor="middle" dominant-baseline="middle" font-family="Inter, Helvetica, Arial, sans-serif" font-size="26" fill="#1f2937"><tspan x="425" dy="0">SourceInfo or</tspan><tspan x="425" dy="32">SinkInfo</tspan></text>
<rect x="36" y="832" width="268" height="58" rx="8" fill="#f6f8fb" stroke="#496a9a" stroke-width="1.5"/>
<text x="170" y="861" text-anchor="middle" dominant-baseline="middle" font-family="Inter, Helvetica, Arial, sans-serif" font-size="26" fill="#1f2937"><tspan x="170" dy="0">TableFormatRegistry</tspan></text>
<rect x="84" y="962" width="172" height="58" rx="8" fill="#f6f8fb" stroke="#496a9a" stroke-width="1.5"/>
<text x="170" y="991" text-anchor="middle" dominant-baseline="middle" font-family="Inter, Helvetica, Arial, sans-serif" font-size="26" fill="#1f2937"><tspan x="170" dy="0">TableFormat</tspan></text>
<rect x="84" y="1076" width="172" height="90" rx="8" fill="#f6f8fb" stroke="#496a9a" stroke-width="1.5"/>
<text x="170" y="1105" text-anchor="middle" dominant-baseline="middle" font-family="Inter, Helvetica, Arial, sans-serif" font-size="26" fill="#1f2937"><tspan x="170" dy="0">DataFusion</tspan><tspan x="170" dy="32">TableSource</tspan></text>
<rect x="327" y="1060" width="196" height="122" rx="8" fill="#f6f8fb" stroke="#496a9a" stroke-width="1.5"/>
<text x="425" y="1089" text-anchor="middle" dominant-baseline="middle" font-family="Inter, Helvetica, Arial, sans-serif" font-size="26" fill="#1f2937"><tspan x="425" dy="0">DataFusion</tspan><tspan x="425" dy="32">ExecutionPlan</tspan><tspan x="425" dy="32">writer</tspan></text>
</svg>