<svg xmlns="http://www.w3.org/2000/svg" width="577" height="1186" viewBox="0 0 577 1186">
<defs>
  <marker id="arrow" markerWidth="10" markerHeight="10" refX="8" refY="3" orient="auto" markerUnits="strokeWidth">
    <path d="M0,0 L0,6 L8,3 z" fill="#5f6f85"/>
  </marker>
</defs>
<rect x="0" y="0" width="577" height="1186" fill="white"/>

<line x1="164" y1="126" x2="164" y2="182" stroke="#5f6f85" stroke-width="1.5" marker-end="url(#arrow)"/>
<line x1="164" y1="240" x2="164" y2="312" stroke="#5f6f85" stroke-width="1.5" marker-end="url(#arrow)"/>
<line x1="164" y1="370" x2="164" y2="442" stroke="#5f6f85" stroke-width="1.5" marker-end="url(#arrow)"/>
<line x1="164" y1="370" x2="419" y2="442" stroke="#5f6f85" stroke-width="1.5" marker-end="url(#arrow)"/>
<line x1="419" y1="500" x2="164" y2="556" stroke="#5f6f85" stroke-width="1.5" marker-end="url(#arrow)"/>
<line x1="164" y1="646" x2="164" y2="702" stroke="#5f6f85" stroke-width="1.5" marker-end="url(#arrow)"/>
<line x1="164" y1="760" x2="164" y2="816" stroke="#5f6f85" stroke-width="1.5" marker-end="url(#arrow)"/>
<line x1="164" y1="760" x2="419" y2="816" stroke="#5f6f85" stroke-width="1.5" marker-end="url(#arrow)"/>
<line x1="164" y1="500" x2="419" y2="572" stroke="#5f6f85" stroke-width="1.5" marker-end="url(#arrow)"/>
<line x1="164" y1="906" x2="419" y2="572" stroke="#5f6f85" stroke-width="1.5" marker-end="url(#arrow)"/>
<line x1="419" y1="906" x2="164" y2="946" stroke="#5f6f85" stroke-width="1.5" marker-end="url(#arrow)"/>
<line x1="419" y1="630" x2="419" y2="702" stroke="#5f6f85" stroke-width="1.5" marker-end="url(#arrow)"/>
<line x1="164" y1="1036" x2="164" y2="1092" stroke="#5f6f85" stroke-width="1.5" marker-end="url(#arrow)"/>
<line x1="419" y1="760" x2="164" y2="1092" stroke="#5f6f85" stroke-width="1.5" marker-end="url(#arrow)"/>
<rect x="54" y="36" width="220" height="90" rx="8" fill="#f6f8fb" stroke="#496a9a" stroke-width="1.5"/>
<text x="164" y="65" text-anchor="middle" dominant-baseline="middle" font-family="Inter, Helvetica, Arial, sans-serif" font-size="26" fill="#1f2937"><tspan x="164" dy="0">INSERT / SAVE /</tspan><tspan x="164" dy="32">CTAS</tspan></text>
<rect x="48" y="182" width="232" height="58" rx="8" fill="#f6f8fb" stroke="#496a9a" stroke-width="1.5"/>
<text x="164" y="211" text-anchor="middle" dominant-baseline="middle" font-family="Inter, Helvetica, Arial, sans-serif" font-size="26" fill="#1f2937"><tspan x="164" dy="0">WritePlanBuilder</tspan></text>
<rect x="79" y="312" width="170" height="58" rx="10" fill="#fff6d9" stroke="#c58c00" stroke-width="1.5"/>
<text x="164" y="341" text-anchor="middle" dominant-baseline="middle" font-family="Inter, Helvetica, Arial, sans-serif" font-size="26" fill="#1f2937"><tspan x="164" dy="0">target</tspan></text>
<rect x="79" y="442" width="170" height="58" rx="8" fill="#f6f8fb" stroke="#496a9a" stroke-width="1.5"/>
<text x="164" y="471" text-anchor="middle" dominant-baseline="middle" font-family="Inter, Helvetica, Arial, sans-serif" font-size="26" fill="#1f2937"><tspan x="164" dy="0">DataSource</tspan></text>
<rect x="321" y="442" width="196" height="58" rx="8" fill="#f6f8fb" stroke="#496a9a" stroke-width="1.5"/>
<text x="419" y="471" text-anchor="middle" dominant-baseline="middle" font-family="Inter, Helvetica, Arial, sans-serif" font-size="26" fill="#1f2937"><tspan x="419" dy="0">Catalog Table</tspan></text>
<rect x="60" y="556" width="208" height="90" rx="8" fill="#f6f8fb" stroke="#496a9a" stroke-width="1.5"/>
<text x="164" y="585" text-anchor="middle" dominant-baseline="middle" font-family="Inter, Helvetica, Arial, sans-serif" font-size="26" fill="#1f2937"><tspan x="164" dy="0">CatalogManager</tspan><tspan x="164" dy="32">lookup</tspan></text>
<rect x="79" y="702" width="170" height="58" rx="10" fill="#fff6d9" stroke="#c58c00" stroke-width="1.5"/>
<text x="164" y="731" text-anchor="middle" dominant-baseline="middle" font-family="Inter, Helvetica, Arial, sans-serif" font-size="26" fill="#1f2937"><tspan x="164" dy="0">exists?</tspan></text>
<rect x="78" y="816" width="172" height="90" rx="8" fill="#f6f8fb" stroke="#496a9a" stroke-width="1.5"/>
<text x="164" y="845" text-anchor="middle" dominant-baseline="middle" font-family="Inter, Helvetica, Arial, sans-serif" font-size="26" fill="#1f2937"><tspan x="164" dy="0">reuse table</tspan><tspan x="164" dy="32">metadata</tspan></text>
<rect x="297" y="816" width="244" height="90" rx="8" fill="#f6f8fb" stroke="#496a9a" stroke-width="1.5"/>
<text x="419" y="845" text-anchor="middle" dominant-baseline="middle" font-family="Inter, Helvetica, Arial, sans-serif" font-size="26" fill="#1f2937"><tspan x="419" dy="0">build CreateTable</tspan><tspan x="419" dy="32">command</tspan></text>
<rect x="303" y="572" width="232" height="58" rx="8" fill="#f6f8fb" stroke="#496a9a" stroke-width="1.5"/>
<text x="419" y="601" text-anchor="middle" dominant-baseline="middle" font-family="Inter, Helvetica, Arial, sans-serif" font-size="26" fill="#1f2937"><tspan x="419" dy="0">FileWriteOptions</tspan></text>
<rect x="36" y="946" width="256" height="90" rx="8" fill="#f6f8fb" stroke="#496a9a" stroke-width="1.5"/>
<text x="164" y="975" text-anchor="middle" dominant-baseline="middle" font-family="Inter, Helvetica, Arial, sans-serif" font-size="26" fill="#1f2937"><tspan x="164" dy="0">CatalogCommandNode</tspan><tspan x="164" dy="32">precondition</tspan></text>
<rect x="321" y="702" width="196" height="58" rx="8" fill="#f6f8fb" stroke="#496a9a" stroke-width="1.5"/>
<text x="419" y="731" text-anchor="middle" dominant-baseline="middle" font-family="Inter, Helvetica, Arial, sans-serif" font-size="26" fill="#1f2937"><tspan x="419" dy="0">FileWriteNode</tspan></text>
<rect x="78" y="1092" width="172" height="58" rx="8" fill="#f6f8fb" stroke="#496a9a" stroke-width="1.5"/>
<text x="164" y="1121" text-anchor="middle" dominant-baseline="middle" font-family="Inter, Helvetica, Arial, sans-serif" font-size="26" fill="#1f2937"><tspan x="164" dy="0">BarrierNode</tspan></text>
</svg>