<svg xmlns="http://www.w3.org/2000/svg" width="900" height="739" viewBox="0 0 1109 910">
<defs>
  <marker id="arrow" markerWidth="10" markerHeight="10" refX="8" refY="3" orient="auto" markerUnits="strokeWidth">
    <path d="M0,0 L0,6 L8,3 z" fill="#5f6f85"/>
  </marker>
</defs>
<rect x="0" y="0" width="1109" height="910" fill="white"/>

<line x1="186" y1="94" x2="186" y2="150" stroke="#5f6f85" stroke-width="1.5" marker-end="url(#arrow)"/>
<line x1="186" y1="240" x2="186" y2="280" stroke="#5f6f85" stroke-width="1.5" marker-end="url(#arrow)"/><text x="186" y="252" text-anchor="middle" font-family="Inter, Helvetica, Arial, sans-serif" font-size="22" fill="#4b5563">yes, format exists</text>
<line x1="186" y1="240" x2="441" y2="296" stroke="#5f6f85" stroke-width="1.5" marker-end="url(#arrow)"/><text x="313.5" y="260" text-anchor="middle" font-family="Inter, Helvetica, Arial, sans-serif" font-size="22" fill="#4b5563">no</text>
<line x1="441" y1="354" x2="186" y2="426" stroke="#5f6f85" stroke-width="1.5" marker-end="url(#arrow)"/><text x="313.5" y="382" text-anchor="middle" font-family="Inter, Helvetica, Arial, sans-serif" font-size="22" fill="#4b5563">yes</text>
<line x1="441" y1="354" x2="441" y2="426" stroke="#5f6f85" stroke-width="1.5" marker-end="url(#arrow)"/><text x="441" y="382" text-anchor="middle" font-family="Inter, Helvetica, Arial, sans-serif" font-size="22" fill="#4b5563">no</text>
<line x1="441" y1="484" x2="186" y2="556" stroke="#5f6f85" stroke-width="1.5" marker-end="url(#arrow)"/>
<line x1="186" y1="614" x2="186" y2="654" stroke="#5f6f85" stroke-width="1.5" marker-end="url(#arrow)"/>
<line x1="186" y1="614" x2="441" y2="670" stroke="#5f6f85" stroke-width="1.5" marker-end="url(#arrow)"/>
<line x1="186" y1="614" x2="696" y2="654" stroke="#5f6f85" stroke-width="1.5" marker-end="url(#arrow)"/>
<line x1="186" y1="614" x2="951" y2="654" stroke="#5f6f85" stroke-width="1.5" marker-end="url(#arrow)"/>
<line x1="186" y1="776" x2="186" y2="816" stroke="#5f6f85" stroke-width="1.5" marker-end="url(#arrow)"/>
<line x1="441" y1="760" x2="186" y2="816" stroke="#5f6f85" stroke-width="1.5" marker-end="url(#arrow)"/>
<line x1="696" y1="776" x2="186" y2="816" stroke="#5f6f85" stroke-width="1.5" marker-end="url(#arrow)"/>
<line x1="951" y1="776" x2="186" y2="816" stroke="#5f6f85" stroke-width="1.5" marker-end="url(#arrow)"/>
<rect x="82" y="36" width="208" height="58" rx="8" fill="#f6f8fb" stroke="#496a9a" stroke-width="1.5"/>
<text x="186" y="65" text-anchor="middle" dominant-baseline="middle" font-family="Inter, Helvetica, Arial, sans-serif" font-size="26" fill="#1f2937"><tspan x="186" dy="0">ReadNamedTable</tspan></text>
<rect x="100" y="150" width="172" height="90" rx="10" fill="#fff6d9" stroke="#c58c00" stroke-width="1.5"/>
<text x="186" y="179" text-anchor="middle" dominant-baseline="middle" font-family="Inter, Helvetica, Arial, sans-serif" font-size="26" fill="#1f2937"><tspan x="186" dy="0">format.path</tspan><tspan x="186" dy="32">syntax?</tspan></text>
<rect x="58" y="280" width="256" height="90" rx="8" fill="#f6f8fb" stroke="#496a9a" stroke-width="1.5"/>
<text x="186" y="309" text-anchor="middle" dominant-baseline="middle" font-family="Inter, Helvetica, Arial, sans-serif" font-size="26" fill="#1f2937"><tspan x="186" dy="0">direct TableFormat</tspan><tspan x="186" dy="32">source</tspan></text>
<rect x="355" y="296" width="172" height="58" rx="10" fill="#fff6d9" stroke="#c58c00" stroke-width="1.5"/>
<text x="441" y="325" text-anchor="middle" dominant-baseline="middle" font-family="Inter, Helvetica, Arial, sans-serif" font-size="26" fill="#1f2937"><tspan x="441" dy="0">CTE exists?</tspan></text>
<rect x="70" y="426" width="232" height="58" rx="8" fill="#f6f8fb" stroke="#496a9a" stroke-width="1.5"/>
<text x="186" y="455" text-anchor="middle" dominant-baseline="middle" font-family="Inter, Helvetica, Arial, sans-serif" font-size="26" fill="#1f2937"><tspan x="186" dy="0">CTE logical plan</tspan></text>
<rect x="291" y="426" width="300" height="58" rx="8" fill="#f6f8fb" stroke="#496a9a" stroke-width="1.5"/>
<text x="441" y="455" text-anchor="middle" dominant-baseline="middle" font-family="Inter, Helvetica, Arial, sans-serif" font-size="26" fill="#1f2937"><tspan x="441" dy="0">CatalogManager.get_table_or_view</tspan></text>
<rect x="101" y="556" width="170" height="58" rx="10" fill="#fff6d9" stroke="#c58c00" stroke-width="1.5"/>
<text x="186" y="585" text-anchor="middle" dominant-baseline="middle" font-family="Inter, Helvetica, Arial, sans-serif" font-size="26" fill="#1f2937"><tspan x="186" dy="0">TableKind</tspan></text>
<rect x="36" y="654" width="300" height="122" rx="8" fill="#f6f8fb" stroke="#496a9a" stroke-width="1.5"/>
<text x="186" y="683" text-anchor="middle" dominant-baseline="middle" font-family="Inter, Helvetica, Arial, sans-serif" font-size="26" fill="#1f2937"><tspan x="186" dy="0">Table: SourceInfo</tspan><tspan x="186" dy="32">-&gt;</tspan><tspan x="186" dy="32">TableFormat.create_source</tspan></text>
<rect x="313" y="670" width="256" height="90" rx="8" fill="#f6f8fb" stroke="#496a9a" stroke-width="1.5"/>
<text x="441" y="699" text-anchor="middle" dominant-baseline="middle" font-family="Inter, Helvetica, Arial, sans-serif" font-size="26" fill="#1f2937"><tspan x="441" dy="0">View: parse stored</tspan><tspan x="441" dy="32">SQL and resolve</tspan></text>
<rect x="586" y="654" width="220" height="122" rx="8" fill="#f6f8fb" stroke="#496a9a" stroke-width="1.5"/>
<text x="696" y="683" text-anchor="middle" dominant-baseline="middle" font-family="Inter, Helvetica, Arial, sans-serif" font-size="26" fill="#1f2937"><tspan x="696" dy="0">Temporary view:</tspan><tspan x="696" dy="32">stored logical</tspan><tspan x="696" dy="32">plan</tspan></text>
<rect x="829" y="654" width="244" height="122" rx="8" fill="#f6f8fb" stroke="#496a9a" stroke-width="1.5"/>
<text x="951" y="683" text-anchor="middle" dominant-baseline="middle" font-family="Inter, Helvetica, Arial, sans-serif" font-size="26" fill="#1f2937"><tspan x="951" dy="0">Global temp view:</tspan><tspan x="951" dy="32">stored logical</tspan><tspan x="951" dy="32">plan</tspan></text>
<rect x="36" y="816" width="300" height="58" rx="8" fill="#f6f8fb" stroke="#496a9a" stroke-width="1.5"/>
<text x="186" y="845" text-anchor="middle" dominant-baseline="middle" font-family="Inter, Helvetica, Arial, sans-serif" font-size="26" fill="#1f2937"><tspan x="186" dy="0">LogicalPlan::TableScan</tspan></text>
</svg>