<svg xmlns="http://www.w3.org/2000/svg" width="420" height="1462" viewBox="0 0 420 1462">
<defs>
  <marker id="arrow" markerWidth="10" markerHeight="10" refX="8" refY="3" orient="auto" markerUnits="strokeWidth">
    <path d="M0,0 L0,6 L8,3 z" fill="#5f6f85"/>
  </marker>
</defs>
<rect x="0" y="0" width="420" height="1462" fill="white"/>
<rect x="73" y="150" width="226" height="374" rx="10" fill="#eef6ff" stroke="#9bc3e6" stroke-dasharray="5 4"/>
<text x="85" y="174" font-family="Inter, Helvetica, Arial, sans-serif" font-size="24" font-weight="700" fill="#315a86">Plan-time boundary</text>
<rect x="73" y="930" width="226" height="504" rx="10" fill="#eef6ff" stroke="#9bc3e6" stroke-dasharray="5 4"/>
<text x="85" y="954" font-family="Inter, Helvetica, Arial, sans-serif" font-size="24" font-weight="700" fill="#315a86">Execution-time boundary</text>
<line x1="186" y1="126" x2="186" y2="166" stroke="#5f6f85" stroke-width="1.5" marker-end="url(#arrow)"/>
<line x1="186" y1="256" x2="186" y2="296" stroke="#5f6f85" stroke-width="1.5" marker-end="url(#arrow)"/>
<line x1="186" y1="386" x2="186" y2="442" stroke="#5f6f85" stroke-width="1.5" marker-end="url(#arrow)"/>
<line x1="186" y1="500" x2="186" y2="572" stroke="#5f6f85" stroke-width="1.5" marker-end="url(#arrow)"/>
<line x1="186" y1="630" x2="186" y2="686" stroke="#5f6f85" stroke-width="1.5" marker-end="url(#arrow)"/>
<line x1="186" y1="776" x2="186" y2="816" stroke="#5f6f85" stroke-width="1.5" marker-end="url(#arrow)"/>
<line x1="186" y1="906" x2="186" y2="962" stroke="#5f6f85" stroke-width="1.5" marker-end="url(#arrow)"/>
<line x1="186" y1="1020" x2="186" y2="1092" stroke="#5f6f85" stroke-width="1.5" marker-end="url(#arrow)"/>
<line x1="186" y1="1150" x2="186" y2="1206" stroke="#5f6f85" stroke-width="1.5" marker-end="url(#arrow)"/>
<line x1="186" y1="1296" x2="186" y2="1336" stroke="#5f6f85" stroke-width="1.5" marker-end="url(#arrow)"/>
<rect x="82" y="36" width="208" height="90" rx="8" fill="#f6f8fb" stroke="#496a9a" stroke-width="1.5"/>
<text x="186" y="65" text-anchor="middle" dominant-baseline="middle" font-family="Inter, Helvetica, Arial, sans-serif" font-size="26" fill="#1f2937"><tspan x="186" dy="0">PySpark</tspan><tspan x="186" dy="32">spatial_join()</tspan></text>
<rect x="36" y="166" width="300" height="90" rx="8" fill="#f6f8fb" stroke="#496a9a" stroke-width="1.5"/>
<text x="186" y="195" text-anchor="middle" dominant-baseline="middle" font-family="Inter, Helvetica, Arial, sans-serif" font-size="26" fill="#1f2937"><tspan x="186" dy="0">Spark</tspan><tspan x="186" dy="32">Connect&lt;br/&gt;Relation.extension</tspan></text>
<rect x="36" y="296" width="300" height="90" rx="8" fill="#f6f8fb" stroke="#496a9a" stroke-width="1.5"/>
<text x="186" y="325" text-anchor="middle" dominant-baseline="middle" font-family="Inter, Helvetica, Arial, sans-serif" font-size="26" fill="#1f2937"><tspan x="186" dy="0">SparkConnectExtensionDispatcher&lt;br/&gt;type_url:</tspan><tspan x="186" dy="32">sedona/SpatialJoin</tspan></text>
<rect x="36" y="442" width="300" height="58" rx="8" fill="#f6f8fb" stroke="#496a9a" stroke-width="1.5"/>
<text x="186" y="471" text-anchor="middle" dominant-baseline="middle" font-family="Inter, Helvetica, Arial, sans-serif" font-size="26" fill="#1f2937"><tspan x="186" dy="0">SpatialJoinRelationHandler::resolve</tspan></text>
<rect x="36" y="572" width="300" height="58" rx="8" fill="#f6f8fb" stroke="#496a9a" stroke-width="1.5"/>
<text x="186" y="601" text-anchor="middle" dominant-baseline="middle" font-family="Inter, Helvetica, Arial, sans-serif" font-size="26" fill="#1f2937"><tspan x="186" dy="0">spec::QueryNode::Extension&lt;br/&gt;SpatialJoinNode</tspan></text>
<rect x="100" y="686" width="172" height="90" rx="8" fill="#f6f8fb" stroke="#496a9a" stroke-width="1.5"/>
<text x="186" y="715" text-anchor="middle" dominant-baseline="middle" font-family="Inter, Helvetica, Arial, sans-serif" font-size="26" fill="#1f2937"><tspan x="186" dy="0">DataFusion</tspan><tspan x="186" dy="32">LogicalPlan</tspan></text>
<rect x="36" y="816" width="300" height="90" rx="8" fill="#f6f8fb" stroke="#496a9a" stroke-width="1.5"/>
<text x="186" y="845" text-anchor="middle" dominant-baseline="middle" font-family="Inter, Helvetica, Arial, sans-serif" font-size="26" fill="#1f2937"><tspan x="186" dy="0">MergeSpatialPredicateIntoJoin&lt;br/&gt;optimizer</tspan><tspan x="186" dy="32">rule</tspan></text>
<rect x="36" y="962" width="300" height="58" rx="8" fill="#f6f8fb" stroke="#496a9a" stroke-width="1.5"/>
<text x="186" y="991" text-anchor="middle" dominant-baseline="middle" font-family="Inter, Helvetica, Arial, sans-serif" font-size="26" fill="#1f2937"><tspan x="186" dy="0">SpatialJoinExtensionPlanner</tspan></text>
<rect x="76" y="1092" width="220" height="58" rx="8" fill="#f6f8fb" stroke="#496a9a" stroke-width="1.5"/>
<text x="186" y="1121" text-anchor="middle" dominant-baseline="middle" font-family="Inter, Helvetica, Arial, sans-serif" font-size="26" fill="#1f2937"><tspan x="186" dy="0">SpatialJoinExec</tspan></text>
<rect x="52" y="1206" width="268" height="90" rx="8" fill="#f6f8fb" stroke="#496a9a" stroke-width="1.5"/>
<text x="186" y="1235" text-anchor="middle" dominant-baseline="middle" font-family="Inter, Helvetica, Arial, sans-serif" font-size="26" fill="#1f2937"><tspan x="186" dy="0">SedonaPhysicalCodec</tspan><tspan x="186" dy="32">encode</tspan></text>
<rect x="64" y="1336" width="244" height="90" rx="8" fill="#f6f8fb" stroke="#496a9a" stroke-width="1.5"/>
<text x="186" y="1365" text-anchor="middle" dominant-baseline="middle" font-family="Inter, Helvetica, Arial, sans-serif" font-size="26" fill="#1f2937"><tspan x="186" dy="0">worker decode and</tspan><tspan x="186" dy="32">execute</tspan></text>
</svg>