<svg xmlns="http://www.w3.org/2000/svg" width="900" height="417" viewBox="0 0 1230 570">
<defs>
  <marker id="arrow" markerWidth="10" markerHeight="10" refX="8" refY="3" orient="auto" markerUnits="strokeWidth">
    <path d="M0,0 L0,6 L8,3 z" fill="#5f6f85"/>
  </marker>
</defs>
<rect x="0" y="0" width="1230" height="570" fill="white"/>

<line x1="145" y1="70" x2="215.5" y2="70" stroke="#5f6f85" stroke-width="1.5" marker-end="url(#arrow)"/><text x="180.25" y="64" text-anchor="middle" font-family="Inter, Helvetica, Arial, sans-serif" font-size="11" fill="#4b5563">Spark Connect gRPC</text>
<line x1="384.5" y1="70" x2="455" y2="70" stroke="#5f6f85" stroke-width="1.5" marker-end="url(#arrow)"/>
<line x1="605" y1="70" x2="685" y2="70" stroke="#5f6f85" stroke-width="1.5" marker-end="url(#arrow)"/>
<line x1="835" y1="70" x2="890.5" y2="70" stroke="#5f6f85" stroke-width="1.5" marker-end="url(#arrow)"/>
<line x1="1089.5" y1="70" x2="-29.5" y2="245" stroke="#5f6f85" stroke-width="1.5" marker-end="url(#arrow)"/>
<line x1="169.5" y1="245" x2="193" y2="245" stroke="#5f6f85" stroke-width="1.5" marker-end="url(#arrow)"/>
<line x1="407" y1="245" x2="455" y2="245" stroke="#5f6f85" stroke-width="1.5" marker-end="url(#arrow)"/>
<line x1="605" y1="245" x2="685" y2="245" stroke="#5f6f85" stroke-width="1.5" marker-end="url(#arrow)"/><text x="645" y="239" text-anchor="middle" font-family="Inter, Helvetica, Arial, sans-serif" font-size="11" fill="#4b5563">local</text>
<line x1="605" y1="245" x2="668" y2="350" stroke="#5f6f85" stroke-width="1.5" marker-end="url(#arrow)"/><text x="636.5" y="291.5" text-anchor="middle" font-family="Inter, Helvetica, Arial, sans-serif" font-size="11" fill="#4b5563">cluster</text>
<line x1="852" y1="350" x2="915" y2="245" stroke="#5f6f85" stroke-width="1.5" marker-end="url(#arrow)"/>
<line x1="1065" y1="245" x2="-5" y2="420" stroke="#5f6f85" stroke-width="1.5" marker-end="url(#arrow)"/>
<line x1="145" y1="420" x2="208" y2="420" stroke="#5f6f85" stroke-width="1.5" marker-end="url(#arrow)"/>
<line x1="835" y1="245" x2="901.75" y2="350" stroke="#5f6f85" stroke-width="1.5" marker-end="url(#arrow)"/>
<line x1="392" y1="420" x2="901.75" y2="350" stroke="#5f6f85" stroke-width="1.5" marker-end="url(#arrow)"/>
<line x1="1078.25" y1="350" x2="-5" y2="70" stroke="#5f6f85" stroke-width="1.5" marker-end="url(#arrow)"/><text x="536.625" y="204" text-anchor="middle" font-family="Inter, Helvetica, Arial, sans-serif" font-size="11" fill="#4b5563">Spark Connect ArrowBatch</text>
<rect x="-5" y="44.5" width="150" height="51" rx="8" fill="#f6f8fb" stroke="#496a9a" stroke-width="1.5"/>
<text x="70" y="70" text-anchor="middle" dominant-baseline="middle" font-family="Inter, Helvetica, Arial, sans-serif" font-size="13" fill="#1f2937"><tspan x="70" dy="0">PySpark client</tspan></text>
<rect x="215.5" y="44.5" width="169" height="51" rx="8" fill="#f6f8fb" stroke="#496a9a" stroke-width="1.5"/>
<text x="300" y="70" text-anchor="middle" dominant-baseline="middle" font-family="Inter, Helvetica, Arial, sans-serif" font-size="13" fill="#1f2937"><tspan x="300" dy="0">sail-spark-connect</tspan></text>
<rect x="455" y="44.5" width="150" height="51" rx="8" fill="#f6f8fb" stroke="#496a9a" stroke-width="1.5"/>
<text x="530" y="70" text-anchor="middle" dominant-baseline="middle" font-family="Inter, Helvetica, Arial, sans-serif" font-size="13" fill="#1f2937"><tspan x="530" dy="0">Sail spec</tspan></text>
<rect x="685" y="44.5" width="150" height="51" rx="8" fill="#f6f8fb" stroke="#496a9a" stroke-width="1.5"/>
<text x="760" y="70" text-anchor="middle" dominant-baseline="middle" font-family="Inter, Helvetica, Arial, sans-serif" font-size="13" fill="#1f2937"><tspan x="760" dy="0">PlanResolver</tspan></text>
<rect x="890.5" y="44.5" width="199" height="51" rx="8" fill="#f6f8fb" stroke="#496a9a" stroke-width="1.5"/>
<text x="990" y="70" text-anchor="middle" dominant-baseline="middle" font-family="Inter, Helvetica, Arial, sans-serif" font-size="13" fill="#1f2937"><tspan x="990" dy="0">DataFusion LogicalPlan</tspan></text>
<rect x="-29.5" y="211" width="199" height="68" rx="8" fill="#f6f8fb" stroke="#496a9a" stroke-width="1.5"/>
<text x="70" y="237" text-anchor="middle" dominant-baseline="middle" font-family="Inter, Helvetica, Arial, sans-serif" font-size="13" fill="#1f2937"><tspan x="70" dy="0">Analyzer and optimizer</tspan><tspan x="70" dy="17">rules</tspan></text>
<rect x="193" y="219.5" width="214" height="51" rx="8" fill="#f6f8fb" stroke="#496a9a" stroke-width="1.5"/>
<text x="300" y="245" text-anchor="middle" dominant-baseline="middle" font-family="Inter, Helvetica, Arial, sans-serif" font-size="13" fill="#1f2937"><tspan x="300" dy="0">DataFusion ExecutionPlan</tspan></text>
<rect x="455" y="219.5" width="150" height="51" rx="10" fill="#fff6d9" stroke="#c58c00" stroke-width="1.5"/>
<text x="530" y="245" text-anchor="middle" dominant-baseline="middle" font-family="Inter, Helvetica, Arial, sans-serif" font-size="13" fill="#1f2937"><tspan x="530" dy="0">Execution mode</tspan></text>
<rect x="685" y="219.5" width="150" height="51" rx="8" fill="#f6f8fb" stroke="#496a9a" stroke-width="1.5"/>
<text x="760" y="245" text-anchor="middle" dominant-baseline="middle" font-family="Inter, Helvetica, Arial, sans-serif" font-size="13" fill="#1f2937"><tspan x="760" dy="0">LocalJobRunner</tspan></text>
<rect x="668" y="316" width="184" height="68" rx="8" fill="#f6f8fb" stroke="#496a9a" stroke-width="1.5"/>
<text x="760" y="342" text-anchor="middle" dominant-baseline="middle" font-family="Inter, Helvetica, Arial, sans-serif" font-size="13" fill="#1f2937"><tspan x="760" dy="0">JobGraph: stages and</tspan><tspan x="760" dy="17">tasks</tspan></text>
<rect x="915" y="219.5" width="150" height="51" rx="8" fill="#f6f8fb" stroke="#496a9a" stroke-width="1.5"/>
<text x="990" y="245" text-anchor="middle" dominant-baseline="middle" font-family="Inter, Helvetica, Arial, sans-serif" font-size="13" fill="#1f2937"><tspan x="990" dy="0">Driver actor</tspan></text>
<rect x="-5" y="394.5" width="150" height="51" rx="8" fill="#f6f8fb" stroke="#496a9a" stroke-width="1.5"/>
<text x="70" y="420" text-anchor="middle" dominant-baseline="middle" font-family="Inter, Helvetica, Arial, sans-serif" font-size="13" fill="#1f2937"><tspan x="70" dy="0">Worker actors</tspan></text>
<rect x="208" y="386" width="184" height="68" rx="8" fill="#f6f8fb" stroke="#496a9a" stroke-width="1.5"/>
<text x="300" y="412" text-anchor="middle" dominant-baseline="middle" font-family="Inter, Helvetica, Arial, sans-serif" font-size="13" fill="#1f2937"><tspan x="300" dy="0">Arrow Flight shuffle</tspan><tspan x="300" dy="17">streams</tspan></text>
<rect x="901.75" y="324.5" width="176.5" height="51" rx="8" fill="#f6f8fb" stroke="#496a9a" stroke-width="1.5"/>
<text x="990" y="350" text-anchor="middle" dominant-baseline="middle" font-family="Inter, Helvetica, Arial, sans-serif" font-size="13" fill="#1f2937"><tspan x="990" dy="0">Arrow RecordBatches</tspan></text>
</svg>