<svg xmlns="http://www.w3.org/2000/svg" width="900" height="161" viewBox="0 0 1230 220">
<defs>
  <marker id="arrow" markerWidth="10" markerHeight="10" refX="8" refY="3" orient="auto" markerUnits="strokeWidth">
    <path d="M0,0 L0,6 L8,3 z" fill="#5f6f85"/>
  </marker>
</defs>
<rect x="0" y="0" width="1230" height="220" fill="white"/>

<line x1="169.5" y1="70" x2="200.5" y2="70" stroke="#5f6f85" stroke-width="1.5" marker-end="url(#arrow)"/>
<line x1="399.5" y1="70" x2="423" y2="70" stroke="#5f6f85" stroke-width="1.5" marker-end="url(#arrow)"/>
<line x1="637" y1="70" x2="671.75" y2="70" stroke="#5f6f85" stroke-width="1.5" marker-end="url(#arrow)"/>
<line x1="848.25" y1="70" x2="915" y2="70" stroke="#5f6f85" stroke-width="1.5" marker-end="url(#arrow)"/>
<rect x="-29.5" y="44.5" width="199" height="51" rx="8" fill="#f6f8fb" stroke="#496a9a" stroke-width="1.5"/>
<text x="70" y="70" text-anchor="middle" dominant-baseline="middle" font-family="Inter, Helvetica, Arial, sans-serif" font-size="13" fill="#1f2937"><tspan x="70" dy="0">DataFusion RecordBatch</tspan></text>
<rect x="200.5" y="44.5" width="199" height="51" rx="8" fill="#f6f8fb" stroke="#496a9a" stroke-width="1.5"/>
<text x="300" y="70" text-anchor="middle" dominant-baseline="middle" font-family="Inter, Helvetica, Arial, sans-serif" font-size="13" fill="#1f2937"><tspan x="300" dy="0">Arrow IPC StreamWriter</tspan></text>
<rect x="423" y="44.5" width="214" height="51" rx="8" fill="#f6f8fb" stroke="#496a9a" stroke-width="1.5"/>
<text x="530" y="70" text-anchor="middle" dominant-baseline="middle" font-family="Inter, Helvetica, Arial, sans-serif" font-size="13" fill="#1f2937"><tspan x="530" dy="0">Spark Connect ArrowBatch</tspan></text>
<rect x="671.75" y="44.5" width="176.5" height="51" rx="8" fill="#f6f8fb" stroke="#496a9a" stroke-width="1.5"/>
<text x="760" y="70" text-anchor="middle" dominant-baseline="middle" font-family="Inter, Helvetica, Arial, sans-serif" font-size="13" fill="#1f2937"><tspan x="760" dy="0">ExecutePlanResponse</tspan></text>
<rect x="915" y="44.5" width="150" height="51" rx="8" fill="#f6f8fb" stroke="#496a9a" stroke-width="1.5"/>
<text x="990" y="70" text-anchor="middle" dominant-baseline="middle" font-family="Inter, Helvetica, Arial, sans-serif" font-size="13" fill="#1f2937"><tspan x="990" dy="0">PySpark client</tspan></text>
</svg>