<svg xmlns="http://www.w3.org/2000/svg" width="900" height="293" viewBox="0 0 1000 325">
<defs>
  <marker id="arrow" markerWidth="10" markerHeight="10" refX="8" refY="3" orient="auto" markerUnits="strokeWidth">
    <path d="M0,0 L0,6 L8,3 z" fill="#5f6f85"/>
  </marker>
</defs>
<rect x="0" y="0" width="1000" height="325" fill="white"/>

<line x1="145" y1="70" x2="196.75" y2="70" stroke="#5f6f85" stroke-width="1.5" marker-end="url(#arrow)"/>
<line x1="403.25" y1="70" x2="449.25" y2="175" stroke="#5f6f85" stroke-width="1.5" marker-end="url(#arrow)"/>
<line x1="403.25" y1="70" x2="453" y2="70" stroke="#5f6f85" stroke-width="1.5" marker-end="url(#arrow)"/>
<line x1="607" y1="70" x2="660.5" y2="70" stroke="#5f6f85" stroke-width="1.5" marker-end="url(#arrow)"/>
<line x1="859.5" y1="70" x2="-5" y2="70" stroke="#5f6f85" stroke-width="1.5" marker-end="url(#arrow)"/>
<rect x="-5" y="44.5" width="150" height="51" rx="8" fill="#f6f8fb" stroke="#496a9a" stroke-width="1.5"/>
<text x="70" y="70" text-anchor="middle" dominant-baseline="middle" font-family="Inter, Helvetica, Arial, sans-serif" font-size="13" fill="#1f2937"><tspan x="70" dy="0">Actor message</tspan></text>
<rect x="196.75" y="44.5" width="206.5" height="51" rx="8" fill="#f6f8fb" stroke="#496a9a" stroke-width="1.5"/>
<text x="300" y="70" text-anchor="middle" dominant-baseline="middle" font-family="Inter, Helvetica, Arial, sans-serif" font-size="13" fill="#1f2937"><tspan x="300" dy="0">receive() mutates state</tspan></text>
<rect x="453" y="44.5" width="154" height="51" rx="8" fill="#f6f8fb" stroke="#496a9a" stroke-width="1.5"/>
<text x="530" y="70" text-anchor="middle" dominant-baseline="middle" font-family="Inter, Helvetica, Arial, sans-serif" font-size="13" fill="#1f2937"><tspan x="530" dy="0">spawn async work</tspan></text>
<rect x="660.5" y="44.5" width="199" height="51" rx="8" fill="#f6f8fb" stroke="#496a9a" stroke-width="1.5"/>
<text x="760" y="70" text-anchor="middle" dominant-baseline="middle" font-family="Inter, Helvetica, Arial, sans-serif" font-size="13" fill="#1f2937"><tspan x="760" dy="0">send follow-up message</tspan></text>
<rect x="449.25" y="149.5" width="161.5" height="51" rx="8" fill="#f6f8fb" stroke="#496a9a" stroke-width="1.5"/>
<text x="530" y="175" text-anchor="middle" dominant-baseline="middle" font-family="Inter, Helvetica, Arial, sans-serif" font-size="13" fill="#1f2937"><tspan x="530" dy="0">actor-owned state</tspan></text>
</svg>