<svg xmlns="http://www.w3.org/2000/svg" width="770" height="430" viewBox="0 0 770 430">
<defs>
  <marker id="arrow" markerWidth="10" markerHeight="10" refX="8" refY="3" orient="auto" markerUnits="strokeWidth">
    <path d="M0,0 L0,6 L8,3 z" fill="#5f6f85"/>
  </marker>
</defs>
<rect x="0" y="0" width="770" height="430" fill="white"/>

<line x1="150.75" y1="70" x2="196.75" y2="70" stroke="#5f6f85" stroke-width="1.5" marker-end="url(#arrow)"/>
<line x1="150.75" y1="175" x2="196.75" y2="70" stroke="#5f6f85" stroke-width="1.5" marker-end="url(#arrow)"/>
<line x1="150.75" y1="280" x2="196.75" y2="70" stroke="#5f6f85" stroke-width="1.5" marker-end="url(#arrow)"/>
<line x1="403.25" y1="70" x2="430.5" y2="70" stroke="#5f6f85" stroke-width="1.5" marker-end="url(#arrow)"/>
<rect x="-10.75" y="44.5" width="161.5" height="51" rx="8" fill="#f6f8fb" stroke="#496a9a" stroke-width="1.5"/>
<text x="70" y="70" text-anchor="middle" dominant-baseline="middle" font-family="Inter, Helvetica, Arial, sans-serif" font-size="13" fill="#1f2937"><tspan x="70" dy="0">producer stream A</tspan></text>
<rect x="196.75" y="44.5" width="206.5" height="51" rx="8" fill="#f6f8fb" stroke="#496a9a" stroke-width="1.5"/>
<text x="300" y="70" text-anchor="middle" dominant-baseline="middle" font-family="Inter, Helvetica, Arial, sans-serif" font-size="13" fill="#1f2937"><tspan x="300" dy="0">MergedRecordBatchStream</tspan></text>
<rect x="-10.75" y="149.5" width="161.5" height="51" rx="8" fill="#f6f8fb" stroke="#496a9a" stroke-width="1.5"/>
<text x="70" y="175" text-anchor="middle" dominant-baseline="middle" font-family="Inter, Helvetica, Arial, sans-serif" font-size="13" fill="#1f2937"><tspan x="70" dy="0">producer stream B</tspan></text>
<rect x="-10.75" y="254.5" width="161.5" height="51" rx="8" fill="#f6f8fb" stroke="#496a9a" stroke-width="1.5"/>
<text x="70" y="280" text-anchor="middle" dominant-baseline="middle" font-family="Inter, Helvetica, Arial, sans-serif" font-size="13" fill="#1f2937"><tspan x="70" dy="0">producer stream C</tspan></text>
<rect x="430.5" y="44.5" width="199" height="51" rx="8" fill="#f6f8fb" stroke="#496a9a" stroke-width="1.5"/>
<text x="530" y="70" text-anchor="middle" dominant-baseline="middle" font-family="Inter, Helvetica, Arial, sans-serif" font-size="13" fill="#1f2937"><tspan x="530" dy="0">ShuffleReadExec output</tspan></text>
</svg>