<svg xmlns="http://www.w3.org/2000/svg" width="665" height="528" viewBox="0 0 665 528">
<defs>
  <marker id="arrow" markerWidth="10" markerHeight="10" refX="8" refY="3" orient="auto" markerUnits="strokeWidth">
    <path d="M0,0 L0,6 L8,3 z" fill="#5f6f85"/>
  </marker>
</defs>
<rect x="0" y="0" width="665" height="528" fill="white"/>
<rect x="8" y="25" width="124" height="30" rx="8" fill="#f6f8fb" stroke="#496a9a"/>
<text x="70" y="44" text-anchor="middle" font-family="Inter, Helvetica, Arial, sans-serif" font-size="12" fill="#1f2937">Client</text>
<line x1="70" y1="55" x2="70" y2="473" stroke="#b5bdc8" stroke-dasharray="4 4"/>
<rect x="8" y="473" width="124" height="30" rx="8" fill="#f6f8fb" stroke="#496a9a"/>
<text x="70" y="492" text-anchor="middle" font-family="Inter, Helvetica, Arial, sans-serif" font-size="12" fill="#1f2937">Client</text>
<rect x="183" y="25" width="124" height="30" rx="8" fill="#f6f8fb" stroke="#496a9a"/>
<text x="245" y="44" text-anchor="middle" font-family="Inter, Helvetica, Arial, sans-serif" font-size="12" fill="#1f2937">Driver</text>
<line x1="245" y1="55" x2="245" y2="473" stroke="#b5bdc8" stroke-dasharray="4 4"/>
<rect x="183" y="473" width="124" height="30" rx="8" fill="#f6f8fb" stroke="#496a9a"/>
<text x="245" y="492" text-anchor="middle" font-family="Inter, Helvetica, Arial, sans-serif" font-size="12" fill="#1f2937">Driver</text>
<rect x="358" y="25" width="124" height="30" rx="8" fill="#f6f8fb" stroke="#496a9a"/>
<text x="420" y="44" text-anchor="middle" font-family="Inter, Helvetica, Arial, sans-serif" font-size="12" fill="#1f2937">Codec</text>
<line x1="420" y1="55" x2="420" y2="473" stroke="#b5bdc8" stroke-dasharray="4 4"/>
<rect x="358" y="473" width="124" height="30" rx="8" fill="#f6f8fb" stroke="#496a9a"/>
<text x="420" y="492" text-anchor="middle" font-family="Inter, Helvetica, Arial, sans-serif" font-size="12" fill="#1f2937">Codec</text>
<rect x="533" y="25" width="124" height="30" rx="8" fill="#f6f8fb" stroke="#496a9a"/>
<text x="595" y="44" text-anchor="middle" font-family="Inter, Helvetica, Arial, sans-serif" font-size="12" fill="#1f2937">Worker</text>
<line x1="595" y1="55" x2="595" y2="473" stroke="#b5bdc8" stroke-dasharray="4 4"/>
<rect x="533" y="473" width="124" height="30" rx="8" fill="#f6f8fb" stroke="#496a9a"/>
<text x="595" y="492" text-anchor="middle" font-family="Inter, Helvetica, Arial, sans-serif" font-size="12" fill="#1f2937">Worker</text>
<line x1="82" y1="90" x2="233" y2="90" stroke="#5f6f85" stroke-width="1.5"  marker-end="url(#arrow)"/>
<text x="157.5" y="83" text-anchor="middle" font-family="Inter, Helvetica, Arial, sans-serif" font-size="11" fill="#374151">unresolved function call</text>
<path d="M 245 148 C 315 148, 315 176, 245 176" fill="none" stroke="#5f6f85" stroke-width="1.5" marker-end="url(#arrow)"/>
<text x="319" y="164" font-family="Inter, Helvetica, Arial, sans-serif" font-size="11" fill="#374151">resolve to DataFusion UDF expression</text>
<line x1="257" y1="206" x2="408" y2="206" stroke="#5f6f85" stroke-width="1.5"  marker-end="url(#arrow)"/>
<text x="332.5" y="199" text-anchor="middle" font-family="Inter, Helvetica, Arial, sans-serif" font-size="11" fill="#374151">encode physical plan</text>
<line x1="432" y1="264" x2="583" y2="264" stroke="#5f6f85" stroke-width="1.5" stroke-dasharray="5 4" marker-end="url(#arrow)"/>
<text x="507.5" y="257" text-anchor="middle" font-family="Inter, Helvetica, Arial, sans-serif" font-size="11" fill="#374151">bytes</text>
<line x1="583" y1="322" x2="432" y2="322" stroke="#5f6f85" stroke-width="1.5"  marker-end="url(#arrow)"/>
<text x="507.5" y="315" text-anchor="middle" font-family="Inter, Helvetica, Arial, sans-serif" font-size="11" fill="#374151">decode physical plan</text>
<path d="M 595 380 C 665 380, 665 408, 595 408" fill="none" stroke="#5f6f85" stroke-width="1.5" marker-end="url(#arrow)"/>
<text x="669" y="396" font-family="Inter, Helvetica, Arial, sans-serif" font-size="11" fill="#374151">execute UDF on Arrow arrays</text>
</svg>