<svg xmlns="http://www.w3.org/2000/svg" width="420" height="1270" viewBox="0 0 420 1270">
<defs>
  <marker id="arrow" markerWidth="10" markerHeight="10" refX="8" refY="3" orient="auto" markerUnits="strokeWidth">
    <path d="M0,0 L0,6 L8,3 z" fill="#5f6f85"/>
  </marker>
</defs>
<rect x="0" y="0" width="420" height="1270" fill="white"/>
<rect x="-43" y="114" width="226" height="324" rx="10" fill="#eef6ff" stroke="#9bc3e6" stroke-dasharray="5 4"/>
<text x="-31" y="132" font-family="Inter, Helvetica, Arial, sans-serif" font-size="12" font-weight="700" fill="#315a86">Plan-time boundary</text>
<rect x="-43" y="744" width="226" height="429" rx="10" fill="#eef6ff" stroke="#9bc3e6" stroke-dasharray="5 4"/>
<text x="-31" y="762" font-family="Inter, Helvetica, Arial, sans-serif" font-size="12" font-weight="700" fill="#315a86">Execution-time boundary</text>
<line x1="70" y1="95.5" x2="70" y2="141" stroke="#5f6f85" stroke-width="1.5" marker-end="url(#arrow)"/>
<line x1="70" y1="209" x2="70" y2="246" stroke="#5f6f85" stroke-width="1.5" marker-end="url(#arrow)"/>
<line x1="70" y1="314" x2="70" y2="359.5" stroke="#5f6f85" stroke-width="1.5" marker-end="url(#arrow)"/>
<line x1="70" y1="410.5" x2="70" y2="464.5" stroke="#5f6f85" stroke-width="1.5" marker-end="url(#arrow)"/>
<line x1="70" y1="515.5" x2="70" y2="569.5" stroke="#5f6f85" stroke-width="1.5" marker-end="url(#arrow)"/>
<line x1="70" y1="620.5" x2="70" y2="666" stroke="#5f6f85" stroke-width="1.5" marker-end="url(#arrow)"/>
<line x1="70" y1="734" x2="70" y2="779.5" stroke="#5f6f85" stroke-width="1.5" marker-end="url(#arrow)"/>
<line x1="70" y1="830.5" x2="70" y2="884.5" stroke="#5f6f85" stroke-width="1.5" marker-end="url(#arrow)"/>
<line x1="70" y1="935.5" x2="70" y2="981" stroke="#5f6f85" stroke-width="1.5" marker-end="url(#arrow)"/>
<line x1="70" y1="1049" x2="70" y2="1086" stroke="#5f6f85" stroke-width="1.5" marker-end="url(#arrow)"/>
<rect x="-29.5" y="44.5" width="199" height="51" rx="8" fill="#f6f8fb" stroke="#496a9a" stroke-width="1.5"/>
<text x="70" y="70" text-anchor="middle" dominant-baseline="middle" font-family="Inter, Helvetica, Arial, sans-serif" font-size="13" fill="#1f2937"><tspan x="70" dy="0">PySpark spatial_join()</tspan></text>
<rect x="-59.5" y="141" width="259" height="68" rx="8" fill="#f6f8fb" stroke="#496a9a" stroke-width="1.5"/>
<text x="70" y="167" text-anchor="middle" dominant-baseline="middle" font-family="Inter, Helvetica, Arial, sans-serif" font-size="13" fill="#1f2937"><tspan x="70" dy="0">Spark</tspan><tspan x="70" dy="17">Connect&lt;br/&gt;Relation.extension</tspan></text>
<rect x="-80" y="246" width="300" height="68" rx="8" fill="#f6f8fb" stroke="#496a9a" stroke-width="1.5"/>
<text x="70" y="272" text-anchor="middle" dominant-baseline="middle" font-family="Inter, Helvetica, Arial, sans-serif" font-size="13" fill="#1f2937"><tspan x="70" dy="0">SparkConnectExtensionDispatcher&lt;br/&gt;type_url:</tspan><tspan x="70" dy="17">sedona/SpatialJoin</tspan></text>
<rect x="-78.25" y="359.5" width="296.5" height="51" rx="8" fill="#f6f8fb" stroke="#496a9a" stroke-width="1.5"/>
<text x="70" y="385" text-anchor="middle" dominant-baseline="middle" font-family="Inter, Helvetica, Arial, sans-serif" font-size="13" fill="#1f2937"><tspan x="70" dy="0">SpatialJoinRelationHandler::resolve</tspan></text>
<rect x="-80" y="464.5" width="300" height="51" rx="8" fill="#f6f8fb" stroke="#496a9a" stroke-width="1.5"/>
<text x="70" y="490" text-anchor="middle" dominant-baseline="middle" font-family="Inter, Helvetica, Arial, sans-serif" font-size="13" fill="#1f2937"><tspan x="70" dy="0">spec::QueryNode::Extension&lt;br/&gt;SpatialJoinNode</tspan></text>
<rect x="-29.5" y="569.5" width="199" height="51" rx="8" fill="#f6f8fb" stroke="#496a9a" stroke-width="1.5"/>
<text x="70" y="595" text-anchor="middle" dominant-baseline="middle" font-family="Inter, Helvetica, Arial, sans-serif" font-size="13" fill="#1f2937"><tspan x="70" dy="0">DataFusion LogicalPlan</tspan></text>
<rect x="-80" y="666" width="300" height="68" rx="8" fill="#f6f8fb" stroke="#496a9a" stroke-width="1.5"/>
<text x="70" y="692" text-anchor="middle" dominant-baseline="middle" font-family="Inter, Helvetica, Arial, sans-serif" font-size="13" fill="#1f2937"><tspan x="70" dy="0">MergeSpatialPredicateIntoJoin&lt;br/&gt;optimizer</tspan><tspan x="70" dy="17">rule</tspan></text>
<rect x="-48.25" y="779.5" width="236.5" height="51" rx="8" fill="#f6f8fb" stroke="#496a9a" stroke-width="1.5"/>
<text x="70" y="805" text-anchor="middle" dominant-baseline="middle" font-family="Inter, Helvetica, Arial, sans-serif" font-size="13" fill="#1f2937"><tspan x="70" dy="0">SpatialJoinExtensionPlanner</tspan></text>
<rect x="-5" y="884.5" width="150" height="51" rx="8" fill="#f6f8fb" stroke="#496a9a" stroke-width="1.5"/>
<text x="70" y="910" text-anchor="middle" dominant-baseline="middle" font-family="Inter, Helvetica, Arial, sans-serif" font-size="13" fill="#1f2937"><tspan x="70" dy="0">SpatialJoinExec</tspan></text>
<rect x="-18.25" y="981" width="176.5" height="68" rx="8" fill="#f6f8fb" stroke="#496a9a" stroke-width="1.5"/>
<text x="70" y="1007" text-anchor="middle" dominant-baseline="middle" font-family="Inter, Helvetica, Arial, sans-serif" font-size="13" fill="#1f2937"><tspan x="70" dy="0">SedonaPhysicalCodec</tspan><tspan x="70" dy="17">encode</tspan></text>
<rect x="-10.75" y="1086" width="161.5" height="68" rx="8" fill="#f6f8fb" stroke="#496a9a" stroke-width="1.5"/>
<text x="70" y="1112" text-anchor="middle" dominant-baseline="middle" font-family="Inter, Helvetica, Arial, sans-serif" font-size="13" fill="#1f2937"><tspan x="70" dy="0">worker decode and</tspan><tspan x="70" dy="17">execute</tspan></text>
</svg>