<svg xmlns="http://www.w3.org/2000/svg" width="900" height="256" viewBox="0 0 1618 460">
<defs>
  <marker id="arrow" markerWidth="10" markerHeight="10" refX="8" refY="3" orient="auto" markerUnits="strokeWidth">
    <path d="M0,0 L0,6 L8,3 z" fill="#5f6f85"/>
  </marker>
</defs>
<rect x="0" y="0" width="1618" height="460" fill="white"/>

<line x1="292" y1="83" x2="422" y2="83" stroke="#5f6f85" stroke-width="1.5" marker-end="url(#arrow)"/>
<line x1="612" y1="83" x2="732" y2="83" stroke="#5f6f85" stroke-width="1.5" marker-end="url(#arrow)"/>
<line x1="612" y1="83" x2="725" y2="238" stroke="#5f6f85" stroke-width="1.5" marker-end="url(#arrow)"/>
<line x1="612" y1="83" x2="742" y2="393" stroke="#5f6f85" stroke-width="1.5" marker-end="url(#arrow)"/>
<line x1="932" y1="393" x2="1045" y2="83" stroke="#5f6f85" stroke-width="1.5" marker-end="url(#arrow)"/>
<line x1="1269" y1="83" x2="1372" y2="83" stroke="#5f6f85" stroke-width="1.5" marker-end="url(#arrow)"/>
<line x1="1582" y1="83" x2="36" y2="338" stroke="#5f6f85" stroke-width="1.5" marker-end="url(#arrow)"/>
<rect x="102" y="52" width="190" height="62" rx="8" fill="#f6f8fb" stroke="#496a9a" stroke-width="1.5"/>
<text x="197" y="83" text-anchor="middle" dominant-baseline="middle" font-family="Inter, Helvetica, Arial, sans-serif" font-size="26" fill="#1f2937"><tspan x="197" dy="0">server.rs</tspan></text>
<rect x="422" y="52" width="190" height="62" rx="8" fill="#f6f8fb" stroke="#496a9a" stroke-width="1.5"/>
<text x="517" y="83" text-anchor="middle" dominant-baseline="middle" font-family="Inter, Helvetica, Arial, sans-serif" font-size="26" fill="#1f2937"><tspan x="517" dy="0">service/*</tspan></text>
<rect x="732" y="36" width="210" height="94" rx="8" fill="#f6f8fb" stroke="#496a9a" stroke-width="1.5"/>
<text x="837" y="67" text-anchor="middle" dominant-baseline="middle" font-family="Inter, Helvetica, Arial, sans-serif" font-size="26" fill="#1f2937"><tspan x="837" dy="0">proto/*</tspan><tspan x="837" dy="32">conversions</tspan></text>
<rect x="725" y="191" width="224" height="94" rx="8" fill="#f6f8fb" stroke="#496a9a" stroke-width="1.5"/>
<text x="837" y="222" text-anchor="middle" dominant-baseline="middle" font-family="Inter, Helvetica, Arial, sans-serif" font-size="26" fill="#1f2937"><tspan x="837" dy="0">SparkSession</tspan><tspan x="837" dy="32">extension</tspan></text>
<rect x="742" y="362" width="190" height="62" rx="8" fill="#f6f8fb" stroke="#496a9a" stroke-width="1.5"/>
<text x="837" y="393" text-anchor="middle" dominant-baseline="middle" font-family="Inter, Helvetica, Arial, sans-serif" font-size="26" fill="#1f2937"><tspan x="837" dy="0">sail-plan</tspan></text>
<rect x="1045" y="36" width="224" height="94" rx="8" fill="#f6f8fb" stroke="#496a9a" stroke-width="1.5"/>
<text x="1157" y="67" text-anchor="middle" dominant-baseline="middle" font-family="Inter, Helvetica, Arial, sans-serif" font-size="26" fill="#1f2937"><tspan x="1157" dy="0">JobService /</tspan><tspan x="1157" dy="32">JobRunner</tspan></text>
<rect x="1372" y="52" width="210" height="62" rx="8" fill="#f6f8fb" stroke="#496a9a" stroke-width="1.5"/>
<text x="1477" y="83" text-anchor="middle" dominant-baseline="middle" font-family="Inter, Helvetica, Arial, sans-serif" font-size="26" fill="#1f2937"><tspan x="1477" dy="0">executor.rs</tspan></text>
<rect x="36" y="291" width="322" height="94" rx="8" fill="#f6f8fb" stroke="#496a9a" stroke-width="1.5"/>
<text x="197" y="322" text-anchor="middle" dominant-baseline="middle" font-family="Inter, Helvetica, Arial, sans-serif" font-size="26" fill="#1f2937"><tspan x="197" dy="0">ExecutePlanResponse</tspan><tspan x="197" dy="32">stream</tspan></text>
</svg>