<svg xmlns="http://www.w3.org/2000/svg" width="777" height="770" viewBox="0 0 777 770">
<defs>
  <marker id="arrow" markerWidth="10" markerHeight="10" refX="8" refY="3" orient="auto" markerUnits="strokeWidth">
    <path d="M0,0 L0,6 L8,3 z" fill="#5f6f85"/>
  </marker>
</defs>
<rect x="0" y="0" width="777" height="770" fill="white"/>

<line x1="211" y1="98" x2="211" y2="191" stroke="#5f6f85" stroke-width="1.5" marker-end="url(#arrow)"/>
<line x1="211" y1="253" x2="211" y2="346" stroke="#5f6f85" stroke-width="1.5" marker-end="url(#arrow)"/>
<line x1="211" y1="253" x2="531" y2="346" stroke="#5f6f85" stroke-width="1.5" marker-end="url(#arrow)"/>
<line x1="211" y1="408" x2="211" y2="501" stroke="#5f6f85" stroke-width="1.5" marker-end="url(#arrow)"/>
<line x1="531" y1="408" x2="531" y2="469" stroke="#5f6f85" stroke-width="1.5" marker-end="url(#arrow)"/>
<line x1="211" y1="563" x2="211" y2="640" stroke="#5f6f85" stroke-width="1.5" marker-end="url(#arrow)"/>
<line x1="531" y1="595" x2="531" y2="640" stroke="#5f6f85" stroke-width="1.5" marker-end="url(#arrow)"/>
<rect x="99" y="36" width="224" height="62" rx="8" fill="#f6f8fb" stroke="#496a9a" stroke-width="1.5"/>
<text x="211" y="67" text-anchor="middle" dominant-baseline="middle" font-family="Inter, Helvetica, Arial, sans-serif" font-size="26" fill="#1f2937"><tspan x="211" dy="0">execute_plan</tspan></text>
<rect x="116" y="191" width="190" height="62" rx="10" fill="#fff6d9" stroke="#c58c00" stroke-width="1.5"/>
<text x="211" y="222" text-anchor="middle" dominant-baseline="middle" font-family="Inter, Helvetica, Arial, sans-serif" font-size="26" fill="#1f2937"><tspan x="211" dy="0">Plan op</tspan></text>
<rect x="92" y="346" width="238" height="62" rx="8" fill="#f6f8fb" stroke="#496a9a" stroke-width="1.5"/>
<text x="211" y="377" text-anchor="middle" dominant-baseline="middle" font-family="Inter, Helvetica, Arial, sans-serif" font-size="26" fill="#1f2937"><tspan x="211" dy="0">Root relation</tspan></text>
<rect x="436" y="346" width="190" height="62" rx="8" fill="#f6f8fb" stroke="#496a9a" stroke-width="1.5"/>
<text x="531" y="377" text-anchor="middle" dominant-baseline="middle" font-family="Inter, Helvetica, Arial, sans-serif" font-size="26" fill="#1f2937"><tspan x="531" dy="0">Command</tspan></text>
<rect x="36" y="501" width="350" height="62" rx="8" fill="#f6f8fb" stroke="#496a9a" stroke-width="1.5"/>
<text x="211" y="532" text-anchor="middle" dominant-baseline="middle" font-family="Inter, Helvetica, Arial, sans-serif" font-size="26" fill="#1f2937"><tspan x="211" dy="0">ExecutePlanMode::Lazy</tspan></text>
<rect x="321" y="469" width="420" height="126" rx="8" fill="#f6f8fb" stroke="#496a9a" stroke-width="1.5"/>
<text x="531" y="500" text-anchor="middle" dominant-baseline="middle" font-family="Inter, Helvetica, Arial, sans-serif" font-size="26" fill="#1f2937"><tspan x="531" dy="0">ExecutePlanMode::EagerSilent</tspan><tspan x="531" dy="32">or custom command</tspan><tspan x="531" dy="32">response</tspan></text>
<rect x="57" y="640" width="308" height="94" rx="8" fill="#f6f8fb" stroke="#496a9a" stroke-width="1.5"/>
<text x="211" y="671" text-anchor="middle" dominant-baseline="middle" font-family="Inter, Helvetica, Arial, sans-serif" font-size="26" fill="#1f2937"><tspan x="211" dy="0">Arrow batches</tspan><tspan x="211" dy="32">streamed to client</tspan></text>
<rect x="384" y="640" width="294" height="94" rx="8" fill="#f6f8fb" stroke="#496a9a" stroke-width="1.5"/>
<text x="531" y="671" text-anchor="middle" dominant-baseline="middle" font-family="Inter, Helvetica, Arial, sans-serif" font-size="26" fill="#1f2937"><tspan x="531" dy="0">Execute and drain</tspan><tspan x="531" dy="32">stream</tspan></text>
</svg>