<svg xmlns="http://www.w3.org/2000/svg" width="900" height="354" viewBox="0 0 1604 631">
<defs>
  <marker id="arrow" markerWidth="10" markerHeight="10" refX="8" refY="3" orient="auto" markerUnits="strokeWidth">
    <path d="M0,0 L0,6 L8,3 z" fill="#5f6f85"/>
  </marker>
</defs>
<rect x="0" y="0" width="1604" height="631" fill="white"/>

<line x1="295" y1="83" x2="391" y2="83" stroke="#5f6f85" stroke-width="1.5" marker-end="url(#arrow)"/>
<line x1="629" y1="83" x2="718" y2="83" stroke="#5f6f85" stroke-width="1.5" marker-end="url(#arrow)"/>
<line x1="629" y1="83" x2="718" y2="238" stroke="#5f6f85" stroke-width="1.5" marker-end="url(#arrow)"/>
<line x1="629" y1="83" x2="735" y2="393" stroke="#5f6f85" stroke-width="1.5" marker-end="url(#arrow)"/>
<line x1="629" y1="83" x2="620" y2="548" stroke="#5f6f85" stroke-width="1.5" marker-end="url(#arrow)"/>
<line x1="942" y1="83" x2="1052" y2="83" stroke="#5f6f85" stroke-width="1.5" marker-end="url(#arrow)"/>
<line x1="942" y1="238" x2="1052" y2="83" stroke="#5f6f85" stroke-width="1.5" marker-end="url(#arrow)"/>
<line x1="925" y1="393" x2="1052" y2="83" stroke="#5f6f85" stroke-width="1.5" marker-end="url(#arrow)"/>
<line x1="1040" y1="548" x2="1052" y2="83" stroke="#5f6f85" stroke-width="1.5" marker-end="url(#arrow)"/>
<line x1="1248" y1="83" x2="1372" y2="83" stroke="#5f6f85" stroke-width="1.5" marker-end="url(#arrow)"/>
<line x1="1568" y1="83" x2="36" y2="338" stroke="#5f6f85" stroke-width="1.5" marker-end="url(#arrow)"/>
<rect x="85" y="52" width="210" height="62" rx="8" fill="#f6f8fb" stroke="#496a9a" stroke-width="1.5"/>
<text x="190" y="83" text-anchor="middle" dominant-baseline="middle" font-family="Inter, Helvetica, Arial, sans-serif" font-size="26" fill="#1f2937"><tspan x="190" dy="0">PySpark API</tspan></text>
<rect x="391" y="52" width="238" height="62" rx="8" fill="#f6f8fb" stroke="#496a9a" stroke-width="1.5"/>
<text x="510" y="83" text-anchor="middle" dominant-baseline="middle" font-family="Inter, Helvetica, Arial, sans-serif" font-size="26" fill="#1f2937"><tspan x="510" dy="0">Spark Connect</tspan></text>
<rect x="718" y="52" width="224" height="62" rx="8" fill="#f6f8fb" stroke="#496a9a" stroke-width="1.5"/>
<text x="830" y="83" text-anchor="middle" dominant-baseline="middle" font-family="Inter, Helvetica, Arial, sans-serif" font-size="26" fill="#1f2937"><tspan x="830" dy="0">analyze_plan</tspan></text>
<rect x="718" y="207" width="224" height="62" rx="8" fill="#f6f8fb" stroke="#496a9a" stroke-width="1.5"/>
<text x="830" y="238" text-anchor="middle" dominant-baseline="middle" font-family="Inter, Helvetica, Arial, sans-serif" font-size="26" fill="#1f2937"><tspan x="830" dy="0">execute_plan</tspan></text>
<rect x="735" y="362" width="190" height="62" rx="8" fill="#f6f8fb" stroke="#496a9a" stroke-width="1.5"/>
<text x="830" y="393" text-anchor="middle" dominant-baseline="middle" font-family="Inter, Helvetica, Arial, sans-serif" font-size="26" fill="#1f2937"><tspan x="830" dy="0">config</tspan></text>
<rect x="620" y="501" width="420" height="94" rx="8" fill="#f6f8fb" stroke="#496a9a" stroke-width="1.5"/>
<text x="830" y="532" text-anchor="middle" dominant-baseline="middle" font-family="Inter, Helvetica, Arial, sans-serif" font-size="26" fill="#1f2937"><tspan x="830" dy="0">Relation/Command/Expression</tspan><tspan x="830" dy="32">.extension</tspan></text>
<rect x="1052" y="36" width="196" height="94" rx="8" fill="#f6f8fb" stroke="#496a9a" stroke-width="1.5"/>
<text x="1150" y="67" text-anchor="middle" dominant-baseline="middle" font-family="Inter, Helvetica, Arial, sans-serif" font-size="26" fill="#1f2937"><tspan x="1150" dy="0">extension</tspan><tspan x="1150" dy="32">resolution</tspan></text>
<rect x="1372" y="36" width="196" height="94" rx="8" fill="#f6f8fb" stroke="#496a9a" stroke-width="1.5"/>
<text x="1470" y="67" text-anchor="middle" dominant-baseline="middle" font-family="Inter, Helvetica, Arial, sans-serif" font-size="26" fill="#1f2937"><tspan x="1470" dy="0">DataFusion</tspan><tspan x="1470" dy="32">planning</tspan></text>
<rect x="36" y="291" width="308" height="94" rx="8" fill="#f6f8fb" stroke="#496a9a" stroke-width="1.5"/>
<text x="190" y="322" text-anchor="middle" dominant-baseline="middle" font-family="Inter, Helvetica, Arial, sans-serif" font-size="26" fill="#1f2937"><tspan x="190" dy="0">distributed worker</tspan><tspan x="190" dy="32">decode</tspan></text>
</svg>