<svg xmlns="http://www.w3.org/2000/svg" width="900" height="460" viewBox="0 0 1702 870">
<defs>
  <marker id="arrow" markerWidth="10" markerHeight="10" refX="8" refY="3" orient="auto" markerUnits="strokeWidth">
    <path d="M0,0 L0,6 L8,3 z" fill="#5f6f85"/>
  </marker>
</defs>
<rect x="0" y="0" width="1702" height="870" fill="white"/>

<line x1="316" y1="83" x2="384" y2="83" stroke="#5f6f85" stroke-width="1.5" marker-end="url(#arrow)"/>
<line x1="622" y1="83" x2="711" y2="83" stroke="#5f6f85" stroke-width="1.5" marker-end="url(#arrow)"/>
<line x1="935" y1="83" x2="1024" y2="83" stroke="#5f6f85" stroke-width="1.5" marker-end="url(#arrow)"/>
<line x1="1262" y1="83" x2="1260" y2="83" stroke="#5f6f85" stroke-width="1.5" marker-end="url(#arrow)"/>
<line x1="1666" y1="83" x2="36" y2="338" stroke="#5f6f85" stroke-width="1.5" marker-end="url(#arrow)"/>
<line x1="330" y1="338" x2="1260" y2="83" stroke="#5f6f85" stroke-width="1.5" marker-end="url(#arrow)"/>
<line x1="1666" y1="83" x2="78" y2="493" stroke="#5f6f85" stroke-width="1.5" marker-end="url(#arrow)"/>
<line x1="288" y1="493" x2="1260" y2="83" stroke="#5f6f85" stroke-width="1.5" marker-end="url(#arrow)"/>
<line x1="1666" y1="83" x2="50" y2="803" stroke="#5f6f85" stroke-width="1.5" marker-end="url(#arrow)"/>
<line x1="1666" y1="83" x2="43" y2="648" stroke="#5f6f85" stroke-width="1.5" marker-end="url(#arrow)"/>
<line x1="316" y1="803" x2="50" y2="83" stroke="#5f6f85" stroke-width="1.5" marker-end="url(#arrow)"/>
<line x1="323" y1="648" x2="50" y2="83" stroke="#5f6f85" stroke-width="1.5" marker-end="url(#arrow)"/>
<rect x="50" y="36" width="266" height="94" rx="8" fill="#f6f8fb" stroke="#496a9a" stroke-width="1.5"/>
<text x="183" y="67" text-anchor="middle" dominant-baseline="middle" font-family="Inter, Helvetica, Arial, sans-serif" font-size="26" fill="#1f2937"><tspan x="183" dy="0">Spark or Flight</tspan><tspan x="183" dy="32">client</tspan></text>
<rect x="384" y="36" width="238" height="94" rx="8" fill="#f6f8fb" stroke="#496a9a" stroke-width="1.5"/>
<text x="503" y="67" text-anchor="middle" dominant-baseline="middle" font-family="Inter, Helvetica, Arial, sans-serif" font-size="26" fill="#1f2937"><tspan x="503" dy="0">Spark Connect</tspan><tspan x="503" dy="32">service</tspan></text>
<rect x="711" y="52" width="224" height="62" rx="8" fill="#f6f8fb" stroke="#496a9a" stroke-width="1.5"/>
<text x="823" y="83" text-anchor="middle" dominant-baseline="middle" font-family="Inter, Helvetica, Arial, sans-serif" font-size="26" fill="#1f2937"><tspan x="823" dy="0">Sail planner</tspan></text>
<rect x="1024" y="36" width="238" height="94" rx="8" fill="#f6f8fb" stroke="#496a9a" stroke-width="1.5"/>
<text x="1143" y="67" text-anchor="middle" dominant-baseline="middle" font-family="Inter, Helvetica, Arial, sans-serif" font-size="26" fill="#1f2937"><tspan x="1143" dy="0">DataFusion</tspan><tspan x="1143" dy="32">physical plan</tspan></text>
<rect x="1260" y="52" width="406" height="62" rx="8" fill="#f6f8fb" stroke="#496a9a" stroke-width="1.5"/>
<text x="1463" y="83" text-anchor="middle" dominant-baseline="middle" font-family="Inter, Helvetica, Arial, sans-serif" font-size="26" fill="#1f2937"><tspan x="1463" dy="0">SendableRecordBatchStream</tspan></text>
<rect x="36" y="291" width="294" height="94" rx="8" fill="#f6f8fb" stroke="#496a9a" stroke-width="1.5"/>
<text x="183" y="322" text-anchor="middle" dominant-baseline="middle" font-family="Inter, Helvetica, Arial, sans-serif" font-size="26" fill="#1f2937"><tspan x="183" dy="0">PySpark / PyArrow</tspan><tspan x="183" dy="32">UDFs</tspan></text>
<rect x="78" y="446" width="210" height="94" rx="8" fill="#f6f8fb" stroke="#496a9a" stroke-width="1.5"/>
<text x="183" y="477" text-anchor="middle" dominant-baseline="middle" font-family="Inter, Helvetica, Arial, sans-serif" font-size="26" fill="#1f2937"><tspan x="183" dy="0">Distributed</tspan><tspan x="183" dy="32">shuffle</tspan></text>
<rect x="43" y="617" width="280" height="62" rx="8" fill="#f6f8fb" stroke="#496a9a" stroke-width="1.5"/>
<text x="183" y="648" text-anchor="middle" dominant-baseline="middle" font-family="Inter, Helvetica, Arial, sans-serif" font-size="26" fill="#1f2937"><tspan x="183" dy="0">Arrow Flight SQL</tspan></text>
<rect x="50" y="772" width="266" height="62" rx="8" fill="#f6f8fb" stroke="#496a9a" stroke-width="1.5"/>
<text x="183" y="803" text-anchor="middle" dominant-baseline="middle" font-family="Inter, Helvetica, Arial, sans-serif" font-size="26" fill="#1f2937"><tspan x="183" dy="0">Arrow IPC bytes</tspan></text>
</svg>