<svg xmlns="http://www.w3.org/2000/svg" width="478" height="1529" viewBox="0 0 478 1529">
<defs>
  <marker id="arrow" markerWidth="10" markerHeight="10" refX="8" refY="3" orient="auto" markerUnits="strokeWidth">
    <path d="M0,0 L0,6 L8,3 z" fill="#5f6f85"/>
  </marker>
</defs>
<rect x="0" y="0" width="478" height="1529" fill="white"/>

<line x1="239" y1="98" x2="239" y2="191" stroke="#5f6f85" stroke-width="1.5" marker-end="url(#arrow)"/>
<line x1="239" y1="253" x2="239" y2="330" stroke="#5f6f85" stroke-width="1.5" marker-end="url(#arrow)"/>
<line x1="239" y1="424" x2="239" y2="501" stroke="#5f6f85" stroke-width="1.5" marker-end="url(#arrow)"/>
<line x1="239" y1="563" x2="239" y2="640" stroke="#5f6f85" stroke-width="1.5" marker-end="url(#arrow)"/>
<line x1="239" y1="734" x2="239" y2="795" stroke="#5f6f85" stroke-width="1.5" marker-end="url(#arrow)"/>
<line x1="239" y1="889" x2="239" y2="950" stroke="#5f6f85" stroke-width="1.5" marker-end="url(#arrow)"/>
<line x1="239" y1="1044" x2="239" y2="1105" stroke="#5f6f85" stroke-width="1.5" marker-end="url(#arrow)"/>
<line x1="239" y1="1199" x2="239" y2="1276" stroke="#5f6f85" stroke-width="1.5" marker-end="url(#arrow)"/>
<line x1="239" y1="1338" x2="239" y2="1431" stroke="#5f6f85" stroke-width="1.5" marker-end="url(#arrow)"/>
<rect x="106" y="36" width="266" height="62" rx="8" fill="#f6f8fb" stroke="#496a9a" stroke-width="1.5"/>
<text x="239" y="67" text-anchor="middle" dominant-baseline="middle" font-family="Inter, Helvetica, Arial, sans-serif" font-size="26" fill="#1f2937"><tspan x="239" dy="0">Sail spec::Plan</tspan></text>
<rect x="127" y="191" width="224" height="62" rx="8" fill="#f6f8fb" stroke="#496a9a" stroke-width="1.5"/>
<text x="239" y="222" text-anchor="middle" dominant-baseline="middle" font-family="Inter, Helvetica, Arial, sans-serif" font-size="26" fill="#1f2937"><tspan x="239" dy="0">PlanResolver</tspan></text>
<rect x="134" y="330" width="210" height="94" rx="8" fill="#f6f8fb" stroke="#496a9a" stroke-width="1.5"/>
<text x="239" y="361" text-anchor="middle" dominant-baseline="middle" font-family="Inter, Helvetica, Arial, sans-serif" font-size="26" fill="#1f2937"><tspan x="239" dy="0">DataFusion</tspan><tspan x="239" dy="32">LogicalPlan</tspan></text>
<rect x="113" y="501" width="252" height="62" rx="8" fill="#f6f8fb" stroke="#496a9a" stroke-width="1.5"/>
<text x="239" y="532" text-anchor="middle" dominant-baseline="middle" font-family="Inter, Helvetica, Arial, sans-serif" font-size="26" fill="#1f2937"><tspan x="239" dy="0">Analyzer rules</tspan></text>
<rect x="92" y="640" width="294" height="94" rx="8" fill="#f6f8fb" stroke="#496a9a" stroke-width="1.5"/>
<text x="239" y="671" text-anchor="middle" dominant-baseline="middle" font-family="Inter, Helvetica, Arial, sans-serif" font-size="26" fill="#1f2937"><tspan x="239" dy="0">Logical optimizer</tspan><tspan x="239" dy="32">rules</tspan></text>
<rect x="64" y="795" width="350" height="94" rx="8" fill="#f6f8fb" stroke="#496a9a" stroke-width="1.5"/>
<text x="239" y="826" text-anchor="middle" dominant-baseline="middle" font-family="Inter, Helvetica, Arial, sans-serif" font-size="26" fill="#1f2937"><tspan x="239" dy="0">Sail</tspan><tspan x="239" dy="32">ExtensionQueryPlanner</tspan></text>
<rect x="120" y="950" width="238" height="94" rx="8" fill="#f6f8fb" stroke="#496a9a" stroke-width="1.5"/>
<text x="239" y="981" text-anchor="middle" dominant-baseline="middle" font-family="Inter, Helvetica, Arial, sans-serif" font-size="26" fill="#1f2937"><tspan x="239" dy="0">DataFusion</tspan><tspan x="239" dy="32">ExecutionPlan</tspan></text>
<rect x="85" y="1105" width="308" height="94" rx="8" fill="#f6f8fb" stroke="#496a9a" stroke-width="1.5"/>
<text x="239" y="1136" text-anchor="middle" dominant-baseline="middle" font-family="Inter, Helvetica, Arial, sans-serif" font-size="26" fill="#1f2937"><tspan x="239" dy="0">Physical optimizer</tspan><tspan x="239" dy="32">rules</tspan></text>
<rect x="144" y="1276" width="190" height="62" rx="8" fill="#f6f8fb" stroke="#496a9a" stroke-width="1.5"/>
<text x="239" y="1307" text-anchor="middle" dominant-baseline="middle" font-family="Inter, Helvetica, Arial, sans-serif" font-size="26" fill="#1f2937"><tspan x="239" dy="0">JobRunner</tspan></text>
<rect x="36" y="1431" width="406" height="62" rx="8" fill="#f6f8fb" stroke="#496a9a" stroke-width="1.5"/>
<text x="239" y="1462" text-anchor="middle" dominant-baseline="middle" font-family="Inter, Helvetica, Arial, sans-serif" font-size="26" fill="#1f2937"><tspan x="239" dy="0">SendableRecordBatchStream</tspan></text>
</svg>