<svg xmlns="http://www.w3.org/2000/svg" width="900" height="294" viewBox="0 0 1410 460">
<defs>
  <marker id="arrow" markerWidth="10" markerHeight="10" refX="8" refY="3" orient="auto" markerUnits="strokeWidth">
    <path d="M0,0 L0,6 L8,3 z" fill="#5f6f85"/>
  </marker>
</defs>
<rect x="0" y="0" width="1410" height="460" fill="white"/>

<line x1="218" y1="130" x2="218" y2="207" stroke="#5f6f85" stroke-width="1.5" marker-end="url(#arrow)"/>
<line x1="538" y1="130" x2="218" y2="207" stroke="#5f6f85" stroke-width="1.5" marker-end="url(#arrow)"/>
<line x1="858" y1="114" x2="218" y2="207" stroke="#5f6f85" stroke-width="1.5" marker-end="url(#arrow)"/>
<line x1="1178" y1="114" x2="218" y2="207" stroke="#5f6f85" stroke-width="1.5" marker-end="url(#arrow)"/>
<line x1="218" y1="269" x2="218" y2="362" stroke="#5f6f85" stroke-width="1.5" marker-end="url(#arrow)"/>
<rect x="113" y="36" width="210" height="94" rx="8" fill="#f6f8fb" stroke="#496a9a" stroke-width="1.5"/>
<text x="218" y="67" text-anchor="middle" dominant-baseline="middle" font-family="Inter, Helvetica, Arial, sans-serif" font-size="26" fill="#1f2937"><tspan x="218" dy="0">Optimized</tspan><tspan x="218" dy="32">LogicalPlan</tspan></text>
<rect x="36" y="207" width="364" height="62" rx="8" fill="#f6f8fb" stroke="#496a9a" stroke-width="1.5"/>
<text x="218" y="238" text-anchor="middle" dominant-baseline="middle" font-family="Inter, Helvetica, Arial, sans-serif" font-size="26" fill="#1f2937"><tspan x="218" dy="0">DefaultPhysicalPlanner</tspan></text>
<rect x="384" y="36" width="308" height="94" rx="8" fill="#f6f8fb" stroke="#496a9a" stroke-width="1.5"/>
<text x="538" y="67" text-anchor="middle" dominant-baseline="middle" font-family="Inter, Helvetica, Arial, sans-serif" font-size="26" fill="#1f2937"><tspan x="538" dy="0">Lakehouse</tspan><tspan x="538" dy="32">extension planners</tspan></text>
<rect x="648" y="52" width="420" height="62" rx="8" fill="#f6f8fb" stroke="#496a9a" stroke-width="1.5"/>
<text x="858" y="83" text-anchor="middle" dominant-baseline="middle" font-family="Inter, Helvetica, Arial, sans-serif" font-size="26" fill="#1f2937"><tspan x="858" dy="0">SystemTablePhysicalPlanner</tspan></text>
<rect x="982" y="52" width="392" height="62" rx="8" fill="#f6f8fb" stroke="#496a9a" stroke-width="1.5"/>
<text x="1178" y="83" text-anchor="middle" dominant-baseline="middle" font-family="Inter, Helvetica, Arial, sans-serif" font-size="26" fill="#1f2937"><tspan x="1178" dy="0">ExtensionPhysicalPlanner</tspan></text>
<rect x="99" y="362" width="238" height="62" rx="8" fill="#f6f8fb" stroke="#496a9a" stroke-width="1.5"/>
<text x="218" y="393" text-anchor="middle" dominant-baseline="middle" font-family="Inter, Helvetica, Arial, sans-serif" font-size="26" fill="#1f2937"><tspan x="218" dy="0">ExecutionPlan</tspan></text>
</svg>