<svg xmlns="http://www.w3.org/2000/svg" width="420" height="754" viewBox="0 0 420 754">
<defs>
  <marker id="arrow" markerWidth="10" markerHeight="10" refX="8" refY="3" orient="auto" markerUnits="strokeWidth">
    <path d="M0,0 L0,6 L8,3 z" fill="#5f6f85"/>
  </marker>
</defs>
<rect x="0" y="0" width="420" height="754" fill="white"/>
<rect x="48" y="2" width="242" height="277" rx="10" fill="#eef6ff" stroke="#9bc3e6" stroke-dasharray="5 4"/>
<text x="60" y="26" font-family="Inter, Helvetica, Arial, sans-serif" font-size="24" font-weight="700" fill="#315a86">Stage 0</text>
<rect x="10" y="467" width="318" height="277" rx="10" fill="#eef6ff" stroke="#9bc3e6" stroke-dasharray="5 4"/>
<text x="22" y="491" font-family="Inter, Helvetica, Arial, sans-serif" font-size="24" font-weight="700" fill="#315a86">Stage 1</text>
<line x1="169" y1="98" x2="169" y2="191" stroke="#5f6f85" stroke-width="1.5" marker-end="url(#arrow)"/>
<line x1="169" y1="253" x2="169" y2="346" stroke="#5f6f85" stroke-width="1.5" marker-end="url(#arrow)"/>
<line x1="169" y1="408" x2="169" y2="501" stroke="#5f6f85" stroke-width="1.5" marker-end="url(#arrow)"/>
<line x1="169" y1="563" x2="169" y2="656" stroke="#5f6f85" stroke-width="1.5" marker-end="url(#arrow)"/>
<rect x="74" y="36" width="190" height="62" rx="8" fill="#f6f8fb" stroke="#496a9a" stroke-width="1.5"/>
<text x="169" y="67" text-anchor="middle" dominant-baseline="middle" font-family="Inter, Helvetica, Arial, sans-serif" font-size="26" fill="#1f2937"><tspan x="169" dy="0">Scan</tspan></text>
<rect x="74" y="191" width="190" height="62" rx="8" fill="#f6f8fb" stroke="#496a9a" stroke-width="1.5"/>
<text x="169" y="222" text-anchor="middle" dominant-baseline="middle" font-family="Inter, Helvetica, Arial, sans-serif" font-size="26" fill="#1f2937"><tspan x="169" dy="0">Filter</tspan></text>
<rect x="36" y="346" width="266" height="62" rx="8" fill="#f6f8fb" stroke="#496a9a" stroke-width="1.5"/>
<text x="169" y="377" text-anchor="middle" dominant-baseline="middle" font-family="Inter, Helvetica, Arial, sans-serif" font-size="26" fill="#1f2937"><tspan x="169" dy="0">RepartitionExec</tspan></text>
<rect x="74" y="501" width="190" height="62" rx="8" fill="#f6f8fb" stroke="#496a9a" stroke-width="1.5"/>
<text x="169" y="532" text-anchor="middle" dominant-baseline="middle" font-family="Inter, Helvetica, Arial, sans-serif" font-size="26" fill="#1f2937"><tspan x="169" dy="0">Aggregate</tspan></text>
<rect x="36" y="656" width="266" height="62" rx="8" fill="#f6f8fb" stroke="#496a9a" stroke-width="1.5"/>
<text x="169" y="687" text-anchor="middle" dominant-baseline="middle" font-family="Inter, Helvetica, Arial, sans-serif" font-size="26" fill="#1f2937"><tspan x="169" dy="0">GlobalLimitExec</tspan></text>
</svg>