<svg xmlns="http://www.w3.org/2000/svg" width="900" height="403" viewBox="0 0 992 444">
<defs>
  <marker id="arrow" markerWidth="10" markerHeight="10" refX="8" refY="3" orient="auto" markerUnits="strokeWidth">
    <path d="M0,0 L0,6 L8,3 z" fill="#5f6f85"/>
  </marker>
</defs>
<rect x="0" y="0" width="992" height="444" fill="white"/>
<rect x="10" y="2" width="332" height="432" rx="10" fill="#eef6ff" stroke="#9bc3e6" stroke-dasharray="5 4"/>
<text x="22" y="26" font-family="Inter, Helvetica, Arial, sans-serif" font-size="24" font-weight="700" fill="#315a86">Producer stage</text>
<rect x="323" y="2" width="346" height="432" rx="10" fill="#eef6ff" stroke="#9bc3e6" stroke-dasharray="5 4"/>
<text x="335" y="26" font-family="Inter, Helvetica, Arial, sans-serif" font-size="24" font-weight="700" fill="#315a86">Shuffle streams</text>
<rect x="650" y="2" width="332" height="432" rx="10" fill="#eef6ff" stroke="#9bc3e6" stroke-dasharray="5 4"/>
<text x="662" y="26" font-family="Inter, Helvetica, Arial, sans-serif" font-size="24" font-weight="700" fill="#315a86">Consumer stage</text>
<line x1="316" y1="67" x2="349" y2="67" stroke="#5f6f85" stroke-width="1.5" marker-end="url(#arrow)"/>
<line x1="316" y1="67" x2="349" y2="222" stroke="#5f6f85" stroke-width="1.5" marker-end="url(#arrow)"/>
<line x1="316" y1="67" x2="349" y2="377" stroke="#5f6f85" stroke-width="1.5" marker-end="url(#arrow)"/>
<line x1="316" y1="222" x2="349" y2="67" stroke="#5f6f85" stroke-width="1.5" marker-end="url(#arrow)"/>
<line x1="316" y1="222" x2="349" y2="222" stroke="#5f6f85" stroke-width="1.5" marker-end="url(#arrow)"/>
<line x1="316" y1="222" x2="349" y2="377" stroke="#5f6f85" stroke-width="1.5" marker-end="url(#arrow)"/>
<line x1="316" y1="377" x2="349" y2="67" stroke="#5f6f85" stroke-width="1.5" marker-end="url(#arrow)"/>
<line x1="316" y1="377" x2="349" y2="222" stroke="#5f6f85" stroke-width="1.5" marker-end="url(#arrow)"/>
<line x1="316" y1="377" x2="349" y2="377" stroke="#5f6f85" stroke-width="1.5" marker-end="url(#arrow)"/>
<line x1="643" y1="67" x2="676" y2="67" stroke="#5f6f85" stroke-width="1.5" marker-end="url(#arrow)"/>
<line x1="643" y1="222" x2="676" y2="222" stroke="#5f6f85" stroke-width="1.5" marker-end="url(#arrow)"/>
<line x1="643" y1="377" x2="676" y2="377" stroke="#5f6f85" stroke-width="1.5" marker-end="url(#arrow)"/>
<rect x="36" y="36" width="280" height="62" rx="8" fill="#f6f8fb" stroke="#496a9a" stroke-width="1.5"/>
<text x="176" y="67" text-anchor="middle" dominant-baseline="middle" font-family="Inter, Helvetica, Arial, sans-serif" font-size="26" fill="#1f2937"><tspan x="176" dy="0">Task partition 0</tspan></text>
<rect x="36" y="191" width="280" height="62" rx="8" fill="#f6f8fb" stroke="#496a9a" stroke-width="1.5"/>
<text x="176" y="222" text-anchor="middle" dominant-baseline="middle" font-family="Inter, Helvetica, Arial, sans-serif" font-size="26" fill="#1f2937"><tspan x="176" dy="0">Task partition 1</tspan></text>
<rect x="36" y="346" width="280" height="62" rx="8" fill="#f6f8fb" stroke="#496a9a" stroke-width="1.5"/>
<text x="176" y="377" text-anchor="middle" dominant-baseline="middle" font-family="Inter, Helvetica, Arial, sans-serif" font-size="26" fill="#1f2937"><tspan x="176" dy="0">Task partition 2</tspan></text>
<rect x="349" y="36" width="294" height="62" rx="8" fill="#f6f8fb" stroke="#496a9a" stroke-width="1.5"/>
<text x="496" y="67" text-anchor="middle" dominant-baseline="middle" font-family="Inter, Helvetica, Arial, sans-serif" font-size="26" fill="#1f2937"><tspan x="496" dy="0">channel 0 streams</tspan></text>
<rect x="349" y="191" width="294" height="62" rx="8" fill="#f6f8fb" stroke="#496a9a" stroke-width="1.5"/>
<text x="496" y="222" text-anchor="middle" dominant-baseline="middle" font-family="Inter, Helvetica, Arial, sans-serif" font-size="26" fill="#1f2937"><tspan x="496" dy="0">channel 1 streams</tspan></text>
<rect x="349" y="346" width="294" height="62" rx="8" fill="#f6f8fb" stroke="#496a9a" stroke-width="1.5"/>
<text x="496" y="377" text-anchor="middle" dominant-baseline="middle" font-family="Inter, Helvetica, Arial, sans-serif" font-size="26" fill="#1f2937"><tspan x="496" dy="0">channel 2 streams</tspan></text>
<rect x="676" y="36" width="280" height="62" rx="8" fill="#f6f8fb" stroke="#496a9a" stroke-width="1.5"/>
<text x="816" y="67" text-anchor="middle" dominant-baseline="middle" font-family="Inter, Helvetica, Arial, sans-serif" font-size="26" fill="#1f2937"><tspan x="816" dy="0">Task partition 0</tspan></text>
<rect x="676" y="191" width="280" height="62" rx="8" fill="#f6f8fb" stroke="#496a9a" stroke-width="1.5"/>
<text x="816" y="222" text-anchor="middle" dominant-baseline="middle" font-family="Inter, Helvetica, Arial, sans-serif" font-size="26" fill="#1f2937"><tspan x="816" dy="0">Task partition 1</tspan></text>
<rect x="676" y="346" width="280" height="62" rx="8" fill="#f6f8fb" stroke="#496a9a" stroke-width="1.5"/>
<text x="816" y="377" text-anchor="middle" dominant-baseline="middle" font-family="Inter, Helvetica, Arial, sans-serif" font-size="26" fill="#1f2937"><tspan x="816" dy="0">Task partition 2</tspan></text>
</svg>