<svg xmlns="http://www.w3.org/2000/svg" width="728" height="770" viewBox="0 0 728 770">
<defs>
  <marker id="arrow" markerWidth="10" markerHeight="10" refX="8" refY="3" orient="auto" markerUnits="strokeWidth">
    <path d="M0,0 L0,6 L8,3 z" fill="#5f6f85"/>
  </marker>
</defs>
<rect x="0" y="0" width="728" height="770" fill="white"/>

<line x1="218" y1="130" x2="218" y2="207" stroke="#5f6f85" stroke-width="1.5" marker-end="url(#arrow)"/>
<line x1="218" y1="269" x2="218" y2="362" stroke="#5f6f85" stroke-width="1.5" marker-end="url(#arrow)"/>
<line x1="218" y1="424" x2="218" y2="501" stroke="#5f6f85" stroke-width="1.5" marker-end="url(#arrow)"/><text x="218" y="454.5" text-anchor="middle" font-family="Inter, Helvetica, Arial, sans-serif" font-size="22" fill="#4b5563">no</text>
<line x1="218" y1="424" x2="538" y2="517" stroke="#5f6f85" stroke-width="1.5" marker-end="url(#arrow)"/><text x="378" y="462.5" text-anchor="middle" font-family="Inter, Helvetica, Arial, sans-serif" font-size="22" fill="#4b5563">yes</text>
<line x1="538" y1="579" x2="218" y2="672" stroke="#5f6f85" stroke-width="1.5" marker-end="url(#arrow)"/>
<rect x="113" y="36" width="210" height="94" rx="8" fill="#f6f8fb" stroke="#496a9a" stroke-width="1.5"/>
<text x="218" y="67" text-anchor="middle" dominant-baseline="middle" font-family="Inter, Helvetica, Arial, sans-serif" font-size="26" fill="#1f2937"><tspan x="218" dy="0">DataFusion</tspan><tspan x="218" dy="32">LogicalPlan</tspan></text>
<rect x="36" y="207" width="364" height="62" rx="8" fill="#f6f8fb" stroke="#496a9a" stroke-width="1.5"/>
<text x="218" y="238" text-anchor="middle" dominant-baseline="middle" font-family="Inter, Helvetica, Arial, sans-serif" font-size="26" fill="#1f2937"><tspan x="218" dy="0">DefaultPhysicalPlanner</tspan></text>
<rect x="85" y="362" width="266" height="62" rx="10" fill="#fff6d9" stroke="#c58c00" stroke-width="1.5"/>
<text x="218" y="393" text-anchor="middle" dominant-baseline="middle" font-family="Inter, Helvetica, Arial, sans-serif" font-size="26" fill="#1f2937"><tspan x="218" dy="0">extension node?</tspan></text>
<rect x="78" y="501" width="280" height="94" rx="8" fill="#f6f8fb" stroke="#496a9a" stroke-width="1.5"/>
<text x="218" y="532" text-anchor="middle" dominant-baseline="middle" font-family="Inter, Helvetica, Arial, sans-serif" font-size="26" fill="#1f2937"><tspan x="218" dy="0">DataFusion</tspan><tspan x="218" dy="32">built-in planner</tspan></text>
<rect x="384" y="517" width="308" height="62" rx="8" fill="#f6f8fb" stroke="#496a9a" stroke-width="1.5"/>
<text x="538" y="548" text-anchor="middle" dominant-baseline="middle" font-family="Inter, Helvetica, Arial, sans-serif" font-size="26" fill="#1f2937"><tspan x="538" dy="0">Extension planners</tspan></text>
<rect x="64" y="672" width="308" height="62" rx="8" fill="#f6f8fb" stroke="#496a9a" stroke-width="1.5"/>
<text x="218" y="703" text-anchor="middle" dominant-baseline="middle" font-family="Inter, Helvetica, Arial, sans-serif" font-size="26" fill="#1f2937"><tspan x="218" dy="0">Sail physical exec</tspan></text>
</svg>