<svg xmlns="http://www.w3.org/2000/svg" width="900" height="318" viewBox="0 0 1583 560">
<defs>
  <marker id="arrow" markerWidth="10" markerHeight="10" refX="8" refY="3" orient="auto" markerUnits="strokeWidth">
    <path d="M0,0 L0,6 L8,3 z" fill="#5f6f85"/>
  </marker>
</defs>
<rect x="0" y="0" width="1583" height="560" fill="white"/>

<line x1="281" y1="83" x2="384" y2="83" stroke="#5f6f85" stroke-width="1.5" marker-end="url(#arrow)"/>
<line x1="594" y1="83" x2="669" y2="83" stroke="#5f6f85" stroke-width="1.5" marker-end="url(#arrow)"/>
<line x1="949" y1="83" x2="996" y2="83" stroke="#5f6f85" stroke-width="1.5" marker-end="url(#arrow)"/>
<line x1="1262" y1="83" x2="1351" y2="83" stroke="#5f6f85" stroke-width="1.5" marker-end="url(#arrow)"/>
<line x1="1547" y1="83" x2="43" y2="338" stroke="#5f6f85" stroke-width="1.5" marker-end="url(#arrow)"/><text x="795" y="202.5" text-anchor="middle" font-family="Inter, Helvetica, Arial, sans-serif" font-size="22" fill="#4b5563">yes</text>
<line x1="1547" y1="83" x2="36" y2="493" stroke="#5f6f85" stroke-width="1.5" marker-end="url(#arrow)"/><text x="791.5" y="280" text-anchor="middle" font-family="Inter, Helvetica, Arial, sans-serif" font-size="22" fill="#4b5563">no</text>
<rect x="57" y="52" width="224" height="62" rx="8" fill="#f6f8fb" stroke="#496a9a" stroke-width="1.5"/>
<text x="169" y="83" text-anchor="middle" dominant-baseline="middle" font-family="Inter, Helvetica, Arial, sans-serif" font-size="26" fill="#1f2937"><tspan x="169" dy="0">spec Project</tspan></text>
<rect x="384" y="36" width="210" height="94" rx="8" fill="#f6f8fb" stroke="#496a9a" stroke-width="1.5"/>
<text x="489" y="67" text-anchor="middle" dominant-baseline="middle" font-family="Inter, Helvetica, Arial, sans-serif" font-size="26" fill="#1f2937"><tspan x="489" dy="0">resolve</tspan><tspan x="489" dy="32">expressions</tspan></text>
<rect x="669" y="52" width="280" height="62" rx="8" fill="#f6f8fb" stroke="#496a9a" stroke-width="1.5"/>
<text x="809" y="83" text-anchor="middle" dominant-baseline="middle" font-family="Inter, Helvetica, Arial, sans-serif" font-size="26" fill="#1f2937"><tspan x="809" dy="0">expand wildcards</tspan></text>
<rect x="996" y="36" width="266" height="94" rx="8" fill="#f6f8fb" stroke="#496a9a" stroke-width="1.5"/>
<text x="1129" y="67" text-anchor="middle" dominant-baseline="middle" font-family="Inter, Helvetica, Arial, sans-serif" font-size="26" fill="#1f2937"><tspan x="1129" dy="0">rewrite special</tspan><tspan x="1129" dy="32">expressions</tspan></text>
<rect x="1351" y="36" width="196" height="94" rx="10" fill="#fff6d9" stroke="#c58c00" stroke-width="1.5"/>
<text x="1449" y="67" text-anchor="middle" dominant-baseline="middle" font-family="Inter, Helvetica, Arial, sans-serif" font-size="26" fill="#1f2937"><tspan x="1449" dy="0">contains</tspan><tspan x="1449" dy="32">aggregate?</tspan></text>
<rect x="43" y="307" width="252" height="62" rx="8" fill="#f6f8fb" stroke="#496a9a" stroke-width="1.5"/>
<text x="169" y="338" text-anchor="middle" dominant-baseline="middle" font-family="Inter, Helvetica, Arial, sans-serif" font-size="26" fill="#1f2937"><tspan x="169" dy="0">Aggregate plan</tspan></text>
<rect x="36" y="462" width="266" height="62" rx="8" fill="#f6f8fb" stroke="#496a9a" stroke-width="1.5"/>
<text x="169" y="493" text-anchor="middle" dominant-baseline="middle" font-family="Inter, Helvetica, Arial, sans-serif" font-size="26" fill="#1f2937"><tspan x="169" dy="0">Projection plan</tspan></text>
</svg>