<svg xmlns="http://www.w3.org/2000/svg" width="492" height="925" viewBox="0 0 492 925">
<defs>
  <marker id="arrow" markerWidth="10" markerHeight="10" refX="8" refY="3" orient="auto" markerUnits="strokeWidth">
    <path d="M0,0 L0,6 L8,3 z" fill="#5f6f85"/>
  </marker>
</defs>
<rect x="0" y="0" width="492" height="925" fill="white"/>

<line x1="246" y1="130" x2="246" y2="207" stroke="#5f6f85" stroke-width="1.5" marker-end="url(#arrow)"/>
<line x1="246" y1="269" x2="246" y2="362" stroke="#5f6f85" stroke-width="1.5" marker-end="url(#arrow)"/>
<line x1="246" y1="424" x2="246" y2="517" stroke="#5f6f85" stroke-width="1.5" marker-end="url(#arrow)"/>
<line x1="246" y1="579" x2="246" y2="672" stroke="#5f6f85" stroke-width="1.5" marker-end="url(#arrow)"/>
<line x1="246" y1="734" x2="246" y2="827" stroke="#5f6f85" stroke-width="1.5" marker-end="url(#arrow)"/>
<rect x="36" y="36" width="420" height="94" rx="8" fill="#f6f8fb" stroke="#496a9a" stroke-width="1.5"/>
<text x="246" y="67" text-anchor="middle" dominant-baseline="middle" font-family="Inter, Helvetica, Arial, sans-serif" font-size="26" fill="#1f2937"><tspan x="246" dy="0">spec</tspan><tspan x="246" dy="32">CommonInlineUserDefinedTableFunction</tspan></text>
<rect x="50" y="207" width="392" height="62" rx="8" fill="#f6f8fb" stroke="#496a9a" stroke-width="1.5"/>
<text x="246" y="238" text-anchor="middle" dominant-baseline="middle" font-family="Inter, Helvetica, Arial, sans-serif" font-size="26" fill="#1f2937"><tspan x="246" dy="0">resolve_python_udtf_plan</tspan></text>
<rect x="141" y="362" width="210" height="62" rx="8" fill="#f6f8fb" stroke="#496a9a" stroke-width="1.5"/>
<text x="246" y="393" text-anchor="middle" dominant-baseline="middle" font-family="Inter, Helvetica, Arial, sans-serif" font-size="26" fill="#1f2937"><tspan x="246" dy="0">PySparkUDTF</tspan></text>
<rect x="99" y="517" width="294" height="62" rx="8" fill="#f6f8fb" stroke="#496a9a" stroke-width="1.5"/>
<text x="246" y="548" text-anchor="middle" dominant-baseline="middle" font-family="Inter, Helvetica, Arial, sans-serif" font-size="26" fill="#1f2937"><tspan x="246" dy="0">MapPartitionsNode</tspan></text>
<rect x="99" y="672" width="294" height="62" rx="8" fill="#f6f8fb" stroke="#496a9a" stroke-width="1.5"/>
<text x="246" y="703" text-anchor="middle" dominant-baseline="middle" font-family="Inter, Helvetica, Arial, sans-serif" font-size="26" fill="#1f2937"><tspan x="246" dy="0">MapPartitionsExec</tspan></text>
<rect x="99" y="827" width="294" height="62" rx="8" fill="#f6f8fb" stroke="#496a9a" stroke-width="1.5"/>
<text x="246" y="858" text-anchor="middle" dominant-baseline="middle" font-family="Inter, Helvetica, Arial, sans-serif" font-size="26" fill="#1f2937"><tspan x="246" dy="0">StreamUDF::invoke</tspan></text>
</svg>