<svg xmlns="http://www.w3.org/2000/svg" width="721" height="909" viewBox="0 0 721 909">
<defs>
  <marker id="arrow" markerWidth="10" markerHeight="10" refX="8" refY="3" orient="auto" markerUnits="strokeWidth">
    <path d="M0,0 L0,6 L8,3 z" fill="#5f6f85"/>
  </marker>
</defs>
<rect x="0" y="0" width="721" height="909" fill="white"/>

<line x1="225" y1="98" x2="225" y2="191" stroke="#5f6f85" stroke-width="1.5" marker-end="url(#arrow)"/>
<line x1="225" y1="253" x2="225" y2="346" stroke="#5f6f85" stroke-width="1.5" marker-end="url(#arrow)"/>
<line x1="225" y1="408" x2="225" y2="501" stroke="#5f6f85" stroke-width="1.5" marker-end="url(#arrow)"/>
<line x1="225" y1="563" x2="225" y2="656" stroke="#5f6f85" stroke-width="1.5" marker-end="url(#arrow)"/><text x="225" y="601.5" text-anchor="middle" font-family="Inter, Helvetica, Arial, sans-serif" font-size="22" fill="#4b5563">registered PySpark UDF</text>
<line x1="225" y1="563" x2="545" y2="640" stroke="#5f6f85" stroke-width="1.5" marker-end="url(#arrow)"/><text x="385" y="593.5" text-anchor="middle" font-family="Inter, Helvetica, Arial, sans-serif" font-size="22" fill="#4b5563">not found</text>
<line x1="545" y1="734" x2="225" y2="811" stroke="#5f6f85" stroke-width="1.5" marker-end="url(#arrow)"/><text x="385" y="764.5" text-anchor="middle" font-family="Inter, Helvetica, Arial, sans-serif" font-size="22" fill="#4b5563">not found</text>
<line x1="225" y1="718" x2="545" y2="811" stroke="#5f6f85" stroke-width="1.5" marker-end="url(#arrow)"/>
<line x1="545" y1="734" x2="545" y2="811" stroke="#5f6f85" stroke-width="1.5" marker-end="url(#arrow)"/>
<line x1="225" y1="873" x2="545" y2="811" stroke="#5f6f85" stroke-width="1.5" marker-end="url(#arrow)"/>
<rect x="71" y="36" width="308" height="62" rx="8" fill="#f6f8fb" stroke="#496a9a" stroke-width="1.5"/>
<text x="225" y="67" text-anchor="middle" dominant-baseline="middle" font-family="Inter, Helvetica, Arial, sans-serif" font-size="26" fill="#1f2937"><tspan x="225" dy="0">UnresolvedFunction</tspan></text>
<rect x="99" y="191" width="252" height="62" rx="8" fill="#f6f8fb" stroke="#496a9a" stroke-width="1.5"/>
<text x="225" y="222" text-anchor="middle" dominant-baseline="middle" font-family="Inter, Helvetica, Arial, sans-serif" font-size="26" fill="#1f2937"><tspan x="225" dy="0">normalize name</tspan></text>
<rect x="99" y="346" width="252" height="62" rx="8" fill="#f6f8fb" stroke="#496a9a" stroke-width="1.5"/>
<text x="225" y="377" text-anchor="middle" dominant-baseline="middle" font-family="Inter, Helvetica, Arial, sans-serif" font-size="26" fill="#1f2937"><tspan x="225" dy="0">extract kwargs</tspan></text>
<rect x="99" y="501" width="252" height="62" rx="8" fill="#f6f8fb" stroke="#496a9a" stroke-width="1.5"/>
<text x="225" y="532" text-anchor="middle" dominant-baseline="middle" font-family="Inter, Helvetica, Arial, sans-serif" font-size="26" fill="#1f2937"><tspan x="225" dy="0">catalog lookup</tspan></text>
<rect x="36" y="656" width="378" height="62" rx="8" fill="#f6f8fb" stroke="#496a9a" stroke-width="1.5"/>
<text x="225" y="687" text-anchor="middle" dominant-baseline="middle" font-family="Inter, Helvetica, Arial, sans-serif" font-size="26" fill="#1f2937"><tspan x="225" dy="0">resolve_python_udf_expr</tspan></text>
<rect x="405" y="640" width="280" height="94" rx="8" fill="#f6f8fb" stroke="#496a9a" stroke-width="1.5"/>
<text x="545" y="671" text-anchor="middle" dominant-baseline="middle" font-family="Inter, Helvetica, Arial, sans-serif" font-size="26" fill="#1f2937"><tspan x="545" dy="0">built-in</tspan><tspan x="545" dy="32">scalar/generator</tspan></text>
<rect x="71" y="811" width="308" height="62" rx="8" fill="#f6f8fb" stroke="#496a9a" stroke-width="1.5"/>
<text x="225" y="842" text-anchor="middle" dominant-baseline="middle" font-family="Inter, Helvetica, Arial, sans-serif" font-size="26" fill="#1f2937"><tspan x="225" dy="0">built-in aggregate</tspan></text>
<rect x="450" y="811" width="190" height="62" rx="8" fill="#f6f8fb" stroke="#496a9a" stroke-width="1.5"/>
<text x="545" y="842" text-anchor="middle" dominant-baseline="middle" font-family="Inter, Helvetica, Arial, sans-serif" font-size="26" fill="#1f2937"><tspan x="545" dy="0">NamedExpr</tspan></text>
</svg>