<svg xmlns="http://www.w3.org/2000/svg" width="900" height="656" viewBox="0 0 920 671">
<defs>
  <marker id="arrow" markerWidth="10" markerHeight="10" refX="8" refY="3" orient="auto" markerUnits="strokeWidth">
    <path d="M0,0 L0,6 L8,3 z" fill="#5f6f85"/>
  </marker>
</defs>
<rect x="0" y="0" width="920" height="671" fill="white"/>
<rect x="5" y="26" width="190" height="44" rx="8" fill="#f6f8fb" stroke="#496a9a"/>
<text x="100" y="54" text-anchor="middle" font-family="Inter, Helvetica, Arial, sans-serif" font-size="24" fill="#1f2937">Client</text>
<line x1="100" y1="70" x2="100" y2="616" stroke="#b5bdc8" stroke-dasharray="4 4"/>
<rect x="5" y="616" width="190" height="44" rx="8" fill="#f6f8fb" stroke="#496a9a"/>
<text x="100" y="645" text-anchor="middle" font-family="Inter, Helvetica, Arial, sans-serif" font-size="24" fill="#1f2937">Client</text>
<rect x="245" y="26" width="190" height="44" rx="8" fill="#f6f8fb" stroke="#496a9a"/>
<text x="340" y="54" text-anchor="middle" font-family="Inter, Helvetica, Arial, sans-serif" font-size="24" fill="#1f2937">Driver</text>
<line x1="340" y1="70" x2="340" y2="616" stroke="#b5bdc8" stroke-dasharray="4 4"/>
<rect x="245" y="616" width="190" height="44" rx="8" fill="#f6f8fb" stroke="#496a9a"/>
<text x="340" y="645" text-anchor="middle" font-family="Inter, Helvetica, Arial, sans-serif" font-size="24" fill="#1f2937">Driver</text>
<rect x="485" y="26" width="190" height="44" rx="8" fill="#f6f8fb" stroke="#496a9a"/>
<text x="580" y="54" text-anchor="middle" font-family="Inter, Helvetica, Arial, sans-serif" font-size="24" fill="#1f2937">Codec</text>
<line x1="580" y1="70" x2="580" y2="616" stroke="#b5bdc8" stroke-dasharray="4 4"/>
<rect x="485" y="616" width="190" height="44" rx="8" fill="#f6f8fb" stroke="#496a9a"/>
<text x="580" y="645" text-anchor="middle" font-family="Inter, Helvetica, Arial, sans-serif" font-size="24" fill="#1f2937">Codec</text>
<rect x="725" y="26" width="190" height="44" rx="8" fill="#f6f8fb" stroke="#496a9a"/>
<text x="820" y="54" text-anchor="middle" font-family="Inter, Helvetica, Arial, sans-serif" font-size="24" fill="#1f2937">Worker</text>
<line x1="820" y1="70" x2="820" y2="616" stroke="#b5bdc8" stroke-dasharray="4 4"/>
<rect x="725" y="616" width="190" height="44" rx="8" fill="#f6f8fb" stroke="#496a9a"/>
<text x="820" y="645" text-anchor="middle" font-family="Inter, Helvetica, Arial, sans-serif" font-size="24" fill="#1f2937">Worker</text>
<line x1="112" y1="105" x2="328" y2="105" stroke="#5f6f85" stroke-width="1.5"  marker-end="url(#arrow)"/>
<text x="220" y="95" text-anchor="middle" font-family="Inter, Helvetica, Arial, sans-serif" font-size="22" fill="#374151">unresolved function call</text>
<path d="M 340 181 C 410 181, 410 209, 340 209" fill="none" stroke="#5f6f85" stroke-width="1.5" marker-end="url(#arrow)"/>
<text x="414" y="201" text-anchor="start" font-family="Inter, Helvetica, Arial, sans-serif" font-size="22" fill="#374151">resolve to DataFusion UDF expression</text>
<line x1="352" y1="257" x2="568" y2="257" stroke="#5f6f85" stroke-width="1.5"  marker-end="url(#arrow)"/>
<text x="460" y="247" text-anchor="middle" font-family="Inter, Helvetica, Arial, sans-serif" font-size="22" fill="#374151">encode physical plan</text>
<line x1="592" y1="333" x2="808" y2="333" stroke="#5f6f85" stroke-width="1.5" stroke-dasharray="5 4" marker-end="url(#arrow)"/>
<text x="700" y="323" text-anchor="middle" font-family="Inter, Helvetica, Arial, sans-serif" font-size="22" fill="#374151">bytes</text>
<line x1="808" y1="409" x2="592" y2="409" stroke="#5f6f85" stroke-width="1.5"  marker-end="url(#arrow)"/>
<text x="700" y="399" text-anchor="middle" font-family="Inter, Helvetica, Arial, sans-serif" font-size="22" fill="#374151">decode physical plan</text>
<path d="M 820 485 C 750 485, 750 513, 820 513" fill="none" stroke="#5f6f85" stroke-width="1.5" marker-end="url(#arrow)"/>
<text x="746" y="505" text-anchor="end" font-family="Inter, Helvetica, Arial, sans-serif" font-size="22" fill="#374151">execute UDF on Arrow arrays</text>
</svg>