<svg xmlns="http://www.w3.org/2000/svg" width="492" height="1390" viewBox="0 0 492 1390">
<defs>
  <marker id="arrow" markerWidth="10" markerHeight="10" refX="8" refY="3" orient="auto" markerUnits="strokeWidth">
    <path d="M0,0 L0,6 L8,3 z" fill="#5f6f85"/>
  </marker>
</defs>
<rect x="0" y="0" width="492" height="1390" fill="white"/>

<line x1="246" y1="98" x2="246" y2="191" stroke="#5f6f85" stroke-width="1.5" marker-end="url(#arrow)"/>
<line x1="246" y1="253" x2="246" y2="330" stroke="#5f6f85" stroke-width="1.5" marker-end="url(#arrow)"/>
<line x1="246" y1="424" x2="246" y2="469" stroke="#5f6f85" stroke-width="1.5" marker-end="url(#arrow)"/>
<line x1="246" y1="595" x2="246" y2="656" stroke="#5f6f85" stroke-width="1.5" marker-end="url(#arrow)"/>
<line x1="246" y1="718" x2="246" y2="811" stroke="#5f6f85" stroke-width="1.5" marker-end="url(#arrow)"/>
<line x1="246" y1="873" x2="246" y2="966" stroke="#5f6f85" stroke-width="1.5" marker-end="url(#arrow)"/>
<line x1="246" y1="1028" x2="246" y2="1121" stroke="#5f6f85" stroke-width="1.5" marker-end="url(#arrow)"/>
<line x1="246" y1="1183" x2="246" y2="1260" stroke="#5f6f85" stroke-width="1.5" marker-end="url(#arrow)"/>
<rect x="120" y="36" width="252" height="62" rx="8" fill="#f6f8fb" stroke="#496a9a" stroke-width="1.5"/>
<text x="246" y="67" text-anchor="middle" dominant-baseline="middle" font-family="Inter, Helvetica, Arial, sans-serif" font-size="26" fill="#1f2937"><tspan x="246" dy="0">DELETE / MERGE</tspan></text>
<rect x="134" y="191" width="224" height="62" rx="8" fill="#f6f8fb" stroke="#496a9a" stroke-width="1.5"/>
<text x="246" y="222" text-anchor="middle" dominant-baseline="middle" font-family="Inter, Helvetica, Arial, sans-serif" font-size="26" fill="#1f2937"><tspan x="246" dy="0">PlanResolver</tspan></text>
<rect x="99" y="330" width="294" height="94" rx="8" fill="#f6f8fb" stroke="#496a9a" stroke-width="1.5"/>
<text x="246" y="361" text-anchor="middle" dominant-baseline="middle" font-family="Inter, Helvetica, Arial, sans-serif" font-size="26" fill="#1f2937"><tspan x="246" dy="0">row-level logical</tspan><tspan x="246" dy="32">node</tspan></text>
<rect x="151" y="469" width="190" height="126" rx="8" fill="#f6f8fb" stroke="#496a9a" stroke-width="1.5"/>
<text x="246" y="500" text-anchor="middle" dominant-baseline="middle" font-family="Inter, Helvetica, Arial, sans-serif" font-size="26" fill="#1f2937"><tspan x="246" dy="0">lakehouse</tspan><tspan x="246" dy="32">optimizer</tspan><tspan x="246" dy="32">expansion</tspan></text>
<rect x="99" y="656" width="294" height="62" rx="8" fill="#f6f8fb" stroke="#496a9a" stroke-width="1.5"/>
<text x="246" y="687" text-anchor="middle" dominant-baseline="middle" font-family="Inter, Helvetica, Arial, sans-serif" font-size="26" fill="#1f2937"><tspan x="246" dy="0">RowLevelWriteNode</tspan></text>
<rect x="71" y="811" width="350" height="62" rx="8" fill="#f6f8fb" stroke="#496a9a" stroke-width="1.5"/>
<text x="246" y="842" text-anchor="middle" dominant-baseline="middle" font-family="Inter, Helvetica, Arial, sans-serif" font-size="26" fill="#1f2937"><tspan x="246" dy="0">DeltaExtensionPlanner</tspan></text>
<rect x="36" y="966" width="420" height="62" rx="8" fill="#f6f8fb" stroke="#496a9a" stroke-width="1.5"/>
<text x="246" y="997" text-anchor="middle" dominant-baseline="middle" font-family="Inter, Helvetica, Arial, sans-serif" font-size="26" fill="#1f2937"><tspan x="246" dy="0">create_row_level_write_physical_plan</tspan></text>
<rect x="36" y="1121" width="420" height="62" rx="8" fill="#f6f8fb" stroke="#496a9a" stroke-width="1.5"/>
<text x="246" y="1152" text-anchor="middle" dominant-baseline="middle" font-family="Inter, Helvetica, Arial, sans-serif" font-size="26" fill="#1f2937"><tspan x="246" dy="0">TableFormat.create_row_level_writer</tspan></text>
<rect x="113" y="1260" width="266" height="94" rx="8" fill="#f6f8fb" stroke="#496a9a" stroke-width="1.5"/>
<text x="246" y="1291" text-anchor="middle" dominant-baseline="middle" font-family="Inter, Helvetica, Arial, sans-serif" font-size="26" fill="#1f2937"><tspan x="246" dy="0">Delta row-level</tspan><tspan x="246" dy="32">ExecutionPlan</tspan></text>
</svg>