<svg xmlns="http://www.w3.org/2000/svg" width="693" height="1390" viewBox="0 0 693 1390">
<defs>
  <marker id="arrow" markerWidth="10" markerHeight="10" refX="8" refY="3" orient="auto" markerUnits="strokeWidth">
    <path d="M0,0 L0,6 L8,3 z" fill="#5f6f85"/>
  </marker>
</defs>
<rect x="0" y="0" width="693" height="1390" fill="white"/>

<line x1="190" y1="130" x2="190" y2="207" stroke="#5f6f85" stroke-width="1.5" marker-end="url(#arrow)"/>
<line x1="190" y1="269" x2="190" y2="362" stroke="#5f6f85" stroke-width="1.5" marker-end="url(#arrow)"/>
<line x1="190" y1="424" x2="190" y2="517" stroke="#5f6f85" stroke-width="1.5" marker-end="url(#arrow)"/>
<line x1="190" y1="424" x2="510" y2="517" stroke="#5f6f85" stroke-width="1.5" marker-end="url(#arrow)"/>
<line x1="510" y1="579" x2="190" y2="656" stroke="#5f6f85" stroke-width="1.5" marker-end="url(#arrow)"/>
<line x1="190" y1="750" x2="190" y2="827" stroke="#5f6f85" stroke-width="1.5" marker-end="url(#arrow)"/>
<line x1="190" y1="889" x2="190" y2="966" stroke="#5f6f85" stroke-width="1.5" marker-end="url(#arrow)"/>
<line x1="190" y1="889" x2="510" y2="966" stroke="#5f6f85" stroke-width="1.5" marker-end="url(#arrow)"/>
<line x1="190" y1="579" x2="510" y2="672" stroke="#5f6f85" stroke-width="1.5" marker-end="url(#arrow)"/>
<line x1="190" y1="1060" x2="510" y2="672" stroke="#5f6f85" stroke-width="1.5" marker-end="url(#arrow)"/>
<line x1="510" y1="1060" x2="190" y2="1121" stroke="#5f6f85" stroke-width="1.5" marker-end="url(#arrow)"/>
<line x1="510" y1="734" x2="510" y2="827" stroke="#5f6f85" stroke-width="1.5" marker-end="url(#arrow)"/>
<line x1="190" y1="1215" x2="190" y2="1292" stroke="#5f6f85" stroke-width="1.5" marker-end="url(#arrow)"/>
<line x1="510" y1="889" x2="190" y2="1292" stroke="#5f6f85" stroke-width="1.5" marker-end="url(#arrow)"/>
<rect x="57" y="36" width="266" height="94" rx="8" fill="#f6f8fb" stroke="#496a9a" stroke-width="1.5"/>
<text x="190" y="67" text-anchor="middle" dominant-baseline="middle" font-family="Inter, Helvetica, Arial, sans-serif" font-size="26" fill="#1f2937"><tspan x="190" dy="0">INSERT / SAVE /</tspan><tspan x="190" dy="32">CTAS</tspan></text>
<rect x="50" y="207" width="280" height="62" rx="8" fill="#f6f8fb" stroke="#496a9a" stroke-width="1.5"/>
<text x="190" y="238" text-anchor="middle" dominant-baseline="middle" font-family="Inter, Helvetica, Arial, sans-serif" font-size="26" fill="#1f2937"><tspan x="190" dy="0">WritePlanBuilder</tspan></text>
<rect x="95" y="362" width="190" height="62" rx="10" fill="#fff6d9" stroke="#c58c00" stroke-width="1.5"/>
<text x="190" y="393" text-anchor="middle" dominant-baseline="middle" font-family="Inter, Helvetica, Arial, sans-serif" font-size="26" fill="#1f2937"><tspan x="190" dy="0">target</tspan></text>
<rect x="92" y="517" width="196" height="62" rx="8" fill="#f6f8fb" stroke="#496a9a" stroke-width="1.5"/>
<text x="190" y="548" text-anchor="middle" dominant-baseline="middle" font-family="Inter, Helvetica, Arial, sans-serif" font-size="26" fill="#1f2937"><tspan x="190" dy="0">DataSource</tspan></text>
<rect x="391" y="517" width="238" height="62" rx="8" fill="#f6f8fb" stroke="#496a9a" stroke-width="1.5"/>
<text x="510" y="548" text-anchor="middle" dominant-baseline="middle" font-family="Inter, Helvetica, Arial, sans-serif" font-size="26" fill="#1f2937"><tspan x="510" dy="0">Catalog Table</tspan></text>
<rect x="64" y="656" width="252" height="94" rx="8" fill="#f6f8fb" stroke="#496a9a" stroke-width="1.5"/>
<text x="190" y="687" text-anchor="middle" dominant-baseline="middle" font-family="Inter, Helvetica, Arial, sans-serif" font-size="26" fill="#1f2937"><tspan x="190" dy="0">CatalogManager</tspan><tspan x="190" dy="32">lookup</tspan></text>
<rect x="95" y="827" width="190" height="62" rx="10" fill="#fff6d9" stroke="#c58c00" stroke-width="1.5"/>
<text x="190" y="858" text-anchor="middle" dominant-baseline="middle" font-family="Inter, Helvetica, Arial, sans-serif" font-size="26" fill="#1f2937"><tspan x="190" dy="0">exists?</tspan></text>
<rect x="85" y="966" width="210" height="94" rx="8" fill="#f6f8fb" stroke="#496a9a" stroke-width="1.5"/>
<text x="190" y="997" text-anchor="middle" dominant-baseline="middle" font-family="Inter, Helvetica, Arial, sans-serif" font-size="26" fill="#1f2937"><tspan x="190" dy="0">reuse table</tspan><tspan x="190" dy="32">metadata</tspan></text>
<rect x="363" y="966" width="294" height="94" rx="8" fill="#f6f8fb" stroke="#496a9a" stroke-width="1.5"/>
<text x="510" y="997" text-anchor="middle" dominant-baseline="middle" font-family="Inter, Helvetica, Arial, sans-serif" font-size="26" fill="#1f2937"><tspan x="510" dy="0">build CreateTable</tspan><tspan x="510" dy="32">command</tspan></text>
<rect x="370" y="672" width="280" height="62" rx="8" fill="#f6f8fb" stroke="#496a9a" stroke-width="1.5"/>
<text x="510" y="703" text-anchor="middle" dominant-baseline="middle" font-family="Inter, Helvetica, Arial, sans-serif" font-size="26" fill="#1f2937"><tspan x="510" dy="0">FileWriteOptions</tspan></text>
<rect x="36" y="1121" width="308" height="94" rx="8" fill="#f6f8fb" stroke="#496a9a" stroke-width="1.5"/>
<text x="190" y="1152" text-anchor="middle" dominant-baseline="middle" font-family="Inter, Helvetica, Arial, sans-serif" font-size="26" fill="#1f2937"><tspan x="190" dy="0">CatalogCommandNode</tspan><tspan x="190" dy="32">precondition</tspan></text>
<rect x="391" y="827" width="238" height="62" rx="8" fill="#f6f8fb" stroke="#496a9a" stroke-width="1.5"/>
<text x="510" y="858" text-anchor="middle" dominant-baseline="middle" font-family="Inter, Helvetica, Arial, sans-serif" font-size="26" fill="#1f2937"><tspan x="510" dy="0">FileWriteNode</tspan></text>
<rect x="85" y="1292" width="210" height="62" rx="8" fill="#f6f8fb" stroke="#496a9a" stroke-width="1.5"/>
<text x="190" y="1323" text-anchor="middle" dominant-baseline="middle" font-family="Inter, Helvetica, Arial, sans-serif" font-size="26" fill="#1f2937"><tspan x="190" dy="0">BarrierNode</tspan></text>
</svg>