<svg xmlns="http://www.w3.org/2000/svg" width="900" height="693" viewBox="0 0 1382 1064">
<defs>
  <marker id="arrow" markerWidth="10" markerHeight="10" refX="8" refY="3" orient="auto" markerUnits="strokeWidth">
    <path d="M0,0 L0,6 L8,3 z" fill="#5f6f85"/>
  </marker>
</defs>
<rect x="0" y="0" width="1382" height="1064" fill="white"/>

<line x1="239" y1="98" x2="239" y2="175" stroke="#5f6f85" stroke-width="1.5" marker-end="url(#arrow)"/>
<line x1="239" y1="269" x2="239" y2="330" stroke="#5f6f85" stroke-width="1.5" marker-end="url(#arrow)"/><text x="239" y="291.5" text-anchor="middle" font-family="Inter, Helvetica, Arial, sans-serif" font-size="22" fill="#4b5563">yes, format exists</text>
<line x1="239" y1="269" x2="559" y2="346" stroke="#5f6f85" stroke-width="1.5" marker-end="url(#arrow)"/><text x="399" y="299.5" text-anchor="middle" font-family="Inter, Helvetica, Arial, sans-serif" font-size="22" fill="#4b5563">no</text>
<line x1="559" y1="408" x2="239" y2="501" stroke="#5f6f85" stroke-width="1.5" marker-end="url(#arrow)"/><text x="399" y="446.5" text-anchor="middle" font-family="Inter, Helvetica, Arial, sans-serif" font-size="22" fill="#4b5563">yes</text>
<line x1="559" y1="408" x2="559" y2="501" stroke="#5f6f85" stroke-width="1.5" marker-end="url(#arrow)"/><text x="559" y="446.5" text-anchor="middle" font-family="Inter, Helvetica, Arial, sans-serif" font-size="22" fill="#4b5563">no</text>
<line x1="559" y1="563" x2="239" y2="656" stroke="#5f6f85" stroke-width="1.5" marker-end="url(#arrow)"/>
<line x1="239" y1="718" x2="239" y2="779" stroke="#5f6f85" stroke-width="1.5" marker-end="url(#arrow)"/>
<line x1="239" y1="718" x2="559" y2="795" stroke="#5f6f85" stroke-width="1.5" marker-end="url(#arrow)"/>
<line x1="239" y1="718" x2="879" y2="779" stroke="#5f6f85" stroke-width="1.5" marker-end="url(#arrow)"/>
<line x1="239" y1="718" x2="1199" y2="779" stroke="#5f6f85" stroke-width="1.5" marker-end="url(#arrow)"/>
<line x1="239" y1="905" x2="239" y2="966" stroke="#5f6f85" stroke-width="1.5" marker-end="url(#arrow)"/>
<line x1="559" y1="889" x2="239" y2="966" stroke="#5f6f85" stroke-width="1.5" marker-end="url(#arrow)"/>
<line x1="879" y1="905" x2="239" y2="966" stroke="#5f6f85" stroke-width="1.5" marker-end="url(#arrow)"/>
<line x1="1199" y1="905" x2="239" y2="966" stroke="#5f6f85" stroke-width="1.5" marker-end="url(#arrow)"/>
<rect x="113" y="36" width="252" height="62" rx="8" fill="#f6f8fb" stroke="#496a9a" stroke-width="1.5"/>
<text x="239" y="67" text-anchor="middle" dominant-baseline="middle" font-family="Inter, Helvetica, Arial, sans-serif" font-size="26" fill="#1f2937"><tspan x="239" dy="0">ReadNamedTable</tspan></text>
<rect x="134" y="175" width="210" height="94" rx="10" fill="#fff6d9" stroke="#c58c00" stroke-width="1.5"/>
<text x="239" y="206" text-anchor="middle" dominant-baseline="middle" font-family="Inter, Helvetica, Arial, sans-serif" font-size="26" fill="#1f2937"><tspan x="239" dy="0">format.path</tspan><tspan x="239" dy="32">syntax?</tspan></text>
<rect x="85" y="330" width="308" height="94" rx="8" fill="#f6f8fb" stroke="#496a9a" stroke-width="1.5"/>
<text x="239" y="361" text-anchor="middle" dominant-baseline="middle" font-family="Inter, Helvetica, Arial, sans-serif" font-size="26" fill="#1f2937"><tspan x="239" dy="0">direct TableFormat</tspan><tspan x="239" dy="32">source</tspan></text>
<rect x="454" y="346" width="210" height="62" rx="10" fill="#fff6d9" stroke="#c58c00" stroke-width="1.5"/>
<text x="559" y="377" text-anchor="middle" dominant-baseline="middle" font-family="Inter, Helvetica, Arial, sans-serif" font-size="26" fill="#1f2937"><tspan x="559" dy="0">CTE exists?</tspan></text>
<rect x="99" y="501" width="280" height="62" rx="8" fill="#f6f8fb" stroke="#496a9a" stroke-width="1.5"/>
<text x="239" y="532" text-anchor="middle" dominant-baseline="middle" font-family="Inter, Helvetica, Arial, sans-serif" font-size="26" fill="#1f2937"><tspan x="239" dy="0">CTE logical plan</tspan></text>
<rect x="349" y="501" width="420" height="62" rx="8" fill="#f6f8fb" stroke="#496a9a" stroke-width="1.5"/>
<text x="559" y="532" text-anchor="middle" dominant-baseline="middle" font-family="Inter, Helvetica, Arial, sans-serif" font-size="26" fill="#1f2937"><tspan x="559" dy="0">CatalogManager.get_table_or_view</tspan></text>
<rect x="144" y="656" width="190" height="62" rx="10" fill="#fff6d9" stroke="#c58c00" stroke-width="1.5"/>
<text x="239" y="687" text-anchor="middle" dominant-baseline="middle" font-family="Inter, Helvetica, Arial, sans-serif" font-size="26" fill="#1f2937"><tspan x="239" dy="0">TableKind</tspan></text>
<rect x="36" y="779" width="406" height="126" rx="8" fill="#f6f8fb" stroke="#496a9a" stroke-width="1.5"/>
<text x="239" y="810" text-anchor="middle" dominant-baseline="middle" font-family="Inter, Helvetica, Arial, sans-serif" font-size="26" fill="#1f2937"><tspan x="239" dy="0">Table: SourceInfo</tspan><tspan x="239" dy="32">-&gt;</tspan><tspan x="239" dy="32">TableFormat.create_source</tspan></text>
<rect x="405" y="795" width="308" height="94" rx="8" fill="#f6f8fb" stroke="#496a9a" stroke-width="1.5"/>
<text x="559" y="826" text-anchor="middle" dominant-baseline="middle" font-family="Inter, Helvetica, Arial, sans-serif" font-size="26" fill="#1f2937"><tspan x="559" dy="0">View: parse stored</tspan><tspan x="559" dy="32">SQL and resolve</tspan></text>
<rect x="746" y="779" width="266" height="126" rx="8" fill="#f6f8fb" stroke="#496a9a" stroke-width="1.5"/>
<text x="879" y="810" text-anchor="middle" dominant-baseline="middle" font-family="Inter, Helvetica, Arial, sans-serif" font-size="26" fill="#1f2937"><tspan x="879" dy="0">Temporary view:</tspan><tspan x="879" dy="32">stored logical</tspan><tspan x="879" dy="32">plan</tspan></text>
<rect x="1052" y="779" width="294" height="126" rx="8" fill="#f6f8fb" stroke="#496a9a" stroke-width="1.5"/>
<text x="1199" y="810" text-anchor="middle" dominant-baseline="middle" font-family="Inter, Helvetica, Arial, sans-serif" font-size="26" fill="#1f2937"><tspan x="1199" dy="0">Global temp view:</tspan><tspan x="1199" dy="32">stored logical</tspan><tspan x="1199" dy="32">plan</tspan></text>
<rect x="57" y="966" width="364" height="62" rx="8" fill="#f6f8fb" stroke="#496a9a" stroke-width="1.5"/>
<text x="239" y="997" text-anchor="middle" dominant-baseline="middle" font-family="Inter, Helvetica, Arial, sans-serif" font-size="26" fill="#1f2937"><tspan x="239" dy="0">LogicalPlan::TableScan</tspan></text>
</svg>