<svg xmlns="http://www.w3.org/2000/svg" width="900" height="1341" viewBox="0 0 1048 1561">
<defs>
  <marker id="arrow" markerWidth="10" markerHeight="10" refX="8" refY="3" orient="auto" markerUnits="strokeWidth">
    <path d="M0,0 L0,6 L8,3 z" fill="#5f6f85"/>
  </marker>
</defs>
<rect x="0" y="0" width="1048" height="1561" fill="white"/>

<line x1="246" y1="130" x2="246" y2="191" stroke="#5f6f85" stroke-width="1.5" marker-end="url(#arrow)"/>
<line x1="246" y1="285" x2="246" y2="362" stroke="#5f6f85" stroke-width="1.5" marker-end="url(#arrow)"/>
<line x1="246" y1="424" x2="246" y2="517" stroke="#5f6f85" stroke-width="1.5" marker-end="url(#arrow)"/>
<line x1="246" y1="579" x2="246" y2="672" stroke="#5f6f85" stroke-width="1.5" marker-end="url(#arrow)"/>
<line x1="246" y1="734" x2="246" y2="811" stroke="#5f6f85" stroke-width="1.5" marker-end="url(#arrow)"/>
<line x1="246" y1="905" x2="246" y2="982" stroke="#5f6f85" stroke-width="1.5" marker-end="url(#arrow)"/>
<line x1="246" y1="1044" x2="246" y2="1105" stroke="#5f6f85" stroke-width="1.5" marker-end="url(#arrow)"/><text x="246" y="1066.5" text-anchor="middle" font-family="Inter, Helvetica, Arial, sans-serif" font-size="22" fill="#4b5563">no</text>
<line x1="246" y1="1044" x2="566" y2="1121" stroke="#5f6f85" stroke-width="1.5" marker-end="url(#arrow)"/><text x="406" y="1074.5" text-anchor="middle" font-family="Inter, Helvetica, Arial, sans-serif" font-size="22" fill="#4b5563">yes</text>
<line x1="566" y1="1215" x2="246" y2="1105" stroke="#5f6f85" stroke-width="1.5" marker-end="url(#arrow)"/><text x="406" y="1152" text-anchor="middle" font-family="Inter, Helvetica, Arial, sans-serif" font-size="22" fill="#4b5563">no</text>
<line x1="566" y1="1215" x2="246" y2="1276" stroke="#5f6f85" stroke-width="1.5" marker-end="url(#arrow)"/><text x="406" y="1237.5" text-anchor="middle" font-family="Inter, Helvetica, Arial, sans-serif" font-size="22" fill="#4b5563">yes</text>
<line x1="246" y1="1370" x2="246" y2="1431" stroke="#5f6f85" stroke-width="1.5" marker-end="url(#arrow)"/>
<line x1="246" y1="1370" x2="566" y2="1447" stroke="#5f6f85" stroke-width="1.5" marker-end="url(#arrow)"/>
<line x1="246" y1="1370" x2="886" y2="1431" stroke="#5f6f85" stroke-width="1.5" marker-end="url(#arrow)"/>
<rect x="127" y="36" width="238" height="94" rx="8" fill="#f6f8fb" stroke="#496a9a" stroke-width="1.5"/>
<text x="246" y="67" text-anchor="middle" dominant-baseline="middle" font-family="Inter, Helvetica, Arial, sans-serif" font-size="26" fill="#1f2937"><tspan x="246" dy="0">pip install</tspan><tspan x="246" dy="32">pysail-sedona</tspan></text>
<rect x="99" y="191" width="294" height="94" rx="8" fill="#f6f8fb" stroke="#496a9a" stroke-width="1.5"/>
<text x="246" y="222" text-anchor="middle" dominant-baseline="middle" font-family="Inter, Helvetica, Arial, sans-serif" font-size="26" fill="#1f2937"><tspan x="246" dy="0">pysail.extensions</tspan><tspan x="246" dy="32">entry point</tspan></text>
<rect x="36" y="362" width="420" height="62" rx="8" fill="#f6f8fb" stroke="#496a9a" stroke-width="1.5"/>
<text x="246" y="393" text-anchor="middle" dominant-baseline="middle" font-family="Inter, Helvetica, Arial, sans-serif" font-size="26" fill="#1f2937"><tspan x="246" dy="0">importlib.metadata.entry_points()</tspan></text>
<rect x="92" y="517" width="308" height="62" rx="8" fill="#f6f8fb" stroke="#496a9a" stroke-width="1.5"/>
<text x="246" y="548" text-anchor="middle" dominant-baseline="middle" font-family="Inter, Helvetica, Arial, sans-serif" font-size="26" fill="#1f2937"><tspan x="246" dy="0">load Python module</tspan></text>
<rect x="113" y="672" width="266" height="62" rx="8" fill="#f6f8fb" stroke="#496a9a" stroke-width="1.5"/>
<text x="246" y="703" text-anchor="middle" dominant-baseline="middle" font-family="Inter, Helvetica, Arial, sans-serif" font-size="26" fill="#1f2937"><tspan x="246" dy="0">call register()</tspan></text>
<rect x="99" y="811" width="294" height="94" rx="8" fill="#f6f8fb" stroke="#496a9a" stroke-width="1.5"/>
<text x="246" y="842" text-anchor="middle" dominant-baseline="middle" font-family="Inter, Helvetica, Arial, sans-serif" font-size="26" fill="#1f2937"><tspan x="246" dy="0">read</tspan><tspan x="246" dy="32">ExtensionManifest</tspan></text>
<rect x="113" y="982" width="266" height="62" rx="10" fill="#fff6d9" stroke="#c58c00" stroke-width="1.5"/>
<text x="246" y="1013" text-anchor="middle" dominant-baseline="middle" font-family="Inter, Helvetica, Arial, sans-serif" font-size="26" fill="#1f2937"><tspan x="246" dy="0">manifest valid?</tspan></text>
<rect x="148" y="1105" width="196" height="126" rx="8" fill="#f6f8fb" stroke="#496a9a" stroke-width="1.5"/>
<text x="246" y="1136" text-anchor="middle" dominant-baseline="middle" font-family="Inter, Helvetica, Arial, sans-serif" font-size="26" fill="#1f2937"><tspan x="246" dy="0">error with</tspan><tspan x="246" dy="32">actionable</tspan><tspan x="246" dy="32">diagnostic</tspan></text>
<rect x="461" y="1121" width="210" height="94" rx="10" fill="#fff6d9" stroke="#c58c00" stroke-width="1.5"/>
<text x="566" y="1152" text-anchor="middle" dominant-baseline="middle" font-family="Inter, Helvetica, Arial, sans-serif" font-size="26" fill="#1f2937"><tspan x="566" dy="0">version</tspan><tspan x="566" dy="32">compatible?</tspan></text>
<rect x="71" y="1276" width="350" height="94" rx="8" fill="#f6f8fb" stroke="#496a9a" stroke-width="1.5"/>
<text x="246" y="1307" text-anchor="middle" dominant-baseline="middle" font-family="Inter, Helvetica, Arial, sans-serif" font-size="26" fill="#1f2937"><tspan x="246" dy="0">register on</tspan><tspan x="246" dy="32">SailExtensionRegistry</tspan></text>
<rect x="127" y="1431" width="238" height="94" rx="8" fill="#f6f8fb" stroke="#496a9a" stroke-width="1.5"/>
<text x="246" y="1462" text-anchor="middle" dominant-baseline="middle" font-family="Inter, Helvetica, Arial, sans-serif" font-size="26" fill="#1f2937"><tspan x="246" dy="0">Spark Connect</tspan><tspan x="246" dy="32">dispatcher</tspan></text>
<rect x="363" y="1447" width="406" height="62" rx="8" fill="#f6f8fb" stroke="#496a9a" stroke-width="1.5"/>
<text x="566" y="1478" text-anchor="middle" dominant-baseline="middle" font-family="Inter, Helvetica, Arial, sans-serif" font-size="26" fill="#1f2937"><tspan x="566" dy="0">FunctionExtensionRegistry</tspan></text>
<rect x="760" y="1431" width="252" height="94" rx="8" fill="#f6f8fb" stroke="#496a9a" stroke-width="1.5"/>
<text x="886" y="1462" text-anchor="middle" dominant-baseline="middle" font-family="Inter, Helvetica, Arial, sans-serif" font-size="26" fill="#1f2937"><tspan x="886" dy="0">physical codec</tspan><tspan x="886" dy="32">registry</tspan></text>
</svg>