<svg xmlns="http://www.w3.org/2000/svg" width="492" height="1716" viewBox="0 0 492 1716">
<defs>
  <marker id="arrow" markerWidth="10" markerHeight="10" refX="8" refY="3" orient="auto" markerUnits="strokeWidth">
    <path d="M0,0 L0,6 L8,3 z" fill="#5f6f85"/>
  </marker>
</defs>
<rect x="0" y="0" width="492" height="1716" fill="white"/>
<rect x="10" y="157" width="472" height="448" rx="10" fill="#eef6ff" stroke="#9bc3e6" stroke-dasharray="5 4"/>
<text x="22" y="181" font-family="Inter, Helvetica, Arial, sans-serif" font-size="24" font-weight="700" fill="#315a86">Plan-time boundary</text>
<rect x="10" y="1103" width="472" height="603" rx="10" fill="#eef6ff" stroke="#9bc3e6" stroke-dasharray="5 4"/>
<text x="22" y="1127" font-family="Inter, Helvetica, Arial, sans-serif" font-size="24" font-weight="700" fill="#315a86">Execution-time boundary</text>
<line x1="246" y1="130" x2="246" y2="191" stroke="#5f6f85" stroke-width="1.5" marker-end="url(#arrow)"/>
<line x1="246" y1="285" x2="246" y2="330" stroke="#5f6f85" stroke-width="1.5" marker-end="url(#arrow)"/>
<line x1="246" y1="456" x2="246" y2="517" stroke="#5f6f85" stroke-width="1.5" marker-end="url(#arrow)"/>
<line x1="246" y1="579" x2="246" y2="656" stroke="#5f6f85" stroke-width="1.5" marker-end="url(#arrow)"/>
<line x1="246" y1="750" x2="246" y2="811" stroke="#5f6f85" stroke-width="1.5" marker-end="url(#arrow)"/>
<line x1="246" y1="905" x2="246" y2="966" stroke="#5f6f85" stroke-width="1.5" marker-end="url(#arrow)"/>
<line x1="246" y1="1060" x2="246" y2="1137" stroke="#5f6f85" stroke-width="1.5" marker-end="url(#arrow)"/>
<line x1="246" y1="1199" x2="246" y2="1292" stroke="#5f6f85" stroke-width="1.5" marker-end="url(#arrow)"/>
<line x1="246" y1="1354" x2="246" y2="1431" stroke="#5f6f85" stroke-width="1.5" marker-end="url(#arrow)"/>
<line x1="246" y1="1525" x2="246" y2="1586" stroke="#5f6f85" stroke-width="1.5" marker-end="url(#arrow)"/>
<rect x="120" y="36" width="252" height="94" rx="8" fill="#f6f8fb" stroke="#496a9a" stroke-width="1.5"/>
<text x="246" y="67" text-anchor="middle" dominant-baseline="middle" font-family="Inter, Helvetica, Arial, sans-serif" font-size="26" fill="#1f2937"><tspan x="246" dy="0">PySpark</tspan><tspan x="246" dy="32">spatial_join()</tspan></text>
<rect x="92" y="191" width="308" height="94" rx="8" fill="#f6f8fb" stroke="#496a9a" stroke-width="1.5"/>
<text x="246" y="222" text-anchor="middle" dominant-baseline="middle" font-family="Inter, Helvetica, Arial, sans-serif" font-size="26" fill="#1f2937"><tspan x="246" dy="0">Spark Connect</tspan><tspan x="246" dy="32">Relation.extension</tspan></text>
<rect x="36" y="330" width="420" height="126" rx="8" fill="#f6f8fb" stroke="#496a9a" stroke-width="1.5"/>
<text x="246" y="361" text-anchor="middle" dominant-baseline="middle" font-family="Inter, Helvetica, Arial, sans-serif" font-size="26" fill="#1f2937"><tspan x="246" dy="0">SparkConnectExtensionDispatcher</tspan><tspan x="246" dy="32">type_url:</tspan><tspan x="246" dy="32">sedona/SpatialJoin</tspan></text>
<rect x="36" y="517" width="420" height="62" rx="8" fill="#f6f8fb" stroke="#496a9a" stroke-width="1.5"/>
<text x="246" y="548" text-anchor="middle" dominant-baseline="middle" font-family="Inter, Helvetica, Arial, sans-serif" font-size="26" fill="#1f2937"><tspan x="246" dy="0">SpatialJoinRelationHandler::resolve</tspan></text>
<rect x="36" y="656" width="420" height="94" rx="8" fill="#f6f8fb" stroke="#496a9a" stroke-width="1.5"/>
<text x="246" y="687" text-anchor="middle" dominant-baseline="middle" font-family="Inter, Helvetica, Arial, sans-serif" font-size="26" fill="#1f2937"><tspan x="246" dy="0">spec::QueryNode::Extension</tspan><tspan x="246" dy="32">SpatialJoinNode</tspan></text>
<rect x="141" y="811" width="210" height="94" rx="8" fill="#f6f8fb" stroke="#496a9a" stroke-width="1.5"/>
<text x="246" y="842" text-anchor="middle" dominant-baseline="middle" font-family="Inter, Helvetica, Arial, sans-serif" font-size="26" fill="#1f2937"><tspan x="246" dy="0">DataFusion</tspan><tspan x="246" dy="32">LogicalPlan</tspan></text>
<rect x="36" y="966" width="420" height="94" rx="8" fill="#f6f8fb" stroke="#496a9a" stroke-width="1.5"/>
<text x="246" y="997" text-anchor="middle" dominant-baseline="middle" font-family="Inter, Helvetica, Arial, sans-serif" font-size="26" fill="#1f2937"><tspan x="246" dy="0">MergeSpatialPredicateIntoJoin</tspan><tspan x="246" dy="32">optimizer rule</tspan></text>
<rect x="36" y="1137" width="420" height="62" rx="8" fill="#f6f8fb" stroke="#496a9a" stroke-width="1.5"/>
<text x="246" y="1168" text-anchor="middle" dominant-baseline="middle" font-family="Inter, Helvetica, Arial, sans-serif" font-size="26" fill="#1f2937"><tspan x="246" dy="0">SpatialJoinExtensionPlanner</tspan></text>
<rect x="113" y="1292" width="266" height="62" rx="8" fill="#f6f8fb" stroke="#496a9a" stroke-width="1.5"/>
<text x="246" y="1323" text-anchor="middle" dominant-baseline="middle" font-family="Inter, Helvetica, Arial, sans-serif" font-size="26" fill="#1f2937"><tspan x="246" dy="0">SpatialJoinExec</tspan></text>
<rect x="85" y="1431" width="322" height="94" rx="8" fill="#f6f8fb" stroke="#496a9a" stroke-width="1.5"/>
<text x="246" y="1462" text-anchor="middle" dominant-baseline="middle" font-family="Inter, Helvetica, Arial, sans-serif" font-size="26" fill="#1f2937"><tspan x="246" dy="0">SedonaPhysicalCodec</tspan><tspan x="246" dy="32">encode</tspan></text>
<rect x="99" y="1586" width="294" height="94" rx="8" fill="#f6f8fb" stroke="#496a9a" stroke-width="1.5"/>
<text x="246" y="1617" text-anchor="middle" dominant-baseline="middle" font-family="Inter, Helvetica, Arial, sans-serif" font-size="26" fill="#1f2937"><tspan x="246" dy="0">worker decode and</tspan><tspan x="246" dy="32">execute</tspan></text>
</svg>